<?xml version="1.0" standalone="no"?>
<!DOCTYPE svg PUBLIC "-//W3C//DTD SVG 20010904//EN"
 "http://www.w3.org/TR/2001/REC-SVG-20010904/DTD/svg10.dtd">
<svg version="1.0" xmlns="http://www.w3.org/2000/svg"
 width="700.000000pt" height="700.000000pt" viewBox="0 0 700.000000 700.000000"
 preserveAspectRatio="xMidYMid meet">
<metadata>
Created by potrace 1.11, written by Peter Selinger 2001-2013
</metadata>
<g transform="translate(0.000000,700.000000) scale(0.100000,-0.100000)"
fill="#000000" stroke="none">
<path d="M0 3500 l0 -3500 841 0 842 0 -7 278 c-8 331 -30 860 -52 1250 -9
156 -14 286 -11 288 2 2 25 -2 52 -10 76 -23 305 -39 455 -32 148 7 236 21
368 62 150 45 214 85 338 208 130 131 191 220 269 395 l58 129 24 -29 c28 -32
91 -54 191 -64 l62 -7 0 -139 c0 -160 14 -146 -127 -125 -98 15 -126 28 -200
100 -27 25 -43 35 -43 25 0 -21 96 -126 132 -145 36 -19 265 -38 355 -30 34 3
77 12 96 20 26 11 118 71 186 123 2 2 2 5 -1 9 -3 3 -19 -7 -34 -22 -16 -15
-62 -42 -101 -62 -59 -28 -89 -35 -155 -39 l-83 -6 3 146 3 145 76 7 c96 9
159 27 189 56 13 12 25 21 27 18 2 -2 21 -47 42 -99 76 -189 125 -272 229
-387 131 -146 340 -247 580 -280 129 -18 426 -20 531 -4 39 6 90 14 114 18
l44 6 -6 -209 c-4 -115 -10 -521 -13 -902 l-7 -692 866 0 867 0 0 3500 0 3500
-2044 0 -2043 0 -7 -127 c-13 -243 -45 -427 -166 -968 -128 -571 -162 -763
-176 -1019 l-7 -119 109 6 c60 4 414 10 787 14 l677 6 0 66 c-1 166 -65 458
-151 690 -28 75 -98 244 -156 376 -144 332 -228 544 -257 653 -24 90 -53 278
-44 287 2 3 113 10 247 16 273 14 323 9 451 -42 275 -111 618 -437 899 -857
51 -77 62 -99 56 -120 -9 -36 -188 -527 -268 -737 -127 -329 -218 -535 -254
-577 -14 -16 -10 -23 42 -80 174 -191 332 -508 419 -839 l35 -129 -217 0
c-391 0 -693 -25 -908 -75 -34 -8 -147 -40 -250 -72 -185 -56 -191 -57 -309
-57 -133 0 -207 16 -425 94 -273 98 -426 116 -945 113 -187 -1 -391 -5 -452
-8 l-113 -7 0 171 0 172 36 97 c115 309 286 545 520 718 53 39 74 61 74 77 0
38 -54 117 -177 258 -250 288 -341 459 -360 675 -5 64 -2 83 32 190 170 544
396 871 710 1032 118 60 200 85 345 107 71 11 -143 13 -1312 14 l-1398 1 0
-3500z m2534 -160 c203 -24 279 -46 361 -104 113 -81 127 -116 128 -301 0
-234 -80 -476 -231 -701 -101 -149 -160 -197 -338 -277 -170 -75 -566 -105
-809 -59 -33 6 -40 12 -42 32 -7 67 -53 1083 -55 1210 l-3 144 170 32 c94 18
208 34 255 35 47 1 99 5 115 10 42 11 257 1 449 -21z m2476 20 c175 -18 167
-15 179 -68 17 -84 50 -353 66 -542 16 -200 38 -757 30 -770 -3 -5 -29 -17
-58 -27 -45 -16 -85 -18 -297 -18 -550 2 -692 66 -894 407 -59 101 -100 198
-132 315 -36 133 -43 191 -35 318 8 125 30 185 90 237 47 42 143 85 216 97 33
5 114 19 180 30 66 11 131 22 145 24 54 9 420 6 510 -3z m-1461 -390 c44 -22
72 -56 99 -121 18 -43 35 -109 28 -109 -2 0 -30 12 -62 28 -53 24 -70 27 -164
27 -97 -1 -110 -3 -170 -32 -35 -18 -66 -31 -67 -29 -1 1 9 39 23 84 29 93 60
136 119 164 49 23 136 18 194 -12z"/>
<path d="M2200 2879 c-82 -25 -140 -101 -140 -184 0 -49 20 -108 48 -138 49
-55 164 -77 227 -44 65 33 115 112 115 180 0 18 -12 57 -26 85 -41 83 -138
126 -224 101z"/>
<path d="M4633 2881 c-101 -26 -163 -131 -141 -237 14 -65 77 -128 143 -142
187 -40 317 172 193 314 -52 59 -124 83 -195 65z"/>
</g>
</svg>
