<?xml version="1.0" encoding="utf-8"?>
<!-- Generator: Adobe Illustrator 19.2.0, SVG Export Plug-In . SVG Version: 6.00 Build 0)  -->
<svg version="1.1" id="Warstwa_1" xmlns="http://www.w3.org/2000/svg" xmlns:xlink="http://www.w3.org/1999/xlink" x="0px" y="0px"
	 viewBox="0 0 400 400" style="enable-background:new 0 0 400 400;" xml:space="preserve">
<style type="text/css">
	.st0{fill:#FFFFFF;}
	.st1{fill:#242424;}
	.st2{fill:#EAEAEA;}
	.st3{display:none;}
	.st4{display:inline;}
	.st5{fill:#008983;}
	.st6{fill:#12ADA7;}
	.st7{display:inline;fill:#008983;}
</style>
<g>
	<g id="lama">
		<g id="body">
			<g>
				<path class="st0" d="M448.2,370c16.3,0,23.3-10.1,34-10.1c-2.5-2.5-5.1-5-7.5-7.4c1.2-3,2.4-6.1,3.6-9c-4.4-1-8.8-2-13.2-3
					c0-3.4,0-6.6,0-10c-12.7,3.3-25.4,6.4-38.2,9.7c2.4-2.3,4.7-4.4,7.1-6.6c-12.3,1.9-24.4,3.8-36.7,5.6c2-2,4.1-4.1,6.1-6.1
					c-10.8,0.3-21.6,0.7-32.4,1c0.6-2.4,1-4.7,1.6-7.1c-11.4,1.6-22.7,3-34.2,4.6c0.6-0.9,1-1.7,1.6-2.6
					c-11.3,2.4-22.4,4.7-33.7,7.1c1.6-2.4,3-4.7,4.6-7.1c-106.2,0-27.8-180.7-79.9-232.7c2.7-1.5,17.3-42.5,17.3-42.5
					S229.3,22,210.9,22c-2.5,0-12.2,0.5-14.6,0.5c0,17.6,19.4,40,19.4,64.9c-16.4,0.2-33,0.3-49.4,0.6c0-22.4,10.7-47,10.7-70
					c-25,0-34.4,19.5-40.1,39.6c0,17.2,17.2,26.2,17.2,32.3c-11.6,7.5-16.1,17.3-19.9,27.3c0,65.8,15.1,161.3-8.2,220.7
					c-0.5,1.9-0.9,3.8-1.2,5.7c3.9-0.6,7.9-1.1,11.7-1.7c0,0-14.2,31.4-14.2,42.7c3-3.9,6.1-7.8,9.2-11.7
					c-2.4,13.7-4.7,27.5-7.1,41.2c2.4-1.6,4.6-3.2,7-4.6c-1.9,15-3.7,29.8-5.6,44.8c2.9-3.7,5.7-7.4,8.7-11.1c0,8.4,0,17,0,25.4
					c2.1,0,4.4,0,6.5,0c-2.9,10.7-5.7,21.4-8.7,32.1c3-4.1,6.1-8.1,9.1-12.3c5.1,20.6,10.2,41.1,15.3,61.7
					c-0.9,38.5-1.7,77.1-2.6,115.6c14.7-0.3,29.6-0.7,44.3-1c1.7-32.1-0.8-76.1,0.8-113c0.5-11.4,4.8-20.6,5.4-30.5
					c1.7,9.8,9,20,10.8,31.4c5.4,35,5.4,75.7,10.6,105.8c9.3-1,18.7-2,27.9-3c1.4-45.8,2.7-91.7,4.1-137.5
					c6.6,0.9,13.2,1.7,19.8,2.6c3.7,5.4,7.4,10.8,11.3,16.2c1.7,0,3.4,0,5,0c0.3-4.7,0.7-9.5,1-14.2c3.6,6.4,7.1,12.8,10.7,19.4
					c-0.6-5.1-1-10.1-1.6-15.2c5.7,3.9,11.5,7.8,17.3,11.7c-2.6-8.8-5.1-17.7-7.7-26.6c6.4-2.4,21.4-0.6,19.4-7.1
					c20.3,64.3,19.1,99.5,19.4,151.8c11.6-0.6,12.9,0.2,24.4-0.3c0-39.3,3.2-95.2,3.2-133c0-0.7,5.4,12,5.4,11.5
					c-0.6,39.2,5.3,82.4,4.7,121.5c11.7-0.9,14.3,0.6,26-0.3c0-58.4,27.2-114.8,27.2-160.3c2.3,1,4.4,2,6.6,3
					c-2.4-7.4-4.7-15-7.1-22.4c0-3.3,0-6.4,0-9.7c2.5,0.9,5.1,1.7,7.5,2.6c-0.9-18.8-1.7-37.7-2.6-56.5c3,0.6,6.1,1,9.1,1.6
					C454,399.4,451.1,384.8,448.2,370z"/>
			</g>
		</g>
		<g id="head">
			<g id="eye1">
				<g>
					<ellipse class="st1" cx="156.7" cy="152.5" rx="6.4" ry="6.4"/>
				</g>
			</g>
			<g id="eye2">
				<g>
					<ellipse class="st1" cx="232.8" cy="152.5" rx="6.4" ry="6.4"/>
				</g>
			</g>
			<g id="mouth_1_">
				<g id="Elipsa_3">
					<g>
						<path class="st2" d="M194.5,144.7c-13.3,0-21.3,12.2-20.6,27.1c0.7,15,7.5,27.1,20.6,27.1c13.3,0,19.4-11.8,19.4-26.8
							C213.9,157.2,207.7,144.7,194.5,144.7z"/>
					</g>
				</g>
				<g id="smile">
					<g>
						<path class="st1" d="M201.1,167.8c-4.1,1.8-11.6,0-13.2,0c-2.8,0.1-6-3.8-6-3.8v1c0,0,2.7,4.8,6,4.8c3.6,0,9.8,1.1,13.2-1
							c3-1.8,4.5-3.7,4.5-3.7v-1C205.6,164.1,204.4,166.3,201.1,167.8z"/>
					</g>
				</g>
				<g id="face" class="st3">
					<g class="st4">
						<path class="st1" d="M202.4,168c-6.3,1-12.6,1.4-19,1c-0.3,0-1.8,0.6-1.1,0.6c6.6,0.2,13.2-0.1,19.8-1.1
							C202.6,168.3,203.5,167.8,202.4,168L202.4,168z"/>
					</g>
				</g>
				<g id="cheek" class="st3">
					<g class="st4">
						<path class="st1" d="M201.9,164.1c-0.7,4.5,0.9,8,2.5,12.2c0.2,0.5,1.8,0,1.6-0.5c-1.6-4.2-3.2-7.5-2.5-12
							C203.5,163.4,202,163.6,201.9,164.1L201.9,164.1z"/>
					</g>
				</g>
				<g id="noseline">
					<g>
						<polygon class="st1" points="193.3,154.7 193.3,168 194.3,168 194.3,154.7 						"/>
					</g>
				</g>
				<g id="nose">
					<g>
						<path class="st1" d="M194,149.2c-5.3,0-9.6,2.8-9.6,6.4s4.6,4.2,9.9,4.2c5.3,0,9.2-0.7,9.2-4.2S199.3,149.2,194,149.2z"/>
					</g>
				</g>
			</g>
		</g>
		<g id="tie">
			<g>
				<path class="st1" d="M226.7,247.2c-4.6-1.5-27.2,11.5-27.2,11.5c-1.4-1.5-3.4-2.4-5.6-2.4s-4.3,0.9-5.6,2.4
					c0,0-22.7-13.7-27.1-11.1c-4.3,2.5-4.5,29.4,0,32c4.5,2.7,27.6-10.8,27.6-10.8c1.4,1.2,3.2,2,5.2,2s3.8-0.8,5.2-2
					c0,0,23.7,14,27.6,10.8C230.2,276.3,231.2,248.6,226.7,247.2z"/>
			</g>
		</g>
		<g id="glasses">
			<g>
				<path class="st1" d="M273.8,134.3c0-1.1-0.1-2.3-0.2-3.4c0-0.6-0.2-0.8-0.8-1c-0.3-0.1-0.7-0.2-1-0.2c-5-0.8-9.9-1.6-15-1.9
					c-4.1-0.3-8-0.5-12-0.7c-7.8-0.3-15.4-0.2-23.2,0.8c-4.7,0.6-9.3,1.5-13.8,2.9c-2.3,0.8-4.5,1.6-6.9,2.4
					c-3.6,1.1-7.2,1.7-10.9,0.9c-2.3-0.5-4.4-1-6.6-1.8c-3.9-1.2-7.8-2.6-11.9-3.3c-7.9-1.5-15.9-2.1-23.3-2
					c-6.1,0-11.5,0.2-16.9,0.9c-4.4,0.6-8.9,1.1-13.3,1.7c-0.9,0.1-1.9,0.5-2.8,0.7c-0.5,0.1-0.8,0.5-0.8,1
					c-0.1,2.6-0.2,5.3-0.2,7.9c0,0.5,0.1,0.8,0.1,1.2c0,0.3,0.2,0.6,0.6,0.7s0.7,0.3,1,0.6c1.5,1,2.1,2.6,2.7,4.2
					c0.5,1.1,0.7,2.4,1,3.5c0.2,0.7,0.5,1.5,0.7,2.1c0.8,3.5,1.5,6.9,2.3,10.4c0.8,3.3,1.7,6.5,3.3,9.5c1.7,3.4,4.2,6,7.8,7.4
					c2.1,0.9,4.4,1.5,6.6,1.8c4.1,0.7,8.1,0.7,12.3,0.5c4.2-0.3,8.2-0.9,12.3-2.1c2.9-0.9,5.7-2.1,8.1-4.2c3.6-3.2,6.5-6.9,8.8-11.1
					c2.3-4.3,3.8-8.8,5.2-13.4c0.5-1.4,0.8-2.6,1.2-3.9c0.7-1.9,2-3,4.1-3.4c0.7-0.1,1.4-0.1,1.9-0.1c1.5,0.1,2.9,0.5,3.9,1.7
					c0.5,0.6,0.9,1.1,1.1,1.8c0.6,1.2,1.1,2.6,1.5,3.8c1.8,5.6,4.2,11,7.1,16.2c2.5,4.3,5.7,7.7,10,10.1c3,1.7,6.3,2.7,9.7,3.4
					c5.1,1,10.2,1.2,15.4,1c3.2-0.1,6.2-0.6,9.2-1.5s5.9-2.5,7.9-5.1c1.4-1.7,2.3-3.6,3-5.5c1.7-4.2,2.8-8.6,3.7-12.8
					c0.5-2.1,1-4.3,1.5-6.4c0.2-1.1,0.6-2.3,0.9-3.3s0.6-2.1,1.1-2.9c0.7-0.9,1.4-1.8,2.4-2.1c0.5-0.2,0.7-0.5,0.8-1
					c0.1-0.3,0.1-0.7,0.1-1C273.8,137.5,273.8,135.9,273.8,134.3z M120.8,135.9c-1.7,0-3-0.3-3-0.8s1.4-0.8,3-0.8c1.7,0,3,0.3,3,0.8
					C123.9,135.6,122.5,135.9,120.8,135.9z M179.9,152.7c-1.1,4.6-2.8,8.9-5.2,13.1c-1.2,2.3-2.7,4.3-4.6,6.1
					c-2.5,2.4-5.4,3.7-8.7,4.6c-6.5,1.7-13.2,2.1-19.9,1.1c-1.4-0.2-2.6-0.6-3.9-0.9c-2.7-0.7-4.7-2.3-6.2-4.6
					c-1.7-2.6-2.7-5.4-3.5-8.3c-0.9-3.8-1.5-7.8-1.8-11.8c-0.2-2.3-0.2-4.6,0.1-6.9c0.1-1.1,0.2-2.4,0.5-3.5
					c0.9-4.1,3.4-6.5,7.3-7.7c3.6-0.9,7.3-1.5,11-1.8c2.7-0.2,5.5-0.3,7.3-0.5c6.3,0.1,11.6,0.5,16.9,1.7c2.1,0.5,4.3,0.9,6.2,2
					c1,0.6,1.9,1.1,2.7,1.8c1.4,1.1,2.1,2.7,2.4,4.5C181.2,145.5,180.7,149.1,179.9,152.7z M258.7,167.2c-0.8,2.1-1.9,4.1-3.5,5.6
					c-1.8,1.8-4.1,2.7-6.4,3.4c-3,0.8-6.1,1-9.1,1c-4.7,0-9.2-0.6-13.8-1.6c-4.5-1-8.1-3.4-11-7c-3.7-4.6-6.1-9.9-7.3-15.6
					c-0.6-2.7-1.1-5.4-1-8.1c0-1.2,0.1-2.4,0.3-3.6c0.6-2.9,2.3-4.8,5-5.9c2.7-1.1,5.5-1.8,8.3-2.4c3.2-0.7,6.3-1.1,9.5-1.4
					c2.5-0.1,5-0.2,6.6-0.3c6.6,0.3,12.5,0.8,18.2,2.5c1,0.3,2,0.8,3,1.2c0.9,0.5,1.7,1.1,2.1,2.1c0.6,1,1,2,1.5,3.2
					s0.6,2.6,0.7,3.9c0.1,2.1,0.2,4.3,0.1,6.4C261.6,156.5,260.6,161.9,258.7,167.2z M267,135.9c-1.7,0-3-0.3-3-0.8s1.4-0.8,3-0.8
					c1.7,0,3,0.3,3,0.8C270.1,135.6,268.7,135.9,267,135.9z"/>
			</g>
		</g>
	</g>
</g>
<g class="st3">
	<g class="st4">
		<path class="st5" d="M223.6,92.7c4.2,3,8.1,6.3,10.9,8.1c8.6,5.4,10.4,4.5,10.4,4.5L236.6,95C236.6,95,223.9,90.6,223.6,92.7z"/>
		<path class="st6" d="M226.1,84.5c1.9-7.1,24.4-12.8,26.3-9.4c1.9,3.4,1.1,10.7,0.1,14.8c-2,8.8-6.9,14.6-7.5,15.3
			c-0.6,0.7-2.7-3.4-9.6-8.2c-6.2-4.3-11.7-4.4-11.7-4.4S225.3,87.3,226.1,84.5z"/>
	</g>
	<g class="st4">
		<path class="st5" d="M215.6,90.5c-5.2,0.3-10.2,1.1-13.5,1.2c-10.2,0.1-11.2-1.6-11.2-1.6l12.5-4.4
			C203.4,85.6,216.5,88.5,215.6,90.5z"/>
		<path class="st6" d="M217.8,82.2c2.1-7.1-14-23.7-17.4-21.8s-6.5,8.5-7.9,12.6c-2.9,8.6-1.8,16.1-1.6,17c0.1,0.9,4.1-1.5,12.5-2
			c7.5-0.4,12.3,2.5,12.3,2.5S217.1,85,217.8,82.2z"/>
	</g>
	<path class="st7" d="M223.8,92.7c-4.2,0.7-8.4-2.4-8.4-2.4l2.4-8.3c-3.9,0,5.2-0.5,8.4,2.4C225.7,86,224.1,91.6,223.8,92.7z"/>
</g>
</svg>
