<?xml version="1.0" encoding="utf-8"?>
<!-- Generator: Adobe Illustrator 19.2.0, SVG Export Plug-In . SVG Version: 6.00 Build 0)  -->
<svg version="1.1" id="Warstwa_1" xmlns="http://www.w3.org/2000/svg" xmlns:xlink="http://www.w3.org/1999/xlink" x="0px" y="0px"
	 viewBox="0 0 2480 835.2" style="enable-background:new 0 0 2480 835.2;" xml:space="preserve">
<style type="text/css">
	.st0{fill:#88B4E0;}
	.st1{fill:#89BF40;}
	.st2{fill:#7EAD41;}
	.st3{display:none;}
	.st4{display:inline;fill:#FFFFFF;}
	.st5{fill:#FFFFFF;}
	.st6{fill:#242424;}
	.st7{fill:#EAEAEA;}
	.st8{display:inline;}
	.st9{display:none;fill:#FFFFFF;enable-background:new    ;}
	.st10{font-family:'Open Sans';}
	.st11{font-size:140px;}
	.st12{font-family:'Open Sans'; font-weight: 700}
	.st13{font-size:68.1799px;}
	.st14{fill:#3F4A52;}
	.st15{font-family:'Open Sans';}
	.st16{font-size:37.0706px;}

</style>
<g id="foreground">
	<polygon class="st0" points="-1.7,0 2480,0 2480,835.2 0,835.2 "/>
	<path class="st1" d="M2480,835.2V451.7c0,0-331.7-18.7-580.4-11.9c-248.8,6.8-725.6,52.9-911.5,86.9c-49.4,9-357,78.2-608.2,158.5
		c-213.5,68.1-380,150-379.9,150H2480z"/>
	<path class="st2" d="M0,835.2h2480c93,2.9-1079.7-186.7-1573.6-220.1c-137.6-9.3-797-52.6-906.4-18.2C0,597-3.7,828.5,0,835.2z"/>
	<g id="clouds" class="st3">
		<path id="cloud1" class="st4" d="M206.3,75.5H760c0,0,75-71.6,0-63S635.6,43.7,635.6,43.7s88.5-76.2,17-80.6
			c-57.9-3.6-49.4,22.1-49.4,22.1s6.8-80.1-27.3-64.7C541.8-64.2,506-16.3,506-16.3c18.7,10.2,0,0,0,0c8.6-24.2-25.1-6.8-25.1-6.8
			c14.7-13.8,42.1-78.6-12.4-73.4C414-91.4,361.2-62.4,366.3-43.7c5.1,18.7,80.1-156.7-22.1-102.2s-52.8,93.4-44.3,105.5
			s-71.6-50.9-71.6-13.5s56.2,90.3,56.2,90.3s-42.6-69.9-71.6-42.6C184.2,20.9,206.3,75.5,206.3,75.5z"/>
		<path id="cloud2" class="st4" d="M798.2-156.6h329.2c0,0,44.6-42.5,0-37.5c-44.6,5.1-74,18.5-74,18.5s52.6-45.3,10.1-47.9
			c-34.4-2.1-29.4,13.2-29.4,13.2s4.1-47.6-16.2-38.5s-41.6,37.6-41.6,37.6c11.1,6.1,0,0,0,0c5.1-14.4-14.9-4-14.9-4
			c8.7-8.2,25.1-46.7-7.4-43.7c-32.4,3-63.8,20.3-60.8,31.4c3,11.1,47.6-93.2-13.2-60.8s-31.4,55.5-26.3,62.7
			c5.1,7.2-42.5-30.3-42.5-8s33.4,53.7,33.4,53.7s-25.3-41.5-42.5-25.3S798.2-156.6,798.2-156.6z"/>
		<path id="cloud3" class="st4" d="M1303.3-26.2H1746c0,0,59.9-57.2,0-50.4s-99.4,24.9-99.4,24.9s70.7-60.9,13.6-64.4
			c-46.3-2.9-39.5,17.7-39.5,17.7s5.4-64-21.8-51.8c-27.2,12.3-55.9,50.5-55.9,50.5c15,8.2,0,0,0,0c6.8-19.3-20-5.4-20-5.4
			c11.8-11,33.7-62.8-9.9-58.7c-43.6,4.1-85.8,27.2-81.7,42.2s64-125.3-17.7-81.7s-42.2,74.7-35.4,84.3c6.8,9.7-57.2-40.7-57.2-10.8
			s45,72.2,45,72.2s-34.1-55.8-57.2-34.1C1285.6-69.8,1303.3-26.2,1303.3-26.2z"/>
	</g>
	<g id="lama">
		<g id="body">
			<g>
				<path class="st5" d="M2224.3,408.5c14.5,0,20.7-9,30.2-9c-2.2-2.2-4.5-4.4-6.7-6.6c1.1-2.7,2.1-5.4,3.2-8
					c-3.9-0.9-7.8-1.8-11.7-2.7c0-3,0-5.9,0-8.9c-11.3,2.9-22.6,5.7-33.9,8.6c2.1-2,4.2-3.9,6.3-5.9c-10.9,1.7-21.7,3.4-32.6,5
					c1.8-1.8,3.6-3.6,5.4-5.4c-9.6,0.3-19.2,0.6-28.8,0.9c0.5-2.1,0.9-4.2,1.4-6.3c-10.1,1.4-20.2,2.7-30.4,4.1
					c0.5-0.8,0.9-1.5,1.4-2.3c-10,2.1-19.9,4.2-29.9,6.3c1.4-2.1,2.7-4.2,4.1-6.3c-94.4,0-24.7-160.6-71-206.8
					c2.4-1.3,15.4-37.8,15.4-37.8s-16.9-28.1-33.3-28.1c-2.2,0-10.8,0.4-13,0.4c0,15.6,17.2,35.5,17.2,57.7
					c-14.6,0.2-29.3,0.3-43.9,0.5c0-19.9,9.5-41.8,9.5-62.2c-22.2,0-30.6,17.3-35.6,35.2c0,15.3,15.3,23.3,15.3,28.7
					c-10.3,6.7-14.3,15.4-17.7,24.3c0,58.5,13.4,143.3-7.3,196.1c-0.4,1.7-0.8,3.4-1.1,5.1c3.5-0.5,7-1,10.4-1.5
					c0,0-12.6,27.9-12.6,37.9c2.7-3.5,5.4-6.9,8.2-10.4c-2.1,12.2-4.2,24.4-6.3,36.6c2.1-1.4,4.1-2.8,6.2-4.1
					c-1.7,13.3-3.3,26.5-5,39.8c2.6-3.3,5.1-6.6,7.7-9.9c0,7.5,0,15.1,0,22.6c1.9,0,3.9,0,5.8,0c-2.6,9.5-5.1,19-7.7,28.5
					c2.7-3.6,5.4-7.2,8.1-10.9c4.5,18.3,9.1,36.5,13.6,54.8c-0.8,34.2-1.5,68.5-2.3,102.7c13.1-0.3,26.3-0.6,39.4-0.9
					c1.5-28.5-0.7-67.6,0.7-100.4c0.4-10.1,4.3-18.3,4.8-27.1c1.5,8.7,8,17.8,9.6,27.9c4.8,31.1,4.8,67.3,9.4,94
					c8.3-0.9,16.6-1.8,24.8-2.7c1.2-40.7,2.4-81.5,3.6-122.2c5.9,0.8,11.7,1.5,17.6,2.3c3.3,4.8,6.6,9.6,10,14.4c1.5,0,3,0,4.4,0
					c0.3-4.2,0.6-8.4,0.9-12.6c3.2,5.7,6.3,11.4,9.5,17.2c-0.5-4.5-0.9-9-1.4-13.5c5.1,3.5,10.2,6.9,15.4,10.4
					c-2.3-7.8-4.5-15.7-6.8-23.6c5.7-2.1,19-0.5,17.2-6.3c18,57.1,17,88.4,17.2,134.9c10.3-0.5,11.5,0.2,21.7-0.3
					c0-34.9,2.8-84.6,2.8-118.2c0-0.6,4.8,10.7,4.8,10.2c-0.5,34.8,4.7,73.2,4.2,108c10.4-0.8,12.7,0.5,23.1-0.3
					c0-51.9,24.2-102,24.2-142.4c2,0.9,3.9,1.8,5.9,2.7c-2.1-6.6-4.2-13.3-6.3-19.9c0-2.9,0-5.7,0-8.6c2.2,0.8,4.5,1.5,6.7,2.3
					c-0.8-16.7-1.5-33.5-2.3-50.2c2.7,0.5,5.4,0.9,8.1,1.4C2229.4,434.6,2226.9,421.6,2224.3,408.5z"/>
			</g>
		</g>
		<g id="head">
			<g id="eye1">
				<g>
					<ellipse class="st6" cx="1965.3" cy="215.2" rx="5.7" ry="5.7"/>
				</g>
			</g>
			<g id="eye2">
				<g>
					<ellipse class="st6" cx="2032.9" cy="215.2" rx="5.7" ry="5.7"/>
				</g>
			</g>
			<g id="mouth_1_">
				<g id="Elipsa_3">
					<g>
						<path class="st7" d="M1998.9,208.3c-11.8,0-18.9,10.8-18.3,24.1s6.7,24.1,18.3,24.1c11.8,0,17.2-10.5,17.2-23.8
							C2016.1,219.4,2010.6,208.3,1998.9,208.3z"/>
					</g>
				</g>
				<g id="smile" class="st3">
					<g class="st8">
						<path class="st6" d="M2004.7,228.8c-3.6,1.6-10.3,0-11.7,0c-2.5,0.1-5.3-3.4-5.3-3.4v0.9c0,0,2.4,4.3,5.3,4.3
							c3.2,0,8.7,1,11.7-0.9c2.7-1.6,4-3.3,4-3.3v-0.9C2008.7,225.5,2007.7,227.5,2004.7,228.8z"/>
					</g>
				</g>
				<g id="face">
					<g>
						<path class="st6" d="M2005.9,229c-5.6,0.9-11.2,1.2-16.9,0.9c-0.3,0-1.6,0.5-1,0.5c5.9,0.2,11.7-0.1,17.6-1
							C2006.1,229.3,2006.9,228.8,2005.9,229L2005.9,229z"/>
					</g>
				</g>
				<g id="cheek">
					<g>
						<path class="st6" d="M2005.4,225.5c-0.6,4,0.8,7.1,2.2,10.8c0.2,0.4,1.6,0,1.4-0.4c-1.4-3.7-2.8-6.7-2.2-10.7
							C2006.9,224.9,2005.5,225.1,2005.4,225.5L2005.4,225.5z"/>
					</g>
				</g>
				<g id="noseline">
					<g>
						<polygon class="st6" points="1997.8,217.2 1997.8,229 1998.7,229 1998.7,217.2 					"/>
					</g>
				</g>
				<g id="nose">
					<g>
						<path class="st6" d="M1998.4,212.3c-4.7,0-8.5,2.5-8.5,5.7s4.1,3.7,8.8,3.7c4.7,0,8.2-0.6,8.2-3.7S2003.1,212.3,1998.4,212.3z"
							/>
					</g>
				</g>
			</g>
		</g>
		<g id="tie">
			<g>
				<path class="st6" d="M2028,321.4c-4.1-1.3-24.2,10.2-24.2,10.2c-1.2-1.3-3-2.1-5-2.1s-3.8,0.8-5,2.1c0,0-20.2-12.2-24.1-9.9
					c-3.8,2.2-4,26.1,0,28.4c4,2.4,24.5-9.6,24.5-9.6c1.2,1.1,2.8,1.8,4.6,1.8s3.4-0.7,4.6-1.8c0,0,21.1,12.4,24.5,9.6
					C2031.1,347.3,2032,322.7,2028,321.4z"/>
			</g>
		</g>
		<g id="glasses">
			<g>
				<path class="st6" d="M2069.3,199.1c0-1-0.1-2-0.2-3c0-0.5-0.2-0.7-0.7-0.9c-0.3-0.1-0.6-0.2-0.9-0.2c-4.4-0.7-8.8-1.4-13.3-1.7
					c-3.6-0.3-7.1-0.4-10.7-0.6c-6.9-0.3-13.7-0.2-20.6,0.7c-4.2,0.5-8.3,1.3-12.3,2.6c-2,0.7-4,1.4-6.1,2.1c-3.2,1-6.4,1.5-9.7,0.8
					c-2-0.4-3.9-0.9-5.9-1.6c-3.5-1.1-6.9-2.3-10.6-2.9c-7-1.3-14.1-1.9-20.7-1.8c-5.4,0-10.2,0.2-15,0.8c-3.9,0.5-7.9,1-11.8,1.5
					c-0.8,0.1-1.7,0.4-2.5,0.6c-0.4,0.1-0.7,0.4-0.7,0.9c-0.1,2.3-0.2,4.7-0.2,7c0,0.4,0.1,0.7,0.1,1.1c0,0.3,0.2,0.5,0.5,0.6
					s0.6,0.3,0.9,0.5c1.3,0.9,1.9,2.3,2.4,3.7c0.4,1,0.6,2.1,0.9,3.1c0.2,0.6,0.4,1.3,0.6,1.9c0.7,3.1,1.3,6.1,2,9.2
					c0.7,2.9,1.5,5.8,2.9,8.4c1.5,3,3.7,5.3,6.9,6.6c1.9,0.8,3.9,1.3,5.9,1.6c3.6,0.6,7.2,0.6,10.9,0.4c3.7-0.3,7.3-0.8,10.9-1.9
					c2.6-0.8,5.1-1.9,7.2-3.7c3.2-2.8,5.8-6.1,7.8-9.9s3.4-7.8,4.6-11.9c0.4-1.2,0.7-2.3,1.1-3.5c0.6-1.7,1.8-2.7,3.6-3
					c0.6-0.1,1.2-0.1,1.7-0.1c1.3,0.1,2.6,0.4,3.5,1.5c0.4,0.5,0.8,1,1,1.6c0.5,1.1,1,2.3,1.3,3.4c1.6,5,3.7,9.8,6.3,14.4
					c2.2,3.8,5.1,6.8,8.9,9c2.7,1.5,5.6,2.4,8.6,3c4.5,0.9,9.1,1.1,13.7,0.9c2.8-0.1,5.5-0.5,8.2-1.3c2.7-0.8,5.2-2.2,7-4.5
					c1.2-1.5,2-3.2,2.7-4.9c1.5-3.7,2.5-7.6,3.3-11.4c0.4-1.9,0.9-3.8,1.3-5.7c0.2-1,0.5-2,0.8-2.9s0.5-1.9,1-2.6
					c0.6-0.8,1.2-1.6,2.1-1.9c0.4-0.2,0.6-0.4,0.7-0.9c0.1-0.3,0.1-0.6,0.1-0.9C2069.3,201.9,2069.3,200.5,2069.3,199.1z
					 M1933.4,200.5c-1.5,0-2.7-0.3-2.7-0.7s1.2-0.7,2.7-0.7s2.7,0.3,2.7,0.7S1934.9,200.5,1933.4,200.5z M1985.9,215.4
					c-1,4.1-2.5,7.9-4.6,11.6c-1.1,2-2.4,3.8-4.1,5.4c-2.2,2.1-4.8,3.3-7.7,4.1c-5.8,1.5-11.7,1.9-17.7,1c-1.2-0.2-2.3-0.5-3.5-0.8
					c-2.4-0.6-4.2-2-5.5-4.1c-1.5-2.3-2.4-4.8-3.1-7.4c-0.8-3.4-1.3-6.9-1.6-10.5c-0.2-2-0.2-4.1,0.1-6.1c0.1-1,0.2-2.1,0.4-3.1
					c0.8-3.6,3-5.8,6.5-6.8c3.2-0.8,6.5-1.3,9.8-1.6c2.4-0.2,4.9-0.3,6.5-0.4c5.6,0.1,10.3,0.4,15,1.5c1.9,0.4,3.8,0.8,5.5,1.8
					c0.9,0.5,1.7,1,2.4,1.6c1.2,1,1.9,2.4,2.1,4C1987,209,1986.6,212.2,1985.9,215.4z M2055.9,228.3c-0.7,1.9-1.7,3.6-3.1,5
					c-1.6,1.6-3.6,2.4-5.7,3c-2.7,0.7-5.4,0.9-8.1,0.9c-4.2,0-8.2-0.5-12.3-1.4c-4-0.9-7.2-3-9.8-6.2c-3.3-4.1-5.4-8.8-6.5-13.9
					c-0.5-2.4-1-4.8-0.9-7.2c0-1.1,0.1-2.1,0.3-3.2c0.5-2.6,2-4.3,4.4-5.2c2.4-1,4.9-1.6,7.4-2.1c2.8-0.6,5.6-1,8.4-1.2
					c2.2-0.1,4.4-0.2,5.9-0.3c5.9,0.3,11.1,0.7,16.2,2.2c0.9,0.3,1.8,0.7,2.7,1.1c0.8,0.4,1.5,1,1.9,1.9c0.5,0.9,0.9,1.8,1.3,2.8
					c0.4,1.1,0.5,2.3,0.6,3.5c0.1,1.9,0.2,3.8,0.1,5.7C2058.5,218.8,2057.6,223.6,2055.9,228.3z M2063.3,200.5
					c-1.5,0-2.7-0.3-2.7-0.7s1.2-0.7,2.7-0.7s2.7,0.3,2.7,0.7S2064.8,200.5,2063.3,200.5z"/>
			</g>
		</g>
	</g>
	<text transform="matrix(1 0 0 1 1222.2096 256.5284)" class="st9 st10 st11">meet Greg</text>
	<text id="hidden" transform="matrix(1 0 0 1 219.1328 420.7649)" class="st9 st10 st11">he is not an ordinary llama</text>
	<text transform="matrix(1 0 0 1 1483.4316 223.0579)" class="st5 st12 st13">meet Greg</text>
	<text transform="matrix(1 0 0 1 1375.755 288.9009)" class="st14 st15 st16">he is not an ordinary llama</text>
</g>
</svg>
