<?xml version="1.0" encoding="utf-8"?>
<!-- Generator: Adobe Illustrator 19.2.0, SVG Export Plug-In . SVG Version: 6.00 Build 0)  -->
<svg version="1.1" id="greg-svg" xmlns="http://www.w3.org/2000/svg" xmlns:xlink="http://www.w3.org/1999/xlink" x="0px" y="0px"
	 viewBox="0 0 2117.3 952.4" style="enable-background:new 0 0 2117.3 952.4;" xml:space="preserve">
<style type="text/css">
	.st0{fill:#88B4E0;}
	.st1{fill:#89BF40;}
	.st2{fill:#7EAD41;}
	.st3{display:none;}
	.st4{display:inline;fill:#FFFFFF;}
	.st5{display:inline;}
	.st6{fill:#FFFFFF;}
	.st7{fill:#242424;}
	.st8{fill:#EAEAEA;}
	.st9{display:none;fill:#3F4A52;enable-background:new    ;}
	.st10{font-family:'OpenSans';}
	.st11{font-size:37.0706px;}
	.st12{fill:#FFFFFF;stroke:#404041;stroke-width:0.25;stroke-miterlimit:10;}
	.st13{fill:#293135;}
	.st14{fill:#3F4A52;}
	.st15{fill:none;stroke:#FFFFFF;stroke-width:3;stroke-miterlimit:10;}
	.st16{fill:#404B54;}
	.st17{fill:#242424;stroke:#404041;stroke-width:0.25;stroke-miterlimit:10;}
	.st18{fill:#E9E9EA;stroke:#404041;stroke-width:0.25;stroke-miterlimit:10;}
	.st19{fill:#0973B9;}
	.st20{enable-background:new    ;}
</style>
<g id="foreground">
	<polygon class="st0" points="0,0 2117.3,0 2117.3,835.2 1.5,835.2 	"/>
	<path class="st1" d="M2117.3,952.4V557.3c0,0-282.4-19.2-494.1-12.2c-211.8,7-617.7,54.5-775.9,89.6
		C805.3,644,543.5,715.3,329.6,798C147.9,868,6.2,952.4,6.2,952.4H2117.3z"/>
	<path class="st2" d="M6.2,952.4h2111.8c79.2,3.3-919.4-217.4-1340-256.3C660.9,685.3,99.4,634.7,6.2,674.9
		C6.2,674.9,3.1,944.6,6.2,952.4z"/>
	<g id="clouds" class="st3">
		<path id="cloud1" class="st4" d="M-156.4,75.5h553.7c0,0,75-71.6,0-63S272.9,43.7,272.9,43.7s88.5-76.2,17-80.6
			c-57.9-3.6-49.4,22.1-49.4,22.1s6.8-80.1-27.3-64.7c-34.1,15.3-69.9,63.2-69.9,63.2c18.7,10.2,0,0,0,0c8.6-24.2-25.1-6.8-25.1-6.8
			c14.7-13.8,42.1-78.6-12.4-73.4C51.3-91.4-1.5-62.4,3.6-43.7C8.7-25,83.7-200.4-18.5-145.9S-71.3-52.5-62.8-40.4
			s-71.6-50.9-71.6-13.5s56.2,90.3,56.2,90.3s-42.6-69.9-71.6-42.6C-178.5,20.9-156.4,75.5-156.4,75.5z"/>
		<path id="cloud2" class="st4" d="M435.5-156.6h329.2c0,0,44.6-42.5,0-37.5c-44.6,5.1-74,18.5-74,18.5s52.6-45.3,10.1-47.9
			c-34.4-2.1-29.4,13.2-29.4,13.2s4.1-47.6-16.2-38.5s-41.6,37.6-41.6,37.6c11.1,6.1,0,0,0,0c5.1-14.4-14.9-4-14.9-4
			c8.7-8.2,25.1-46.7-7.4-43.7c-32.4,3-63.8,20.3-60.8,31.4c3,11.1,47.6-93.2-13.2-60.8s-31.4,55.5-26.3,62.7
			c5.1,7.2-42.5-30.3-42.5-8s33.4,53.7,33.4,53.7s-25.3-41.5-42.5-25.3S435.5-156.6,435.5-156.6z"/>
		<path id="cloud3" class="st4" d="M940.6-26.2h442.7c0,0,59.9-57.2,0-50.4s-99.4,24.9-99.4,24.9s70.7-60.9,13.6-64.4
			c-46.3-2.9-39.5,17.7-39.5,17.7s5.4-64-21.8-51.8c-27.2,12.3-55.9,50.5-55.9,50.5c15,8.2,0,0,0,0c6.8-19.3-20-5.4-20-5.4
			c11.8-11,33.7-62.8-9.9-58.7c-43.6,4.1-85.8,27.2-81.7,42.2s64-125.3-17.7-81.7s-42.2,74.7-35.4,84.3c6.8,9.7-57.2-40.7-57.2-10.8
			s45,72.2,45,72.2s-34.1-55.8-57.2-34.1C922.9-69.8,940.6-26.2,940.6-26.2z"/>
	</g>
	<g id="lama" class="st3">
		<g id="body" class="st5">
			<g>
				<path class="st6" d="M1871.6,368.5c14.5,0,20.7-9,30.2-9c-2.2-2.2-4.5-4.4-6.7-6.6c1.1-2.7,2.1-5.4,3.2-8
					c-3.9-0.9-7.8-1.8-11.7-2.7c0-3,0-5.9,0-8.9c-11.3,2.9-22.6,5.7-33.9,8.6c2.1-2,4.2-3.9,6.3-5.9c-10.9,1.7-21.7,3.4-32.6,5
					c1.8-1.8,3.6-3.6,5.4-5.4c-9.6,0.3-19.2,0.6-28.8,0.9c0.5-2.1,0.9-4.2,1.4-6.3c-10.1,1.4-20.2,2.7-30.4,4.1
					c0.5-0.8,0.9-1.5,1.4-2.3c-10,2.1-19.9,4.2-29.9,6.3c1.4-2.1,2.7-4.2,4.1-6.3c-94.4,0-24.7-160.6-71-206.8
					c2.4-1.3,15.4-37.8,15.4-37.8s-16.9-28.1-33.3-28.1c-2.2,0-10.8,0.4-13,0.4c0,15.6,17.2,35.5,17.2,57.7
					c-14.6,0.2-29.3,0.3-43.9,0.5c0-19.9,9.5-41.8,9.5-62.2c-22.2,0-30.6,17.3-35.6,35.2c0,15.3,15.3,23.3,15.3,28.7
					c-10.3,6.7-14.3,15.4-17.7,24.3c0,58.5,13.4,143.3-7.3,196.1c-0.4,1.7-0.8,3.4-1.1,5.1c3.5-0.5,7-1,10.4-1.5
					c0,0-12.6,27.9-12.6,37.9c2.7-3.5,5.4-6.9,8.2-10.4c-2.1,12.2-4.2,24.4-6.3,36.6c2.1-1.4,4.1-2.8,6.2-4.1
					c-1.7,13.3-3.3,26.5-5,39.8c2.6-3.3,5.1-6.6,7.7-9.9c0,7.5,0,15.1,0,22.6c1.9,0,3.9,0,5.8,0c-2.6,9.5-5.1,19-7.7,28.5
					c2.7-3.6,5.4-7.2,8.1-10.9c4.5,18.3,9.1,36.5,13.6,54.8c-0.8,34.2-1.5,68.5-2.3,102.7c13.1-0.3,26.3-0.6,39.4-0.9
					c1.5-28.5-0.7-67.6,0.7-100.4c0.4-10.1,4.3-18.3,4.8-27.1c1.5,8.7,8,17.8,9.6,27.9c4.8,31.1,4.8,67.3,9.4,94
					c8.3-0.9,16.6-1.8,24.8-2.7c1.2-40.7,2.4-81.5,3.6-122.2c5.9,0.8,11.7,1.5,17.6,2.3c3.3,4.8,6.6,9.6,10,14.4c1.5,0,3,0,4.4,0
					c0.3-4.2,0.6-8.4,0.9-12.6c3.2,5.7,6.3,11.4,9.5,17.2c-0.5-4.5-0.9-9-1.4-13.5c5.1,3.5,10.2,6.9,15.4,10.4
					c-2.3-7.8-4.5-15.7-6.8-23.6c5.7-2.1,19-0.5,17.2-6.3c18,57.1,17,88.4,17.2,134.9c10.3-0.5,11.5,0.2,21.7-0.3
					c0-34.9,2.8-84.6,2.8-118.2c0-0.6,4.8,10.7,4.8,10.2c-0.5,34.8,4.7,73.2,4.2,108c10.4-0.8,12.7,0.5,23.1-0.3
					c0-51.9,24.2-102,24.2-142.4c2,0.9,3.9,1.8,5.9,2.7c-2.1-6.6-4.2-13.3-6.3-19.9c0-2.9,0-5.7,0-8.6c2.2,0.8,4.5,1.5,6.7,2.3
					c-0.8-16.7-1.5-33.5-2.3-50.2c2.7,0.5,5.4,0.9,8.1,1.4C1876.7,394.6,1874.2,381.6,1871.6,368.5z"/>
			</g>
		</g>
		<g id="head" class="st5">
			<g id="eye1">
				<g>
					<ellipse class="st7" cx="1612.6" cy="175.2" rx="5.7" ry="5.7"/>
				</g>
			</g>
			<g id="eye2">
				<g>
					<ellipse class="st7" cx="1680.2" cy="175.2" rx="5.7" ry="5.7"/>
				</g>
			</g>
			<g id="mouth_1_">
				<g id="Elipsa_3">
					<g>
						<path class="st8" d="M1646.2,168.3c-11.8,0-18.9,10.8-18.3,24.1s6.7,24.1,18.3,24.1c11.8,0,17.2-10.5,17.2-23.8
							S1657.9,168.3,1646.2,168.3z"/>
					</g>
				</g>
				<g id="smile" class="st3">
					<g class="st5">
						<path class="st7" d="M1652,188.8c-3.6,1.6-10.3,0-11.7,0c-2.5,0.1-5.3-3.4-5.3-3.4v0.9c0,0,2.4,4.3,5.3,4.3
							c3.2,0,8.7,1,11.7-0.9c2.7-1.6,4-3.3,4-3.3v-0.9C1656,185.5,1655,187.5,1652,188.8z"/>
					</g>
				</g>
				<g id="face">
					<g>
						<path class="st7" d="M1653.2,189c-5.6,0.9-11.2,1.2-16.9,0.9c-0.3,0-1.6,0.5-1,0.5c5.9,0.2,11.7-0.1,17.6-1
							C1653.4,189.3,1654.2,188.8,1653.2,189L1653.2,189z"/>
					</g>
				</g>
				<g id="cheek">
					<g>
						<path class="st7" d="M1652.7,185.5c-0.6,4,0.8,7.1,2.2,10.8c0.2,0.4,1.6,0,1.4-0.4c-1.4-3.7-2.8-6.7-2.2-10.7
							C1654.2,184.9,1652.8,185.1,1652.7,185.5L1652.7,185.5z"/>
					</g>
				</g>
				<g id="noseline">
					<g>
						<polygon class="st7" points="1645.1,177.2 1645.1,189 1646,189 1646,177.2 						"/>
					</g>
				</g>
				<g id="nose">
					<g>
						<path class="st7" d="M1645.7,172.3c-4.7,0-8.5,2.5-8.5,5.7s4.1,3.7,8.8,3.7c4.7,0,8.2-0.6,8.2-3.7S1650.4,172.3,1645.7,172.3z
							"/>
					</g>
				</g>
			</g>
		</g>
		<g id="tie" class="st5">
			<g>
				<path class="st7" d="M1675.3,281.4c-4.1-1.3-24.2,10.2-24.2,10.2c-1.2-1.3-3-2.1-5-2.1s-3.8,0.8-5,2.1c0,0-20.2-12.2-24.1-9.9
					c-3.8,2.2-4,26.1,0,28.4c4,2.4,24.5-9.6,24.5-9.6c1.2,1.1,2.8,1.8,4.6,1.8s3.4-0.7,4.6-1.8c0,0,21.1,12.4,24.5,9.6
					C1678.4,307.3,1679.3,282.7,1675.3,281.4z"/>
			</g>
		</g>
		<g id="glasses" class="st5">
			<g>
				<path class="st7" d="M1716.6,159.1c0-1-0.1-2-0.2-3c0-0.5-0.2-0.7-0.7-0.9c-0.3-0.1-0.6-0.2-0.9-0.2c-4.4-0.7-8.8-1.4-13.3-1.7
					c-3.6-0.3-7.1-0.4-10.7-0.6c-6.9-0.3-13.7-0.2-20.6,0.7c-4.2,0.5-8.3,1.3-12.3,2.6c-2,0.7-4,1.4-6.1,2.1c-3.2,1-6.4,1.5-9.7,0.8
					c-2-0.4-3.9-0.9-5.9-1.6c-3.5-1.1-6.9-2.3-10.6-2.9c-7-1.3-14.1-1.9-20.7-1.8c-5.4,0-10.2,0.2-15,0.8c-3.9,0.5-7.9,1-11.8,1.5
					c-0.8,0.1-1.7,0.4-2.5,0.6c-0.4,0.1-0.7,0.4-0.7,0.9c-0.1,2.3-0.2,4.7-0.2,7c0,0.4,0.1,0.7,0.1,1.1c0,0.3,0.2,0.5,0.5,0.6
					s0.6,0.3,0.9,0.5c1.3,0.9,1.9,2.3,2.4,3.7c0.4,1,0.6,2.1,0.9,3.1c0.2,0.6,0.4,1.3,0.6,1.9c0.7,3.1,1.3,6.1,2,9.2
					c0.7,2.9,1.5,5.8,2.9,8.4c1.5,3,3.7,5.3,6.9,6.6c1.9,0.8,3.9,1.3,5.9,1.6c3.6,0.6,7.2,0.6,10.9,0.4c3.7-0.3,7.3-0.8,10.9-1.9
					c2.6-0.8,5.1-1.9,7.2-3.7c3.2-2.8,5.8-6.1,7.8-9.9s3.4-7.8,4.6-11.9c0.4-1.2,0.7-2.3,1.1-3.5c0.6-1.7,1.8-2.7,3.6-3
					c0.6-0.1,1.2-0.1,1.7-0.1c1.3,0.1,2.6,0.4,3.5,1.5c0.4,0.5,0.8,1,1,1.6c0.5,1.1,1,2.3,1.3,3.4c1.6,5,3.7,9.8,6.3,14.4
					c2.2,3.8,5.1,6.8,8.9,9c2.7,1.5,5.6,2.4,8.6,3c4.5,0.9,9.1,1.1,13.7,0.9c2.8-0.1,5.5-0.5,8.2-1.3s5.2-2.2,7-4.5
					c1.2-1.5,2-3.2,2.7-4.9c1.5-3.7,2.5-7.6,3.3-11.4c0.4-1.9,0.9-3.8,1.3-5.7c0.2-1,0.5-2,0.8-2.9s0.5-1.9,1-2.6
					c0.6-0.8,1.2-1.6,2.1-1.9c0.4-0.2,0.6-0.4,0.7-0.9c0.1-0.3,0.1-0.6,0.1-0.9C1716.6,161.9,1716.6,160.5,1716.6,159.1z
					 M1580.7,160.5c-1.5,0-2.7-0.3-2.7-0.7s1.2-0.7,2.7-0.7s2.7,0.3,2.7,0.7S1582.2,160.5,1580.7,160.5z M1633.2,175.4
					c-1,4.1-2.5,7.9-4.6,11.6c-1.1,2-2.4,3.8-4.1,5.4c-2.2,2.1-4.8,3.3-7.7,4.1c-5.8,1.5-11.7,1.9-17.7,1c-1.2-0.2-2.3-0.5-3.5-0.8
					c-2.4-0.6-4.2-2-5.5-4.1c-1.5-2.3-2.4-4.8-3.1-7.4c-0.8-3.4-1.3-6.9-1.6-10.5c-0.2-2-0.2-4.1,0.1-6.1c0.1-1,0.2-2.1,0.4-3.1
					c0.8-3.6,3-5.8,6.5-6.8c3.2-0.8,6.5-1.3,9.8-1.6c2.4-0.2,4.9-0.3,6.5-0.4c5.6,0.1,10.3,0.4,15,1.5c1.9,0.4,3.8,0.8,5.5,1.8
					c0.9,0.5,1.7,1,2.4,1.6c1.2,1,1.9,2.4,2.1,4C1634.3,169,1633.9,172.2,1633.2,175.4z M1703.2,188.3c-0.7,1.9-1.7,3.6-3.1,5
					c-1.6,1.6-3.6,2.4-5.7,3c-2.7,0.7-5.4,0.9-8.1,0.9c-4.2,0-8.2-0.5-12.3-1.4c-4-0.9-7.2-3-9.8-6.2c-3.3-4.1-5.4-8.8-6.5-13.9
					c-0.5-2.4-1-4.8-0.9-7.2c0-1.1,0.1-2.1,0.3-3.2c0.5-2.6,2-4.3,4.4-5.2c2.4-1,4.9-1.6,7.4-2.1c2.8-0.6,5.6-1,8.4-1.2
					c2.2-0.1,4.4-0.2,5.9-0.3c5.9,0.3,11.1,0.7,16.2,2.2c0.9,0.3,1.8,0.7,2.7,1.1c0.8,0.4,1.5,1,1.9,1.9c0.5,0.9,0.9,1.8,1.3,2.8
					c0.4,1.1,0.5,2.3,0.6,3.5c0.1,1.9,0.2,3.8,0.1,5.7C1705.8,178.8,1704.9,183.6,1703.2,188.3z M1710.6,160.5
					c-1.5,0-2.7-0.3-2.7-0.7s1.2-0.7,2.7-0.7s2.7,0.3,2.7,0.7S1712.1,160.5,1710.6,160.5z"/>
			</g>
		</g>
	</g>
	<g>
		<path class="st6" d="M1616.9,168.5h-6.6v-14.1c0-1.7-0.3-3.1-0.9-3.9c-0.6-0.9-1.5-1.3-2.7-1.3c-1.7,0-2.9,0.6-3.7,1.9
			c-0.8,1.3-1.1,3.3-1.1,6.1v11.4h-6.6v-24.1h5l0.9,3.1h0.3c0.7-1.1,1.6-2,2.8-2.6c1.2-0.6,2.7-0.9,4.2-0.9c3.6,0,6.1,1.2,7.4,3.5
			h0.6c0.7-1.1,1.6-2,2.8-2.7c1.3-0.6,2.7-0.9,4.3-0.9c2.7,0,4.8,0.7,6.2,2.1c1.4,1.4,2.1,3.7,2.1,6.8v15.7h-6.6v-14.1
			c0-1.7-0.3-3.1-0.9-3.9s-1.5-1.3-2.7-1.3c-1.6,0-2.8,0.6-3.6,1.7c-0.8,1.1-1.2,3-1.2,5.5v12.2L1616.9,168.5L1616.9,168.5z"/>
		<path class="st6" d="M1649.6,169c-3.9,0-6.9-1.1-9.2-3.3s-3.3-5.2-3.3-9.2c0-4,1-7.2,3-9.4c2.1-2.2,4.8-3.3,8.4-3.3
			c3.4,0,6.1,0.9,8,2.9c1.9,2,2.8,4.6,2.8,8v3.2h-15.6c0.1,1.9,0.6,3.3,1.6,4.4c1,1,2.5,1.5,4.4,1.5c1.5,0,2.8-0.2,4.1-0.4
			c1.3-0.3,2.7-0.8,4-1.5v5.1c-1.1,0.6-2.4,1-3.7,1.3C1653.1,168.8,1651.5,169,1649.6,169z M1648.7,148.6c-1.4,0-2.5,0.4-3.3,1.4
			c-0.8,0.9-1.3,2.1-1.4,3.8h9.2c0-1.6-0.4-2.9-1.3-3.8C1651.2,149,1650.1,148.6,1648.7,148.6z"/>
		<path class="st6" d="M1675.7,169c-3.9,0-6.9-1.1-9.2-3.3s-3.3-5.2-3.3-9.2c0-4,1-7.2,3-9.4c2.1-2.2,4.8-3.3,8.4-3.3
			c3.4,0,6.1,0.9,8,2.9c1.9,2,2.8,4.6,2.8,8v3.2h-15.6c0.1,1.9,0.6,3.3,1.6,4.4c1,1,2.5,1.5,4.4,1.5c1.5,0,2.8-0.2,4.1-0.4
			c1.3-0.3,2.7-0.8,4-1.5v5.1c-1.1,0.6-2.4,1-3.7,1.3C1679.3,168.8,1677.6,169,1675.7,169z M1674.8,148.6c-1.4,0-2.5,0.4-3.3,1.4
			c-0.8,0.9-1.3,2.1-1.4,3.8h9.2c0-1.6-0.4-2.9-1.3-3.8C1677.4,149,1676.3,148.6,1674.8,148.6z"/>
		<path class="st6" d="M1701.2,163.7c1.1,0,2.6-0.3,4.1-0.8v4.9c-1.6,0.8-3.7,1.1-6.1,1.1c-2.7,0-4.5-0.7-5.7-2
			c-1.2-1.4-1.8-3.3-1.8-6v-11.6h-3.2v-2.8l3.6-2.2l1.9-5.1h4.2v5.1h6.8v5h-6.8v11.6c0,0.9,0.3,1.6,0.8,2.1
			C1699.6,163.5,1700.3,163.7,1701.2,163.7z"/>
		<path class="st6" d="M1734.2,150.7h12.6v16.3c-2.1,0.7-3.9,1.1-5.7,1.4c-1.8,0.3-3.6,0.4-5.5,0.4c-4.8,0-8.4-1.4-11-4.2
			c-2.5-2.8-3.8-6.8-3.8-12.1c0-5.1,1.5-9.1,4.4-11.9s6.9-4.3,12.2-4.3c3.3,0,6.3,0.7,9.4,2l-2.2,5.4c-2.3-1.1-4.7-1.7-7.2-1.7
			c-2.9,0-5.2,0.9-6.9,2.9s-2.7,4.5-2.7,7.9c0,3.4,0.7,6.1,2.1,7.9c1.4,1.8,3.4,2.7,6.2,2.7c1.4,0,2.8-0.2,4.3-0.4v-6.6h-6v-5.7
			L1734.2,150.7L1734.2,150.7z"/>
		<path class="st6" d="M1767.2,143.9c0.9,0,1.6,0.1,2.2,0.2l-0.5,6.2c-0.5-0.2-1.2-0.3-2-0.3c-2.1,0-3.8,0.5-4.9,1.6
			c-1.2,1.1-1.8,2.6-1.8,4.5v12.3h-6.6v-24.1h5l0.9,4h0.3c0.8-1.4,1.8-2.5,3-3.3C1764.4,144.3,1765.8,143.9,1767.2,143.9z"/>
		<path class="st6" d="M1784.8,169c-3.9,0-6.9-1.1-9.2-3.3c-2.2-2.1-3.3-5.2-3.3-9.2c0-4,1-7.2,3-9.4c2.1-2.2,4.8-3.3,8.4-3.3
			c3.4,0,6.1,0.9,8,2.9c1.9,2,2.8,4.6,2.8,8v3.2H1779c0.1,1.9,0.6,3.3,1.6,4.4c1,1,2.5,1.5,4.4,1.5c1.5,0,2.8-0.2,4.1-0.4
			c1.3-0.3,2.7-0.8,4-1.5v5.1c-1.1,0.6-2.4,1-3.7,1.3C1788.3,168.8,1786.7,169,1784.8,169z M1783.9,148.6c-1.4,0-2.5,0.4-3.3,1.4
			c-0.8,0.9-1.3,2.1-1.4,3.8h9.2c0-1.6-0.4-2.9-1.3-3.8C1786.4,149,1785.3,148.6,1783.9,148.6z"/>
		<path class="st6" d="M1821.1,144.3v3.3l-3.8,0.9c0.7,1.1,1,2.3,1,3.6c0,2.6-0.9,4.6-2.7,6.1c-1.8,1.5-4.3,2.1-7.5,2.1l-1.2-0.1
			l-0.9-0.1c-0.7,0.5-1,1.1-1,1.7c0,0.9,1.2,1.5,3.6,1.5h4.1c2.7,0,4.7,0.6,6.1,1.7c1.4,1.1,2.1,2.8,2.1,5c0,2.8-1.2,5-3.5,6.6
			c-2.4,1.5-5.7,2.3-10.2,2.3c-3.3,0-6-0.6-7.7-1.8c-1.8-1.2-2.7-2.8-2.7-5c0-1.5,0.4-2.7,1.4-3.7c0.9-0.9,2.2-1.7,4-2.1
			c-0.7-0.3-1.3-0.8-1.8-1.5c-0.5-0.7-0.8-1.4-0.8-2.1c0-0.9,0.3-1.7,0.8-2.3c0.5-0.6,1.3-1.2,2.3-1.8c-1.3-0.5-2.3-1.5-3-2.7
			s-1.1-2.7-1.1-4.3c0-2.7,0.9-4.7,2.6-6.1c1.7-1.5,4.2-2.1,7.4-2.1c0.7,0,1.5,0.1,2.4,0.2c0.9,0.1,1.5,0.2,1.8,0.3L1821.1,144.3
			L1821.1,144.3z M1802.4,171.9c0,0.9,0.4,1.6,1.3,2.1c0.9,0.5,2.1,0.8,3.7,0.8c2.4,0,4.2-0.3,5.6-0.9c1.4-0.7,2-1.5,2-2.7
			c0-0.9-0.4-1.5-1.2-1.9c-0.8-0.3-2.1-0.5-3.7-0.5h-3.4c-1.2,0-2.2,0.3-3,0.9C1802.8,170.3,1802.4,170.9,1802.4,171.9z
			 M1804.8,152.3c0,1.3,0.3,2.3,0.9,3.1c0.6,0.8,1.5,1.1,2.7,1.1c1.2,0,2.1-0.3,2.7-1.1s0.9-1.8,0.9-3.1c0-2.9-1.2-4.4-3.6-4.4
			C1806,147.9,1804.8,149.4,1804.8,152.3z"/>
		<path class="st6" d="M1831.5,163.8c-0.8,2.9-2.1,6.3-3.8,10.4h-4.8c0.9-3.9,1.6-7.4,2.2-10.9h6.1L1831.5,163.8z"/>
		<path class="st6" d="M1279.4,221.6h-6.6v-14.1c0-3.5-1.3-5.2-3.9-5.2c-1.9,0-3.2,0.6-4,1.9s-1.2,3.3-1.2,6.1v11.4h-6.6V188h6.6
			v6.8c0,0.5-0.1,1.8-0.2,3.8l-0.2,2h0.3c1.5-2.4,3.8-3.5,7-3.5c2.8,0,5,0.8,6.5,2.3c1.5,1.5,2.2,3.7,2.2,6.6L1279.4,221.6
			L1279.4,221.6z"/>
		<path class="st6" d="M1297.2,222c-3.9,0-6.9-1.1-9.2-3.3c-2.2-2.1-3.3-5.2-3.3-9.2c0-4,1-7.2,3-9.4c2.1-2.2,4.8-3.3,8.4-3.3
			c3.4,0,6.1,0.9,8,2.9s2.8,4.6,2.8,8v3.2h-15.5c0.1,1.9,0.6,3.3,1.6,4.4c1,1,2.5,1.5,4.4,1.5c1.5,0,2.8-0.2,4.1-0.4
			c1.3-0.3,2.7-0.8,4-1.5v5.1c-1.1,0.6-2.4,1-3.7,1.3C1300.6,222,1299.1,222,1297.2,222z M1296.3,201.7c-1.4,0-2.5,0.4-3.3,1.4
			c-0.8,0.9-1.3,2.1-1.4,3.8h9.2c0-1.6-0.4-2.9-1.3-3.8C1298.8,202.2,1297.6,201.7,1296.3,201.7z"/>
		<path class="st6" d="M1317.8,190l-0.9,11.4h-4.3l-0.9-11.4H1317.8z"/>
		<path class="st6" d="M1341,214.4c0,2.5-0.9,4.4-2.6,5.6c-1.7,1.3-4.3,2-7.7,2c-1.8,0-3.3-0.1-4.5-0.3c-1.2-0.3-2.4-0.6-3.5-1v-5.5
			c1.2,0.6,2.6,1,4.1,1.5c1.5,0.4,2.9,0.6,4,0.6c2.4,0,3.6-0.7,3.6-2.1c0-0.5-0.2-0.9-0.5-1.3c-0.3-0.3-0.9-0.7-1.6-1.1
			c-0.8-0.4-1.8-0.9-3.1-1.5c-1.9-0.8-3.3-1.5-4.1-2.1c-0.9-0.7-1.5-1.5-1.9-2.3c-0.4-0.9-0.6-1.9-0.6-3.2c0-2.1,0.9-3.8,2.5-5
			c1.6-1.2,4-1.8,7.1-1.8c2.9,0,5.7,0.6,8.5,1.9l-2,4.8c-1.2-0.5-2.3-0.9-3.4-1.3c-1.1-0.3-2.1-0.5-3.3-0.5c-2,0-2.9,0.5-2.9,1.5
			c0,0.6,0.3,1.1,0.9,1.5s2,1.1,4.1,1.9c1.9,0.8,3.3,1.5,4.1,2.1s1.5,1.5,2,2.3C1340.9,212.2,1341,213.2,1341,214.4z"/>
		<path class="st6" d="M1380,221.6h-6.6v-14.1c0-1.7-0.3-3.1-0.9-3.9c-0.6-0.9-1.6-1.3-3-1.3c-1.9,0-3.2,0.6-4,1.9
			c-0.9,1.2-1.2,3.3-1.2,6.2v11.4h-6.6v-24.1h5l0.9,3.1h0.3c0.8-1.2,1.7-2.1,3-2.7c1.3-0.6,2.7-0.9,4.4-0.9c2.8,0,5,0.8,6.4,2.3
			c1.5,1.5,2.2,3.7,2.2,6.6L1380,221.6L1380,221.6z"/>
		<path class="st6" d="M1408.7,209.5c0,3.9-1,7-3.1,9.2c-2.1,2.2-5,3.3-8.6,3.3c-2.3,0-4.4-0.5-6.2-1.5c-1.8-1-3.2-2.5-4.1-4.4
			c-0.9-1.9-1.5-4.1-1.5-6.7c0-3.9,1-7,3.1-9.2c2.1-2.2,5-3.3,8.7-3.3c2.3,0,4.4,0.5,6.2,1.5c1.8,1,3.2,2.5,4.1,4.4
			C1408.3,204.8,1408.7,207,1408.7,209.5z M1392,209.5c0,2.4,0.4,4.2,1.2,5.4c0.8,1.2,2.1,1.8,3.9,1.8c1.8,0,3-0.6,3.8-1.8
			s1.2-3,1.2-5.5c0-2.4-0.4-4.2-1.2-5.4s-2.1-1.8-3.9-1.8c-1.8,0-3,0.6-3.8,1.8C1392.5,205.3,1392,207.1,1392,209.5z"/>
		<path class="st6" d="M1424.4,216.8c1.1,0,2.6-0.3,4.1-0.8v4.9c-1.6,0.8-3.7,1.1-6.1,1.1c-2.7,0-4.5-0.7-5.7-2
			c-1.2-1.4-1.8-3.3-1.8-6v-11.6h-3.2v-2.8l3.6-2.2l1.9-5.1h4.2v5.1h6.8v5h-6.8V214c0,0.9,0.3,1.6,0.8,2.1
			C1422.9,216.6,1423.5,216.8,1424.4,216.8z"/>
		<path class="st6" d="M1460.3,221.6l-1.3-3.3h-0.2c-1.1,1.4-2.2,2.4-3.4,2.9c-1.2,0.5-2.7,0.8-4.6,0.8c-2.3,0-4.1-0.7-5.5-2
			c-1.4-1.3-2-3.3-2-5.6c0-2.6,0.9-4.5,2.7-5.6c1.8-1.2,4.5-1.9,8.1-2.1l4.2-0.2v-1c0-2.5-1.3-3.7-3.8-3.7c-2,0-4.2,0.6-6.8,1.7
			l-2.2-4.5c2.7-1.5,5.9-2.2,9.2-2.2c3.3,0,5.7,0.7,7.4,2.1c1.7,1.5,2.6,3.6,2.6,6.4v16.1L1460.3,221.6L1460.3,221.6z M1458.3,210.4
			l-2.6,0.1c-1.9,0.1-3.3,0.4-4.3,1c-0.9,0.6-1.4,1.6-1.4,2.9c0,1.9,1,2.8,3.2,2.8c1.5,0,2.7-0.4,3.7-1.3s1.4-2.1,1.4-3.5V210.4z"/>
		<path class="st6" d="M1494,221.6h-6.6v-14.1c0-1.7-0.3-3.1-0.9-3.9c-0.6-0.9-1.6-1.3-3-1.3c-1.9,0-3.2,0.6-4,1.9
			c-0.9,1.2-1.2,3.3-1.2,6.2v11.4h-6.6v-24.1h5l0.9,3.1h0.3c0.8-1.2,1.7-2.1,3-2.7c1.3-0.6,2.7-0.9,4.4-0.9c2.8,0,5,0.8,6.4,2.3
			c1.5,1.5,2.2,3.7,2.2,6.6L1494,221.6L1494,221.6z"/>
		<path class="st6" d="M1534.2,209.5c0,3.9-1,7-3.1,9.2c-2.1,2.2-5,3.3-8.6,3.3c-2.3,0-4.4-0.5-6.2-1.5c-1.8-1-3.2-2.5-4.1-4.4
			c-0.9-1.9-1.5-4.1-1.5-6.7c0-3.9,1-7,3.1-9.2c2.1-2.2,5-3.3,8.7-3.3c2.3,0,4.4,0.5,6.2,1.5c1.8,1,3.2,2.5,4.1,4.4
			C1533.8,204.8,1534.2,207,1534.2,209.5z M1517.5,209.5c0,2.4,0.4,4.2,1.2,5.4s2.1,1.8,3.9,1.8c1.8,0,3-0.6,3.8-1.8s1.2-3,1.2-5.5
			c0-2.4-0.4-4.2-1.2-5.4s-2.1-1.8-3.9-1.8c-1.8,0-3,0.6-3.8,1.8S1517.5,207.1,1517.5,209.5z"/>
		<path class="st6" d="M1553.1,197c0.9,0,1.6,0.1,2.2,0.2l-0.5,6.2c-0.5-0.2-1.2-0.3-2-0.3c-2.1,0-3.8,0.5-4.9,1.6
			c-1.2,1.1-1.8,2.6-1.8,4.5v12.3h-6.6v-24.1h5l0.9,4h0.3c0.8-1.4,1.8-2.5,3-3.3C1550.3,197.4,1551.7,197,1553.1,197z"/>
		<path class="st6" d="M1567.4,222c-2.8,0-5-1.1-6.7-3.3c-1.6-2.2-2.4-5.2-2.4-9.2c0-3.9,0.9-7,2.5-9.2c1.6-2.2,3.9-3.3,6.8-3.3
			c3.1,0,5.4,1.2,6.9,3.5h0.3c-0.3-1.8-0.5-3.4-0.5-4.8V188h6.6v33.6h-5l-1.3-3.2h-0.3C1572.8,220.8,1570.5,222,1567.4,222z
			 M1569.7,216.8c1.7,0,2.9-0.5,3.7-1.5c0.8-0.9,1.2-2.7,1.3-5v-0.7c0-2.6-0.4-4.5-1.2-5.6s-2.1-1.7-3.9-1.7c-1.5,0-2.7,0.6-3.4,1.9
			c-0.9,1.3-1.2,3.1-1.2,5.5c0,2.4,0.4,4.2,1.2,5.4C1567.1,216.2,1568.2,216.8,1569.7,216.8z"/>
		<path class="st6" d="M1587.5,191.2c0-2.1,1.2-3.3,3.6-3.3c2.4,0,3.6,1.1,3.6,3.3c0,1-0.3,1.8-0.9,2.4c-0.6,0.6-1.5,0.9-2.7,0.9
			C1588.7,194.5,1587.5,193.4,1587.5,191.2z M1594.4,221.6h-6.6v-24.1h6.6V221.6z"/>
		<path class="st6" d="M1623.6,221.6h-6.6v-14.1c0-1.7-0.3-3.1-0.9-3.9c-0.6-0.9-1.6-1.3-3-1.3c-1.9,0-3.2,0.6-4,1.9
			c-0.9,1.2-1.2,3.3-1.2,6.2v11.4h-6.6v-24.1h5l0.9,3.1h0.3c0.8-1.2,1.7-2.1,3-2.7c1.3-0.6,2.7-0.9,4.4-0.9c2.8,0,5,0.8,6.4,2.3
			c1.5,1.5,2.2,3.7,2.2,6.6L1623.6,221.6L1623.6,221.6z"/>
		<path class="st6" d="M1645.7,221.6l-1.3-3.3h-0.2c-1.1,1.4-2.2,2.4-3.4,2.9c-1.2,0.5-2.7,0.8-4.6,0.8c-2.3,0-4.1-0.7-5.5-2
			c-1.4-1.3-2-3.3-2-5.6c0-2.6,0.9-4.5,2.7-5.6c1.8-1.2,4.5-1.9,8.1-2.1l4.2-0.2v-1c0-2.5-1.3-3.7-3.8-3.7c-2,0-4.2,0.6-6.8,1.7
			l-2.2-4.5c2.7-1.5,5.9-2.2,9.2-2.2c3.3,0,5.7,0.7,7.4,2.1c1.7,1.5,2.6,3.6,2.6,6.4v16.1L1645.7,221.6L1645.7,221.6z M1643.8,210.4
			l-2.6,0.1c-1.9,0.1-3.3,0.4-4.3,1c-0.9,0.6-1.4,1.6-1.4,2.9c0,1.9,1,2.8,3.2,2.8c1.5,0,2.7-0.4,3.7-1.3s1.4-2.1,1.4-3.5V210.4z"/>
		<path class="st6" d="M1670.6,197c0.9,0,1.6,0.1,2.2,0.2l-0.5,6.2c-0.5-0.2-1.2-0.3-2-0.3c-2.1,0-3.8,0.5-4.9,1.6
			c-1.2,1.1-1.8,2.6-1.8,4.5v12.3h-6.6v-24.1h5l0.9,4h0.3c0.8-1.4,1.8-2.5,3-3.3C1667.7,197.4,1669.1,197,1670.6,197z"/>
		<path class="st6" d="M1673.8,197.5h7.2l4.5,13.6c0.4,1.2,0.7,2.6,0.8,4.2h0.2c0.2-1.5,0.4-2.9,0.9-4.2l4.5-13.6h7.1l-10.2,27.3
			c-0.9,2.5-2.3,4.5-4,5.6c-1.7,1.3-3.8,1.9-6.1,1.9c-1.1,0-2.2-0.1-3.3-0.3v-5.2c0.8,0.2,1.6,0.3,2.6,0.3c1.2,0,2.2-0.3,3.1-1.1
			c0.9-0.8,1.5-1.8,2.1-3.3l0.4-1.2L1673.8,197.5z"/>
		<path class="st6" d="M1720.5,221.6h-6.6V188h6.6V221.6z"/>
		<path class="st6" d="M1734,221.6h-6.6V188h6.6V221.6z"/>
		<path class="st6" d="M1756.3,221.6l-1.3-3.3h-0.2c-1.1,1.4-2.2,2.4-3.4,2.9c-1.2,0.5-2.7,0.8-4.6,0.8c-2.3,0-4.1-0.7-5.5-2
			c-1.4-1.3-2-3.3-2-5.6c0-2.6,0.9-4.5,2.7-5.6c1.8-1.2,4.5-1.9,8.1-2.1l4.2-0.2v-1c0-2.5-1.3-3.7-3.8-3.7c-2,0-4.2,0.6-6.8,1.7
			l-2.2-4.5c2.7-1.5,5.9-2.2,9.2-2.2c3.3,0,5.7,0.7,7.4,2.1c1.7,1.5,2.6,3.6,2.6,6.4v16.1L1756.3,221.6L1756.3,221.6z M1754.3,210.4
			l-2.6,0.1c-1.9,0.1-3.3,0.4-4.3,1c-0.9,0.6-1.4,1.6-1.4,2.9c0,1.9,1,2.8,3.2,2.8c1.5,0,2.7-0.4,3.7-1.3c0.9-0.9,1.4-2.1,1.4-3.5
			V210.4z"/>
		<path class="st6" d="M1789.3,221.6h-6.6v-14.1c0-1.7-0.3-3.1-0.9-3.9c-0.6-0.9-1.5-1.3-2.7-1.3c-1.7,0-2.9,0.6-3.7,1.9
			c-0.8,1.3-1.1,3.3-1.1,6.1v11.4h-6.6v-24.1h5l0.9,3.1h0.3c0.7-1.1,1.6-2,2.8-2.6c1.2-0.6,2.7-0.9,4.2-0.9c3.6,0,6.1,1.2,7.4,3.5
			h0.6c0.7-1.1,1.6-2,2.8-2.7c1.3-0.6,2.7-0.9,4.3-0.9c2.7,0,4.8,0.7,6.2,2.1c1.4,1.4,2.1,3.7,2.1,6.8v15.7h-6.6v-14.1
			c0-1.7-0.3-3.1-0.9-3.9s-1.5-1.3-2.7-1.3c-1.6,0-2.8,0.6-3.6,1.7s-1.2,3-1.2,5.5v12.2L1789.3,221.6L1789.3,221.6z"/>
		<path class="st6" d="M1826.5,221.6l-1.3-3.3h-0.2c-1.1,1.4-2.2,2.4-3.4,2.9c-1.2,0.5-2.7,0.8-4.6,0.8c-2.3,0-4.1-0.7-5.5-2
			c-1.4-1.3-2-3.3-2-5.6c0-2.6,0.9-4.5,2.7-5.6c1.8-1.2,4.5-1.9,8.1-2.1l4.2-0.2v-1c0-2.5-1.3-3.7-3.8-3.7c-2,0-4.2,0.6-6.8,1.7
			l-2.2-4.5c2.7-1.5,5.9-2.2,9.2-2.2c3.3,0,5.7,0.7,7.4,2.1c1.7,1.5,2.6,3.6,2.6,6.4v16.1L1826.5,221.6L1826.5,221.6L1826.5,221.6z
			 M1824.6,210.4l-2.6,0.1c-1.9,0.1-3.3,0.4-4.3,1c-0.9,0.6-1.4,1.6-1.4,2.9c0,1.9,1,2.8,3.2,2.8c1.5,0,2.7-0.4,3.7-1.3
			c0.9-0.9,1.4-2.1,1.4-3.5V210.4z"/>
	</g>
	<text id="hidden-text" transform="matrix(1 0 0 1 1013.0454 288.901)" class="st9 st10 st11">he is not an ordinary llama</text>
	<path id="llama_back" class="st12" d="M1931.6,446.9c22.4,37.6,31.2,51.6,31.7,51.3c0.1,0-0.1-0.4-0.1-0.4
		c18.5,58.6,17.5,90.7,17.6,138.5c10.6-0.5,11.8,0.2,22.3-0.3c0-35.9,2.9-86.9,2.9-121.4c0-0.6,11.7,11.9,11.7,11.4
		c-0.5,35.7-2,74.2-2.5,109.9c10.7-0.9,13,0.5,23.7-0.3c0-53.2,24.8-104.7,24.8-146.2c2.1,0.9,4,1.9,6.1,2.7
		c-2.1-6.8-4.3-13.7-6.5-20.5c0-3,0-5.8,0-8.8c2.2,0.9,4.6,1.5,6.8,2.4c-0.9-17.1-1.5-34.4-2.4-51.5c2.7,0.5,5.6,0.9,8.3,1.5
		c-2.7-13.4-5.3-26.8-8-40.2c14.9,0,21.2-9.2,31-9.2c-2.2-2.2-4.6-4.5-6.8-6.8c1.1-2.7,2.1-5.6,3.3-8.2c-4-0.9-8-1.9-12-2.7
		c0-3.1,0-6.1,0-9.2c-11.6,3-30.5,4.8-28.3,2.7c-4.5-10.1-11.8-19-25.8-34.2c-8.6-13.9-12.6-36.5-19.9-36.9
		C1995.3,269.7,1964.7,307.1,1931.6,446.9z"/>
	<g id="logos">
		<g>
			<polygon class="st13" points="2114.3,525.4 1289.5,525.4 1194.9,493.1 2117.3,493.1 			"/>
		</g>
		<rect x="1194.9" y="292.6" class="st14" width="922.4" height="200.9"/>
		<g id="skills">
			<g id="logos_inside">
				<g>
					<path class="st6" d="M1432.9,427.2c-2.9-0.7-5.6-1.3-8.5-1.9c-4.6,1.7-9.2,4.4-16.4,3.2c-15.2-2.6-31.8-16.7-26.4-36.9
						c1.4-5,4.2-8.4,6.2-12.5c1.1-1.1,2.3-2.3,3.4-3.4c-1.7-0.9-5-0.7-7.6-0.7c-6.7,2.6-11.2,3.2-15,8.4c-7.6,10.4-5,27.7,1.1,37.9
						c11.3,19.1,39.7,33.2,65.4,17.7c5-3,11.7-7.1,14.1-12.6c0.2-0.2,0.5-0.5,0.7-0.7c0-0.1,0-0.2,0-0.2
						C1445.2,426.5,1439.1,428.3,1432.9,427.2z M1402.5,422c5,1.4,10.8,1.4,16.2,0.5c0.1-0.2,0.2-0.3,0.2-0.5
						c-6.8-5-5.6-15.8-9.9-22.5C1406.7,406.7,1402.3,411.8,1402.5,422z M1396.6,377.9c-8.4,7.6-15,19.8-7,33.1
						c1.5,2.5,3.5,5.7,6.2,7c0.2,0.2,0.5,0.5,0.7,0.7c4.3-8,6-16.7,11.2-23.6C1406.8,388.8,1401.8,380,1396.6,377.9z M1425.9,418.6
						c20.3-13,9.4-45.7-16.9-45.3c-1.9,0.5-3.8,0.8-5.7,1.3c2.2,3.3,4.5,6.6,6.2,10.5C1413.8,395.7,1415.5,414.7,1425.9,418.6z
						 M1455.3,380.4c-7.2-17-22.3-29.9-46.9-29.5c-6.7,0.5-8.1,1.1-11.6,2.1c-10.1,3.2-18.5,9.7-24.1,17.5
						c5.9-2.4,13.4-4.9,21.3-2.3c1.6,0.8,3.1,1.7,4.7,2.6c2-0.7,3.9-1.3,5.9-1.9c4.1-1.1,10.1-0.9,14.1,0.2
						c12.8,3.5,26.6,17.6,22,36c-1.4,5.8-4.8,9-7,13.5c-0.5,0.5-0.8,0.8-1.3,1.3c5.6,0.2,10.8,0.1,15-1.7
						C1460.2,412.7,1461.1,394.3,1455.3,380.4z"/>
				</g>
				<g>
					<circle class="st6" cx="1767.1" cy="392.8" r="8.6"/>
					<path class="st15" d="M1767.1,375.4c11.5,0,22.1,1.7,30.1,4.4c9.7,3.3,15.6,8.4,15.6,12.9c0,4.7-6.3,10.1-16.7,13.6
						c-7.9,2.6-18.2,4-29,4c-11.2,0-21.7-1.3-29.6-4c-10.1-3.5-16.1-8.9-16.1-13.5c0-4.5,5.7-9.5,15.2-12.8
						C1744.7,377.1,1755.6,375.4,1767.1,375.4z"/>
					<path class="st15" d="M1752,384.1c5.7-9.9,12.5-18.3,18.8-23.9c7.7-6.7,15.1-9.3,19-7.1c4.1,2.4,5.6,10.5,3.4,21.2
						c-1.7,8.1-5.6,17.7-11.1,27.2c-5.6,9.7-11.9,18.2-18.2,23.7c-8,7-15.7,9.5-19.7,7.2c-3.9-2.3-5.4-9.7-3.5-19.6
						C1742.3,404.5,1746.3,394.2,1752,384.1z"/>
					<path class="st15" d="M1752,401.6c-5.7-9.9-9.7-20-11.3-28.3c-2-10.1-0.6-17.7,3.4-20c4.1-2.4,11.9,0.4,20.1,7.7
						c6.2,5.5,12.5,13.7,18,23.2c5.6,9.7,9.8,19.4,11.4,27.6c2,10.4,0.4,18.4-3.7,20.7c-3.9,2.3-11.1-0.2-18.8-6.8
						C1764.8,420.2,1757.8,411.6,1752,401.6z"/>
				</g>
				<g>
					<g>
						<path class="st6" d="M1267.7,409.3c-2.7,0-4.8-0.8-6.2-2.4c-1.4-1.6-2.1-3.8-2.1-6.8s0.8-5.3,2.2-7c1.5-1.7,3.6-2.5,6.4-2.5
							c1.9,0,3.6,0.4,5.1,1.1l-1.1,3.1c-1.6-0.6-2.9-1-4-1c-3.1,0-4.7,2-4.7,6.2c0,2,0.4,3.5,1.1,4.5c0.8,1,1.9,1.5,3.4,1.5
							c1.7,0,3.3-0.5,4.8-1.3v3.3c-0.7,0.4-1.4,0.7-2.2,0.8C1269.8,409.3,1268.9,409.3,1267.7,409.3z"/>
						<path class="st6" d="M1283.3,409h-3.8v-25.2h3.8V409z"/>
						<path class="st6" d="M1289.3,417c-1.1,0-2.1-0.2-2.9-0.4v-3c0.8,0.2,1.5,0.3,2.3,0.3c1.7,0,2.5-0.9,2.5-2.8v-20h3.8v20.3
							c0,1.9-0.5,3.2-1.4,4.2C1292.6,416.5,1291.1,417,1289.3,417z M1291,386.4c0-0.7,0.2-1.2,0.5-1.6c0.4-0.4,0.9-0.5,1.6-0.5
							c0.7,0,1.2,0.2,1.6,0.5c0.4,0.4,0.5,0.9,0.5,1.6s-0.2,1.1-0.5,1.6c-0.4,0.4-0.9,0.5-1.6,0.5c-0.7,0-1.2-0.2-1.6-0.5
							C1291.1,387.6,1291,387.1,1291,386.4z"/>
						<path class="st6" d="M1314.9,403.9c0,1.7-0.7,3.1-1.9,4.1c-1.3,1-3.1,1.4-5.5,1.4c-2.4,0-4.3-0.4-5.8-1.1V405
							c2.1,1,4.1,1.4,5.9,1.4c2.3,0,3.5-0.7,3.5-2.1c0-0.5-0.2-0.8-0.4-1.1s-0.7-0.6-1.3-1c-0.6-0.4-1.4-0.7-2.5-1.1
							c-2-0.8-3.5-1.6-4.2-2.4s-1.1-1.9-1.1-3.1c0-1.6,0.6-2.7,1.9-3.6c1.3-0.8,2.9-1.3,5-1.3s4.1,0.5,6,1.3l-1.3,2.9
							c-2-0.8-3.5-1.2-4.9-1.2c-2,0-3,0.6-3,1.7c0,0.5,0.2,1.1,0.8,1.4c0.5,0.4,1.7,0.9,3.5,1.6c1.5,0.6,2.6,1.1,3.2,1.6
							c0.7,0.5,1.1,1.1,1.5,1.7C1314.8,402.4,1314.9,403.1,1314.9,403.9z"/>
					</g>
					<path class="st6" d="M1283.8,436.4c-19.5-1.7-34.9-18.2-34.9-38.2s15.4-36.4,34.9-38.1v-4.3c-21.9,1.7-39.2,20.1-39.2,42.5
						s17.3,40.8,39.2,42.5V436.4z"/>
					<path class="st6" d="M1290.7,355.8v4.3c19.5,1.7,34.9,18.2,34.9,38.2c0,20-15.4,36.5-34.9,38.2v4.3
						c21.9-1.7,39.2-20.1,39.2-42.5C1329.9,375.9,1312.5,357.5,1290.7,355.8z"/>
				</g>
				<path class="st6" d="M1535.7,441.4c-1.2,0-2.4-0.3-3.5-0.9l-11-6.5c-1.7-0.9-0.8-1.3-0.3-1.4c2.2-0.8,2.6-0.9,5-2.3
					c0.2-0.2,0.6-0.1,0.8,0.1l8.4,5c0.3,0.2,0.8,0.2,1.1,0l32.9-19c0.3-0.2,0.5-0.5,0.5-0.9v-38c0-0.4-0.2-0.8-0.5-0.9l-32.9-19
					c-0.3-0.2-0.7-0.2-1,0l-32.9,19c-0.3,0.2-0.5,0.5-0.5,0.9v38c0,0.4,0.2,0.7,0.5,0.9l9,5.2c4.9,2.5,7.9-0.5,7.9-3.3v-37.5
					c0-0.5,0.5-1,1-1h4.2c0.5,0,1,0.5,1,1v37.5c0,6.5-3.5,10.3-9.8,10.3c-1.9,0-3.4,0-7.6-2l-8.6-5c-2.1-1.2-3.5-3.5-3.5-6v-38
					c0-2.5,1.4-4.8,3.5-6l32.9-19c2.1-1.2,4.9-1.2,6.9,0l32.9,19c2.1,1.2,3.5,3.5,3.5,6v38c0,2.5-1.4,4.7-3.5,6l-32.9,19
					C1538.1,441,1536.9,441.4,1535.7,441.4z M1562.3,403.9c0-7.1-4.8-9-14.9-10.4c-10.2-1.4-11.3-2-11.3-4.4c0-2,0.9-4.6,8.4-4.6
					c6.8,0,9.2,1.4,10.3,6c0.1,0.5,0.5,0.8,0.9,0.8h4.3c0.3,0,0.5-0.2,0.7-0.3c0.2-0.2,0.3-0.5,0.2-0.8c-0.7-7.9-5.9-11.5-16.4-11.5
					c-9.4,0-14.9,4-14.9,10.6c0,7.2,5.6,9.2,14.6,10.1c10.7,1.1,11.6,2.6,11.6,4.7c0,3.7-2.9,5.3-9.9,5.3c-8.7,0-10.6-2.2-11.3-6.5
					c-0.1-0.5-0.5-0.8-1-0.8h-4.3c-0.5,0-1,0.5-1,1c0,5.6,3,12.2,17.4,12.2C1556.3,415.2,1562.3,411.1,1562.3,403.9z M1576.7,365.4
					v0.7h1.9v4.9h0.8v-4.9h1.9v-0.7H1576.7z M1581.8,371h0.7v-3.2c0-0.2,0-0.3,0-0.6s0-0.5,0-0.6v-0.2l1.6,4.7h0.8l1.6-4.7
					c0,0.3,0,0.6,0,0.8s0,0.5,0,0.5v3.2h0.7v-5.5h-1.1l-1.6,4.7l-1.6-4.7h-1.1V371z"/>
				<g id="Group-10" transform="translate(113.000000, 69.000000)">
					<path id="Fill-2" class="st6" d="M1517.4,375.2c-5.6,0-10.6-1.4-14.3-4.2c-4.6-3.4-7-8.5-7-14.6c0-7.2,6.5-12.2,12.2-16.5
						c2.4-1.8,6.4-4.9,7-6.3c2.4-5.4,3.5-7.9-1.1-24.5c-1.4-5-1.3-11.7,6.5-16.9c0-5.5,0.4-11.5,2.8-14.3c0.5-0.5,1.9-2.2,4-2.2
						c1.8,0,3,1.1,3.8,2c0.9,0.9,1.6,1.6,3,1.6c0.7,0,1.4-0.2,2.3-0.4c3.8-1.1,7.1-3.5,10-5.6c3.1-2.2,5.5-3.9,8-3.9
						c1,0,1.9,0.2,2.7,0.8c2,1.2,3.1,4,3.5,8.8c0.2,2.5,0.2,5.5,0.2,9c3.6,1.3,6.2,3.2,8,5.6c2.4,3.3,2.9,7.5,1.5,11.8
						c-5.3,15.7-3.2,22.1-1.4,27.8c1.7,5.4,3.7,11.6-2.7,20.3c-4.3,5.8-9.1,7-12.9,8c-3.3,0.8-6.7,1.7-11.9,5.6
						C1534.9,371.9,1525.6,375.2,1517.4,375.2"/>
					<path id="Fill-4" class="st16" d="M1546.4,296.8c-1.8,0-3.2-2.3-3.2-5.2s1.4-5.2,3.2-5.2s3.2,2.3,3.2,5.2
						C1549.7,294.6,1548.2,296.8,1546.4,296.8 M1531.1,297c-0.8,0-1.5-1.3-1.5-2.8c0-1.6,0.7-2.8,1.5-2.8s1.5,1.3,1.5,2.8
						C1532.6,295.8,1531.9,297,1531.1,297 M1567.5,304.2c1.4-4.3,0.2-7.3-1.1-9c-1.9-2.6-5.1-4.2-8.6-5.2c0.4-7.4,0.2-16-2.1-17.4
						c-3.3-2-9.5,6.5-18.3,9.1c-8.9,2.6-8.2-6-11.6-2c-1.8,2.1-2.2,8.1-2,14c-4.7,2.7-8.6,7-6.6,14.4c4.9,17.7,3.6,20.7,1,26.6
						c-1,2.2-4.7,5-8,7.5c-5.4,4.1-11,8.4-11,14.1c0,5.2,2,9.4,5.8,12.2c3.2,2.4,7.5,3.6,12.5,3.6c7.6,0,16.1-2.9,22.3-7.7
						c5.6-4.4,9.5-5.3,13-6.2c3.8-0.9,7.6-1.9,11.2-6.8c5.5-7.5,4-12.5,2.3-17.6C1564.2,328,1562,320.8,1567.5,304.2"/>
					<path id="Fill-6" class="st6" d="M1530.1,359.3c-11.1,7.2-25.4,3.7-27.4-2.9c0.1,15.7,22.3,14.9,34.7,5.3
						c12.5-9.6,17.8-4.4,23.5-12.2c3-4.1,3.5-7.1,2.9-10.1C1562,347.5,1540.8,352.4,1530.1,359.3"/>
					<path id="Fill-8" class="st6" d="M1557.5,293.7c-0.3,4.1-0.7,7.1-0.8,7.2c-1.3,3.2-14.6,4.1-19,4.4c-5.1,0.4-6.3,17.8-7.6,24.7
						c-1.1,5.6-5.3-20.1-5.8-23.6c-0.2-1.3-0.5-4.6-0.7-8.6c-3.9,2.9-4.1,5.9-3.2,9.2c5,18.2,3.8,22.1,0.8,29
						c-2.3,5.1-11.6,9.9-16.1,14.9c2.3,3.1,9,10.1,21.2,3.8c13.5-7,32.6-14.2,35-24.4c-1.4-5.7-1.9-13.7,2.7-27.5
						C1565.8,298,1562.6,295.2,1557.5,293.7"/>
				</g>
			</g>
		</g>
	</g>
	<g id="lama_1_">
		<g id="body_1_">
			<g>
				<path class="st6" d="M1883.8,312.2"/>
				<path class="st6" d="M2053.7,299.1c-7.3-6.7-14.6-13.3-21.9-20c-7.3-6.7-14.6-13.3-21.9-20c1.2-1.7,2.2-3.4,3.3-5.1
					c-76.5,0-20-130.2-57.6-167.7c1.9-1.1,12.5-30.6,12.5-30.6s-13.7-22.7-27-22.7c-1.8,0-8.7,0.3-10.5,0.3
					c0,12.6,13.9,28.8,13.9,46.8c-11.8,0.2-23.8,0.2-35.6,0.4c0-16.1,7.7-33.9,7.7-50.4c-18,0-24.8,14-28.9,28.5
					c0,12.4,12.4,18.9,12.4,23.3c-8.4,5.4-11.6,12.5-14.3,19.7c0,47.4,10.8,116.1-5.9,159c-0.3,1.4-0.6,2.8-0.9,4.1
					c6.8-1.2,8.4-1.4,8.4-1.2c0.1,0.4-14,2.1-26.5,11.5c-3.8,2.9-7.3,6.3-6.8,7.3c0.9,1.4,9.4-3.1,10.1-1.7
					c0.8,1.3-9.9,2.8-16.4,7.3c-3.9,2.7,12.1,0.3,12.5,1.2c0.5,1.5,0,0.2,0,0c-0.1-0.5-30.3,5-42.6,14.5c-5.1,3.9-6.4,9.2-5.4,18.3
					c8,48,5,69.9,14.8,77.4l23.8-6.2c0,0-3.1-15.2-8.4-28.2c-3.3-8-11.7-37.1-4.5-45.7c8.8-10.8,33.7-14.1,33.8-13.3
					c0.1,0.4,11.1,2.1,11.1,2.1c-1,3.6,3.6,20.2,1.9,10.1c-0.9-5.7,9.7-13.4,10.8-13c1.2,0.5-10.8,13-7.3,22c0,0,16.9-10.7,15.2-7.9
					c-5.8,9.6-0.6,18.5,0,18.6c0.7,0.2,5.5-6.8,11.1-13.5c2.7-3.3,7.2,3.6,7.5,2.2c2-8.4-3.9-19.2-3.9-19.2
					c1.6-1.2,3.9,7.6,7.3,11.3c13.2,14.4,17.7,14.1,17.9,14.1c0.3,0-5.1-15.8,0.2-20.3c1.5-1.4,3.2,8,5.6,7.9
					c2.1-0.1-0.1-9.7,5.1-14.7c4.1-3.9,12-4.3,13.5-1.7c2.2,3.7-10.1,10.8-17.5,23.8c-12.4,21.4-10.1,56.3,8.4,69.5l28-11.7
					c1.7-4.1-1.7-1.3-16.2-20.9c-10.1-13.6-6-17.2-5-22.7c2-11.4,15.1-19.3,30.5-21.5c8.6-1.2,16.2,0.1,19.7-5.1
					c2.2-3.2,2.7-8.6,2-12.9c-0.8-4.6-2.6-6-2-7.3C2016.7,292.4,2024.1,291.5,2053.7,299.1z"/>
			</g>
		</g>
		<g id="head_1_">
			<g id="eye1_1_">
				<g>
					<ellipse class="st17" cx="1902.1" cy="127" rx="4.6" ry="4.6"/>
				</g>
			</g>
			<g id="eye2_1_">
				<g>
					<ellipse class="st17" cx="1956.9" cy="127" rx="4.6" ry="4.6"/>
				</g>
			</g>
			<g id="mouth_2_">
				<g id="Elipsa_3_1_">
					<g>
						<path class="st18" d="M1929.4,121.5c-9.6,0-15.3,8.7-14.9,19.5c0.5,10.8,5.4,19.5,14.9,19.5c9.6,0,13.9-8.5,13.9-19.3
							C1943.3,130.4,1938.9,121.5,1929.4,121.5z"/>
					</g>
				</g>
				<g id="smile_1_">
					<g>
						<path class="st17" d="M1934.1,138.1c-2.9,1.3-8.4,0-9.5,0c-2,0.1-4.3-2.8-4.3-2.8v0.7c0,0,1.9,3.5,4.3,3.5
							c2.6,0,7,0.8,9.5-0.7c2.2-1.3,3.2-2.7,3.2-2.7v-0.7C1937.3,135.4,1936.5,137,1934.1,138.1z"/>
					</g>
				</g>
				<g id="face_1_" class="st3">
					<g class="st5">
						<path class="st17" d="M1882.2,315.2c-4.6,0.7-9.1,1-13.7,0.7c-0.2,0-1.3,0.4-0.8,0.4c4.8,0.2,9.5-0.1,14.2-0.8
							C1882.3,315.4,1883,315,1882.2,315.2L1882.2,315.2z"/>
					</g>
				</g>
				<g id="cheek_1_" class="st3">
					<g class="st5">
						<path class="st17" d="M1881.7,312.3c-0.5,3.2,0.6,5.7,1.8,8.7c0.2,0.3,1.3,0,1.2-0.3c-1.2-3-2.2-5.4-1.8-8.7
							C1883,311.9,1881.8,312,1881.7,312.3L1881.7,312.3z"/>
					</g>
				</g>
				<g id="noseline_1_">
					<g>
						<polygon class="st17" points="1928.5,128.7 1928.5,138.3 1929.2,138.3 1929.2,128.7 						"/>
					</g>
				</g>
				<g id="nose_1_">
					<g>
						<path class="st17" d="M1929,124.7c-3.8,0-6.9,2-6.9,4.6s3.3,3,7.1,3s6.7-0.5,6.7-3C1935.9,126.8,1932.8,124.7,1929,124.7z"/>
					</g>
				</g>
			</g>
		</g>
		<g id="tie_1_">
			<g>
				<path class="st17" d="M1955.4,210.6c-3.3-1.1-19.7,8.3-19.7,8.3c-1-1.1-2.4-1.7-4-1.7c-1.6,0-3.1,0.6-4,1.7c0,0-16.4-9.9-19.5-8
					c-3.1,1.8-3.2,21.1,0,23.1s19.9-7.8,19.9-7.8c1,0.9,2.2,1.5,3.7,1.5c1.5,0,2.8-0.5,3.7-1.5c0,0,17.1,10.1,19.9,7.8
					C1958,231.6,1958.7,211.6,1955.4,210.6z"/>
			</g>
		</g>
		<g id="glasses_1_">
			<g>
				<path class="st17" d="M1986.7,116.6c0-0.8-0.1-1.6-0.2-2.4c0-0.4-0.2-0.5-0.5-0.7c-0.2-0.1-0.5-0.2-0.7-0.2
					c-3.6-0.5-7.1-1.2-10.8-1.4c-2.9-0.2-5.7-0.3-8.7-0.5c-5.6-0.2-11.1-0.2-16.7,0.5c-3.4,0.4-6.7,1.1-10,2.1
					c-1.6,0.5-3.2,1.2-5,1.7c-2.6,0.8-5.2,1.2-7.9,0.6c-1.6-0.3-3.2-0.7-4.8-1.3c-2.9-0.9-5.6-1.9-8.6-2.3
					c-5.6-1.1-11.5-1.5-16.8-1.5c-4.4,0-8.3,0.2-12.1,0.6c-3.2,0.4-6.4,0.8-9.6,1.2c-0.6,0.1-1.4,0.3-2,0.5
					c-0.3,0.1-0.5,0.3-0.5,0.7c-0.1,1.9-0.2,3.8-0.2,5.6c0,0.3,0.1,0.5,0.1,0.9c0,0.2,0.2,0.4,0.4,0.5c0.2,0.1,0.5,0.2,0.7,0.4
					c1.1,0.7,1.5,1.9,1.9,3c0.3,0.8,0.5,1.7,0.7,2.5c0.2,0.5,0.3,1.1,0.5,1.5c0.5,2.5,1.1,5,1.6,7.4c0.5,2.3,1.2,4.7,2.3,6.8
					c1.2,2.4,3,4.3,5.6,5.3c1.5,0.6,3.2,1.1,4.8,1.3c2.9,0.5,5.8,0.5,8.8,0.3c3-0.2,5.9-0.6,8.8-1.5c2.1-0.6,4.1-1.5,5.8-3
					c2.6-2.2,4.7-5,6.3-8c1.6-3.1,2.8-6.3,3.7-9.7c0.3-1,0.5-1.9,0.9-2.9c0.5-1.4,1.5-2.2,2.9-2.4c0.5-0.1,1-0.1,1.4-0.1
					c1.1,0.1,2.1,0.3,2.9,1.2c0.3,0.4,0.6,0.8,0.8,1.3c0.4,0.9,0.8,1.9,1.1,2.8c1.3,4,3,8,5.1,11.7c1.8,3.1,4.1,5.5,7.2,7.3
					c2.2,1.2,4.6,1.9,7,2.4c3.6,0.7,7.3,0.9,11.1,0.7c2.2-0.1,4.5-0.4,6.7-1.1c2.2-0.6,4.2-1.8,5.6-3.6c1-1.2,1.6-2.6,2.2-3.9
					c1.2-3,2-6.2,2.7-9.2c0.3-1.5,0.7-3.1,1.1-4.6c0.2-0.8,0.4-1.6,0.6-2.3s0.4-1.5,0.8-2.1c0.5-0.6,1-1.3,1.7-1.5
					c0.3-0.2,0.5-0.3,0.5-0.7c0.1-0.2,0.1-0.5,0.1-0.7C1986.7,118.8,1986.7,117.8,1986.7,116.6z M1876.5,117.8
					c-1.2,0-2.2-0.2-2.2-0.5s1-0.5,2.2-0.5c1.2,0,2.2,0.2,2.2,0.5S1877.8,117.8,1876.5,117.8z M1919.1,129.8c-0.8,3.3-2,6.4-3.7,9.4
					c-0.9,1.6-1.9,3.1-3.3,4.4c-1.8,1.7-3.9,2.7-6.3,3.3c-4.7,1.2-9.5,1.5-14.3,0.8c-1-0.2-1.9-0.4-2.9-0.6
					c-1.9-0.5-3.4-1.6-4.5-3.3c-1.2-1.9-1.9-3.9-2.5-6c-0.6-2.8-1.1-5.6-1.3-8.5c-0.2-1.6-0.2-3.3,0.1-5c0.1-0.8,0.2-1.7,0.3-2.5
					c0.6-2.9,2.4-4.7,5.3-5.5c2.6-0.6,5.3-1.1,8-1.3c1.9-0.2,3.9-0.2,5.3-0.3c4.6,0.1,8.4,0.3,12.1,1.2c1.5,0.3,3.1,0.6,4.5,1.5
					c0.7,0.4,1.4,0.8,1.9,1.3c1,0.8,1.5,1.9,1.7,3.2C1919.9,124.6,1919.6,127.2,1919.1,129.8z M1975.8,140.3c-0.5,1.5-1.4,2.9-2.5,4
					c-1.3,1.3-2.9,1.9-4.6,2.4c-2.2,0.5-4.4,0.7-6.6,0.7c-3.4,0-6.7-0.4-10-1.2c-3.2-0.7-5.8-2.4-8-5c-2.7-3.3-4.4-7.1-5.3-11.3
					c-0.4-1.9-0.8-3.9-0.7-5.8c0-0.9,0.1-1.7,0.2-2.6c0.4-2.1,1.6-3.5,3.6-4.2c1.9-0.8,3.9-1.3,6-1.7c2.2-0.5,4.6-0.8,6.8-1
					c1.8-0.1,3.6-0.2,4.8-0.2c4.8,0.2,9,0.5,13.2,1.8c0.7,0.2,1.5,0.5,2.2,0.9c0.6,0.3,1.2,0.8,1.5,1.5c0.4,0.7,0.7,1.5,1.1,2.2
					c0.3,0.9,0.4,1.9,0.5,2.9c0.1,1.5,0.2,3.1,0.1,4.6C1978,132.5,1977.2,136.5,1975.8,140.3z M1981.8,117.8c-1.2,0-2.2-0.2-2.2-0.5
					s1-0.5,2.2-0.5c1.2,0,2.2,0.2,2.2,0.5S1983.1,117.8,1981.8,117.8z"/>
			</g>
		</g>
	</g>
	<g id="top">
		<g id="bg">
			<polygon class="st13" points="575.3,257.8 3,257.8 0,222.9 646.1,222.9 			"/>
			
				<rect x="0" y="68.3" transform="matrix(-1 -2.376867e-11 2.376867e-11 -1 645.6775 291.593)" class="st14" width="645.7" height="154.9"/>
		</g>
		<g id="logo_1_">
			<g id="x_1_">
				<g id="bracket_3_">
					<g>
						<path class="st19" d="M575.9,131.9c-2.2-6.7-5.4-12.8-9.5-18.2c-4.2-5.5-8.7-9.5-13.6-11.9l-2.5,4.8c3.7,2.2,4.4,4.8,7.7,9.7
							c3.3,4.9,5.9,10.5,7.8,16.7c1.9,6.2,2.8,12.7,2.8,19.4c0,7.4-0.9,14.3-2.8,20.6c-1.9,6.3-4.4,11.9-7.7,16.6s-5.3,6.1-7.8,9.7
							l2.5,4.5c5-2.5,9.6-6.5,13.8-12s7.3-11.5,9.5-18.1c2.1-6.6,3.2-13.5,3.2-20.6C579.2,145.6,578.1,138.6,575.9,131.9z"/>
					</g>
				</g>
				<g id="X_1_">
					<g>
						<g class="st20">
							<path class="st6" d="M546,188.2h-13.2l-17.6-28.8l-17.8,28.8H485l23.4-36.5l-21.9-33.9h12.8l16.3,26.6l16.3-26.6h12.4
								l-22,34.1L546,188.2z"/>
						</g>
					</g>
				</g>
				<g id="bracket_2_">
					<g>
						<path class="st19" d="M464.3,173.2c-1.9-6.3-2.8-13.2-2.8-20.6c0-6.7,0.9-13.2,2.8-19.4c1.9-6.2,4.4-11.8,7.8-16.7
							c3.3-4.9,4-7.5,7.7-9.7l-2.5-4.8c-4.9,2.5-9.5,6.5-13.6,12s-7.3,11.5-9.5,18.2c-2.2,6.7-3.3,13.8-3.3,21.3
							c0,7.1,1,14,3.2,20.6c2.1,6.6,5.3,12.6,9.5,18.1c4.2,5.5,8.8,9.5,13.8,12l2.5-4.5c-2.5-3.6-4.5-5-7.8-9.7
							C468.8,185.1,466.2,179.5,464.3,173.2z"/>
					</g>
				</g>
			</g>
			<g id="lambda_1_">
				<g id="λ_2_">
					<g>
						<path class="st19" d="M112.6,177.6l-0.9,0.1l-1.8-0.1c-1.8-0.2-3.4-1.9-4.8-4.8l-23.8-56.8c-1.1-2.8-2.8-4.9-5.1-6.4
							s-5.4-2.2-9.4-2.2c-2.6,0-5,0.3-7.2,0.8l0.2,9.5l1.5-0.1h1.9c2.7,0.1,4.7,1.5,6,4l5.1,11.3l-21.5,54.2h14.8l13.7-37.1
							l11.3,27.7c1.6,3.8,3.5,6.6,5.7,8c2.2,1.5,5.3,2.3,9.4,2.3c1.9,0,3.7-0.2,5.3-0.5L112.6,177.6z"/>
					</g>
				</g>
				<g>
					<path class="st6" d="M156.5,188.2l-2.2-7.4h-0.4c-2.6,3.2-5.1,5.5-7.8,6.6c-2.6,1.1-6,1.8-10,1.8c-5.3,0-9.3-1.4-12.3-4.2
						c-3-2.8-4.4-6.8-4.4-12c0-5.5,2-9.6,6.1-12.4c4.1-2.8,10.3-4.3,18.7-4.6l9.2-0.3v-2.8c0-3.4-0.8-6-2.4-7.7s-4-2.5-7.4-2.5
						c-2.7,0-5.4,0.4-7.8,1.2c-2.5,0.8-4.9,1.8-7.2,2.8l-3.7-8.1c2.9-1.5,6.1-2.7,9.5-3.4c3.4-0.8,6.7-1.2,9.7-1.2
						c6.8,0,11.9,1.5,15.3,4.4c3.4,3,5.2,7.6,5.2,13.9v35.9L156.5,188.2L156.5,188.2z M139.7,180.4c4.1,0,7.4-1.1,9.9-3.4
						c2.5-2.3,3.7-5.5,3.7-9.6v-4.6l-6.8,0.3c-5.3,0.2-9.2,1.1-11.7,2.7c-2.4,1.6-3.6,4-3.6,7.3c0,2.4,0.7,4.2,2.1,5.5
						C134.8,179.8,136.8,180.4,139.7,180.4z"/>
					<path class="st6" d="M225.3,188.2H214v-32.8c0-4.1-0.8-7.1-2.3-9.1s-3.9-3-7.2-3c-4.4,0-7.6,1.4-9.6,4.3
						c-2,2.8-3.1,7.6-3.1,14.2v26.5h-11.3v-53.3h8.9l1.6,7h0.6c1.5-2.5,3.6-4.5,6.5-5.9c2.8-1.4,5.9-2.1,9.2-2.1
						c8.2,0,13.6,2.8,16.3,8.4h0.8c1.6-2.6,3.8-4.7,6.6-6.2c2.8-1.5,6.1-2.2,9.9-2.2c6.3,0,11,1.6,13.9,4.8
						c2.9,3.2,4.4,8.1,4.4,14.7v34.8h-11.3v-32.8c0-4.1-0.8-7.1-2.4-9.1c-1.5-2-4-3-7.2-3c-4.4,0-7.6,1.4-9.6,4.1
						c-2,2.7-3.1,7-3.1,12.6L225.3,188.2L225.3,188.2z"/>
					<path class="st6" d="M302,133.9c6.6,0,11.8,2.4,15.5,7.2c3.7,4.8,5.6,11.6,5.6,20.3c0,8.8-1.9,15.5-5.6,20.4
						c-3.8,4.9-9,7.3-15.7,7.3c-6.7,0-12-2.4-15.7-7.3h-0.8l-2.1,6.3h-8.5v-75h11.3V131c0,1.3-0.1,3.3-0.2,5.9
						c-0.1,2.6-0.2,4.3-0.3,5h0.5C289.6,136.5,295,133.9,302,133.9z M299,143.2c-4.5,0-7.8,1.4-9.9,4c-2,2.7-3.1,7.2-3.1,13.5v0.8
						c0,6.5,1,11.2,3.1,14.1c2.1,2.9,5.4,4.4,10.1,4.4c4,0,7.1-1.6,9.1-4.8c2.1-3.2,3.1-7.8,3.1-13.8
						C311.5,149.2,307.3,143.2,299,143.2z"/>
					<path class="st6" d="M354.2,189.1c-6.6,0-11.8-2.4-15.5-7.2c-3.7-4.8-5.6-11.6-5.6-20.3c0-8.8,1.9-15.5,5.6-20.4
						c3.8-4.9,9-7.3,15.7-7.3c7,0,12.3,2.6,16,7.8h0.6c-0.5-3.8-0.8-6.8-0.8-9v-19.5h11.4v75h-8.9l-2-7h-0.5
						C366.5,186.5,361.2,189.1,354.2,189.1z M357.2,179.9c4.7,0,8-1.3,10.2-3.9s3.2-6.8,3.3-12.8v-1.5c0-6.7-1.1-11.5-3.3-14.3
						c-2.2-2.8-5.6-4.2-10.2-4.2c-4,0-7.1,1.6-9.2,4.8c-2.1,3.2-3.2,7.8-3.2,13.8c0,5.9,1,10.4,3.1,13.5
						C349.9,178.4,353,179.9,357.2,179.9z"/>
					<path class="st6" d="M431,188.2l-2.2-7.4h-0.4c-2.6,3.2-5.1,5.5-7.8,6.6c-2.6,1.1-6,1.8-10,1.8c-5.3,0-9.3-1.4-12.3-4.2
						c-3-2.8-4.4-6.8-4.4-12c0-5.5,2-9.6,6.1-12.4s10.3-4.3,18.7-4.6l9.2-0.3v-2.8c0-3.4-0.8-6-2.4-7.7s-4-2.5-7.4-2.5
						c-2.7,0-5.4,0.4-7.8,1.2c-2.5,0.8-4.9,1.8-7.2,2.8l-3.7-8.1c2.9-1.5,6.1-2.7,9.5-3.4c3.4-0.8,6.7-1.2,9.7-1.2
						c6.8,0,11.9,1.5,15.3,4.4c3.4,3,5.2,7.6,5.2,13.9v35.9L431,188.2L431,188.2z M414.2,180.4c4.1,0,7.4-1.1,9.9-3.4
						c2.5-2.3,3.7-5.5,3.7-9.6v-4.6l-6.8,0.3c-5.3,0.2-9.2,1.1-11.7,2.7c-2.4,1.6-3.6,4-3.6,7.3c0,2.4,0.7,4.2,2.1,5.5
						C409.2,179.8,411.3,180.4,414.2,180.4z"/>
				</g>
			</g>
		</g>
	</g>
</g>
</svg>
