<?xml version="1.0" encoding="utf-8"?>
<!-- Generator: Adobe Illustrator 19.2.0, SVG Export Plug-In . SVG Version: 6.00 Build 0)  -->
<svg version="1.1" id="greg-svg" xmlns="http://www.w3.org/2000/svg" xmlns:xlink="http://www.w3.org/1999/xlink" x="0px" y="0px"
	 viewBox="0 0 2117.3 952.4" style="enable-background:new 0 0 2117.3 952.4;" xml:space="preserve">
<style type="text/css">
	.st0{fill:#88B4E0;}
	.st1{fill:#89BF40;}
	.st2{fill:#7EAD41;}
	.st3{display:none;}
	.st4{display:inline;fill:#FFFFFF;}
	.st5{display:inline;}
	.st6{fill:#FFFFFF;}
	.st7{fill:#242424;}
	.st8{fill:#EAEAEA;}
	.st9{display:none;fill:#3F4A52;enable-background:new    ;}
	.st10{font-family:'OpenSans';}
	.st11{font-size:37.0706px;}
	.st12{fill:#FFFFFF;stroke:#404041;stroke-width:0.25;stroke-miterlimit:10;}
	.st13{fill:#293135;}
	.st14{fill:#3F4A52;}
	.st15{fill:none;stroke:#FFFFFF;stroke-width:6;stroke-miterlimit:10;}
	.st16{fill:#404B54;}
	.st17{fill:#242424;stroke:#404041;stroke-width:0.25;stroke-miterlimit:10;}
	.st18{fill:#E9E9EA;stroke:#404041;stroke-width:0.25;stroke-miterlimit:10;}
	.st19{fill:#0973B9;}
	.st20{enable-background:new    ;}
</style>
<g id="foreground">
	<polygon class="st0" points="0,0 2117.3,0 2117.3,835.2 1.5,835.2 	"/>
	<path class="st1" d="M2117.3,952.4V557.3c0,0-282.4-19.2-494.1-12.2c-211.8,7-617.7,54.5-775.9,89.6
		C805.3,644,543.5,715.3,329.6,798C147.9,868,6.2,952.4,6.2,952.4H2117.3z"/>
	<path class="st2" d="M6.2,952.4h2111.8c79.2,3.3-919.4-217.4-1340-256.3C660.9,685.3,99.4,634.7,6.2,674.9
		C6.2,674.9,3.1,944.6,6.2,952.4z"/>
	<g id="clouds" class="st3">
		<path id="cloud1" class="st4" d="M-156.4,75.5h553.7c0,0,75-71.6,0-63S272.9,43.7,272.9,43.7s88.5-76.2,17-80.6
			c-57.9-3.6-49.4,22.1-49.4,22.1s6.8-80.1-27.3-64.7c-34.1,15.3-69.9,63.2-69.9,63.2c18.7,10.2,0,0,0,0c8.6-24.2-25.1-6.8-25.1-6.8
			c14.7-13.8,42.1-78.6-12.4-73.4C51.3-91.4-1.5-62.4,3.6-43.7C8.7-25,83.7-200.4-18.5-145.9S-71.3-52.5-62.8-40.4
			s-71.6-50.9-71.6-13.5s56.2,90.3,56.2,90.3s-42.6-69.9-71.6-42.6C-178.5,20.9-156.4,75.5-156.4,75.5z"/>
		<path id="cloud2" class="st4" d="M435.5-156.6h329.2c0,0,44.6-42.5,0-37.5c-44.6,5.1-74,18.5-74,18.5s52.6-45.3,10.1-47.9
			c-34.4-2.1-29.4,13.2-29.4,13.2s4.1-47.6-16.2-38.5s-41.6,37.6-41.6,37.6c11.1,6.1,0,0,0,0c5.1-14.4-14.9-4-14.9-4
			c8.7-8.2,25.1-46.7-7.4-43.7c-32.4,3-63.8,20.3-60.8,31.4c3,11.1,47.6-93.2-13.2-60.8s-31.4,55.5-26.3,62.7
			c5.1,7.2-42.5-30.3-42.5-8s33.4,53.7,33.4,53.7s-25.3-41.5-42.5-25.3S435.5-156.6,435.5-156.6z"/>
		<path id="cloud3" class="st4" d="M940.6-26.2h442.7c0,0,59.9-57.2,0-50.4s-99.4,24.9-99.4,24.9s70.7-60.9,13.6-64.4
			c-46.3-2.9-39.5,17.7-39.5,17.7s5.4-64-21.8-51.8c-27.2,12.3-55.9,50.5-55.9,50.5c15,8.2,0,0,0,0c6.8-19.3-20-5.4-20-5.4
			c11.8-11,33.7-62.8-9.9-58.7c-43.6,4.1-85.8,27.2-81.7,42.2s64-125.3-17.7-81.7s-42.2,74.7-35.4,84.3c6.8,9.7-57.2-40.7-57.2-10.8
			s45,72.2,45,72.2s-34.1-55.8-57.2-34.1C922.9-69.8,940.6-26.2,940.6-26.2z"/>
	</g>
	<g id="lama" class="st3">
		<g id="body" class="st5">
			<g>
				<path class="st6" d="M1871.6,368.5c14.5,0,20.7-9,30.2-9c-2.2-2.2-4.5-4.4-6.7-6.6c1.1-2.7,2.1-5.4,3.2-8
					c-3.9-0.9-7.8-1.8-11.7-2.7c0-3,0-5.9,0-8.9c-11.3,2.9-22.6,5.7-33.9,8.6c2.1-2,4.2-3.9,6.3-5.9c-10.9,1.7-21.7,3.4-32.6,5
					c1.8-1.8,3.6-3.6,5.4-5.4c-9.6,0.3-19.2,0.6-28.8,0.9c0.5-2.1,0.9-4.2,1.4-6.3c-10.1,1.4-20.2,2.7-30.4,4.1
					c0.5-0.8,0.9-1.5,1.4-2.3c-10,2.1-19.9,4.2-29.9,6.3c1.4-2.1,2.7-4.2,4.1-6.3c-94.4,0-24.7-160.6-71-206.8
					c2.4-1.3,15.4-37.8,15.4-37.8s-16.9-28.1-33.3-28.1c-2.2,0-10.8,0.4-13,0.4c0,15.6,17.2,35.5,17.2,57.7
					c-14.6,0.2-29.3,0.3-43.9,0.5c0-19.9,9.5-41.8,9.5-62.2c-22.2,0-30.6,17.3-35.6,35.2c0,15.3,15.3,23.3,15.3,28.7
					c-10.3,6.7-14.3,15.4-17.7,24.3c0,58.5,13.4,143.3-7.3,196.1c-0.4,1.7-0.8,3.4-1.1,5.1c3.5-0.5,7-1,10.4-1.5
					c0,0-12.6,27.9-12.6,37.9c2.7-3.5,5.4-6.9,8.2-10.4c-2.1,12.2-4.2,24.4-6.3,36.6c2.1-1.4,4.1-2.8,6.2-4.1
					c-1.7,13.3-3.3,26.5-5,39.8c2.6-3.3,5.1-6.6,7.7-9.9c0,7.5,0,15.1,0,22.6c1.9,0,3.9,0,5.8,0c-2.6,9.5-5.1,19-7.7,28.5
					c2.7-3.6,5.4-7.2,8.1-10.9c4.5,18.3,9.1,36.5,13.6,54.8c-0.8,34.2-1.5,68.5-2.3,102.7c13.1-0.3,26.3-0.6,39.4-0.9
					c1.5-28.5-0.7-67.6,0.7-100.4c0.4-10.1,4.3-18.3,4.8-27.1c1.5,8.7,8,17.8,9.6,27.9c4.8,31.1,4.8,67.3,9.4,94
					c8.3-0.9,16.6-1.8,24.8-2.7c1.2-40.7,2.4-81.5,3.6-122.2c5.9,0.8,11.7,1.5,17.6,2.3c3.3,4.8,6.6,9.6,10,14.4c1.5,0,3,0,4.4,0
					c0.3-4.2,0.6-8.4,0.9-12.6c3.2,5.7,6.3,11.4,9.5,17.2c-0.5-4.5-0.9-9-1.4-13.5c5.1,3.5,10.2,6.9,15.4,10.4
					c-2.3-7.8-4.5-15.7-6.8-23.6c5.7-2.1,19-0.5,17.2-6.3c18,57.1,17,88.4,17.2,134.9c10.3-0.5,11.5,0.2,21.7-0.3
					c0-34.9,2.8-84.6,2.8-118.2c0-0.6,4.8,10.7,4.8,10.2c-0.5,34.8,4.7,73.2,4.2,108c10.4-0.8,12.7,0.5,23.1-0.3
					c0-51.9,24.2-102,24.2-142.4c2,0.9,3.9,1.8,5.9,2.7c-2.1-6.6-4.2-13.3-6.3-19.9c0-2.9,0-5.7,0-8.6c2.2,0.8,4.5,1.5,6.7,2.3
					c-0.8-16.7-1.5-33.5-2.3-50.2c2.7,0.5,5.4,0.9,8.1,1.4C1876.7,394.6,1874.2,381.6,1871.6,368.5z"/>
			</g>
		</g>
		<g id="head" class="st5">
			<g id="eye1">
				<g>
					<ellipse class="st7" cx="1612.6" cy="175.2" rx="5.7" ry="5.7"/>
				</g>
			</g>
			<g id="eye2">
				<g>
					<ellipse class="st7" cx="1680.2" cy="175.2" rx="5.7" ry="5.7"/>
				</g>
			</g>
			<g id="mouth_1_">
				<g id="Elipsa_3">
					<g>
						<path class="st8" d="M1646.2,168.3c-11.8,0-18.9,10.8-18.3,24.1s6.7,24.1,18.3,24.1c11.8,0,17.2-10.5,17.2-23.8
							S1657.9,168.3,1646.2,168.3z"/>
					</g>
				</g>
				<g id="smile" class="st3">
					<g class="st5">
						<path class="st7" d="M1652,188.8c-3.6,1.6-10.3,0-11.7,0c-2.5,0.1-5.3-3.4-5.3-3.4v0.9c0,0,2.4,4.3,5.3,4.3
							c3.2,0,8.7,1,11.7-0.9c2.7-1.6,4-3.3,4-3.3v-0.9C1656,185.5,1655,187.5,1652,188.8z"/>
					</g>
				</g>
				<g id="face">
					<g>
						<path class="st7" d="M1653.2,189c-5.6,0.9-11.2,1.2-16.9,0.9c-0.3,0-1.6,0.5-1,0.5c5.9,0.2,11.7-0.1,17.6-1
							C1653.4,189.3,1654.2,188.8,1653.2,189L1653.2,189z"/>
					</g>
				</g>
				<g id="cheek">
					<g>
						<path class="st7" d="M1652.7,185.5c-0.6,4,0.8,7.1,2.2,10.8c0.2,0.4,1.6,0,1.4-0.4c-1.4-3.7-2.8-6.7-2.2-10.7
							C1654.2,184.9,1652.8,185.1,1652.7,185.5L1652.7,185.5z"/>
					</g>
				</g>
				<g id="noseline">
					<g>
						<polygon class="st7" points="1645.1,177.2 1645.1,189 1646,189 1646,177.2 						"/>
					</g>
				</g>
				<g id="nose">
					<g>
						<path class="st7" d="M1645.7,172.3c-4.7,0-8.5,2.5-8.5,5.7s4.1,3.7,8.8,3.7c4.7,0,8.2-0.6,8.2-3.7S1650.4,172.3,1645.7,172.3z
							"/>
					</g>
				</g>
			</g>
		</g>
		<g id="tie" class="st5">
			<g>
				<path class="st7" d="M1675.3,281.4c-4.1-1.3-24.2,10.2-24.2,10.2c-1.2-1.3-3-2.1-5-2.1s-3.8,0.8-5,2.1c0,0-20.2-12.2-24.1-9.9
					c-3.8,2.2-4,26.1,0,28.4c4,2.4,24.5-9.6,24.5-9.6c1.2,1.1,2.8,1.8,4.6,1.8s3.4-0.7,4.6-1.8c0,0,21.1,12.4,24.5,9.6
					C1678.4,307.3,1679.3,282.7,1675.3,281.4z"/>
			</g>
		</g>
		<g id="glasses" class="st5">
			<g>
				<path class="st7" d="M1716.6,159.1c0-1-0.1-2-0.2-3c0-0.5-0.2-0.7-0.7-0.9c-0.3-0.1-0.6-0.2-0.9-0.2c-4.4-0.7-8.8-1.4-13.3-1.7
					c-3.6-0.3-7.1-0.4-10.7-0.6c-6.9-0.3-13.7-0.2-20.6,0.7c-4.2,0.5-8.3,1.3-12.3,2.6c-2,0.7-4,1.4-6.1,2.1c-3.2,1-6.4,1.5-9.7,0.8
					c-2-0.4-3.9-0.9-5.9-1.6c-3.5-1.1-6.9-2.3-10.6-2.9c-7-1.3-14.1-1.9-20.7-1.8c-5.4,0-10.2,0.2-15,0.8c-3.9,0.5-7.9,1-11.8,1.5
					c-0.8,0.1-1.7,0.4-2.5,0.6c-0.4,0.1-0.7,0.4-0.7,0.9c-0.1,2.3-0.2,4.7-0.2,7c0,0.4,0.1,0.7,0.1,1.1c0,0.3,0.2,0.5,0.5,0.6
					s0.6,0.3,0.9,0.5c1.3,0.9,1.9,2.3,2.4,3.7c0.4,1,0.6,2.1,0.9,3.1c0.2,0.6,0.4,1.3,0.6,1.9c0.7,3.1,1.3,6.1,2,9.2
					c0.7,2.9,1.5,5.8,2.9,8.4c1.5,3,3.7,5.3,6.9,6.6c1.9,0.8,3.9,1.3,5.9,1.6c3.6,0.6,7.2,0.6,10.9,0.4c3.7-0.3,7.3-0.8,10.9-1.9
					c2.6-0.8,5.1-1.9,7.2-3.7c3.2-2.8,5.8-6.1,7.8-9.9s3.4-7.8,4.6-11.9c0.4-1.2,0.7-2.3,1.1-3.5c0.6-1.7,1.8-2.7,3.6-3
					c0.6-0.1,1.2-0.1,1.7-0.1c1.3,0.1,2.6,0.4,3.5,1.5c0.4,0.5,0.8,1,1,1.6c0.5,1.1,1,2.3,1.3,3.4c1.6,5,3.7,9.8,6.3,14.4
					c2.2,3.8,5.1,6.8,8.9,9c2.7,1.5,5.6,2.4,8.6,3c4.5,0.9,9.1,1.1,13.7,0.9c2.8-0.1,5.5-0.5,8.2-1.3s5.2-2.2,7-4.5
					c1.2-1.5,2-3.2,2.7-4.9c1.5-3.7,2.5-7.6,3.3-11.4c0.4-1.9,0.9-3.8,1.3-5.7c0.2-1,0.5-2,0.8-2.9s0.5-1.9,1-2.6
					c0.6-0.8,1.2-1.6,2.1-1.9c0.4-0.2,0.6-0.4,0.7-0.9c0.1-0.3,0.1-0.6,0.1-0.9C1716.6,161.9,1716.6,160.5,1716.6,159.1z
					 M1580.7,160.5c-1.5,0-2.7-0.3-2.7-0.7s1.2-0.7,2.7-0.7s2.7,0.3,2.7,0.7S1582.2,160.5,1580.7,160.5z M1633.2,175.4
					c-1,4.1-2.5,7.9-4.6,11.6c-1.1,2-2.4,3.8-4.1,5.4c-2.2,2.1-4.8,3.3-7.7,4.1c-5.8,1.5-11.7,1.9-17.7,1c-1.2-0.2-2.3-0.5-3.5-0.8
					c-2.4-0.6-4.2-2-5.5-4.1c-1.5-2.3-2.4-4.8-3.1-7.4c-0.8-3.4-1.3-6.9-1.6-10.5c-0.2-2-0.2-4.1,0.1-6.1c0.1-1,0.2-2.1,0.4-3.1
					c0.8-3.6,3-5.8,6.5-6.8c3.2-0.8,6.5-1.3,9.8-1.6c2.4-0.2,4.9-0.3,6.5-0.4c5.6,0.1,10.3,0.4,15,1.5c1.9,0.4,3.8,0.8,5.5,1.8
					c0.9,0.5,1.7,1,2.4,1.6c1.2,1,1.9,2.4,2.1,4C1634.3,169,1633.9,172.2,1633.2,175.4z M1703.2,188.3c-0.7,1.9-1.7,3.6-3.1,5
					c-1.6,1.6-3.6,2.4-5.7,3c-2.7,0.7-5.4,0.9-8.1,0.9c-4.2,0-8.2-0.5-12.3-1.4c-4-0.9-7.2-3-9.8-6.2c-3.3-4.1-5.4-8.8-6.5-13.9
					c-0.5-2.4-1-4.8-0.9-7.2c0-1.1,0.1-2.1,0.3-3.2c0.5-2.6,2-4.3,4.4-5.2c2.4-1,4.9-1.6,7.4-2.1c2.8-0.6,5.6-1,8.4-1.2
					c2.2-0.1,4.4-0.2,5.9-0.3c5.9,0.3,11.1,0.7,16.2,2.2c0.9,0.3,1.8,0.7,2.7,1.1c0.8,0.4,1.5,1,1.9,1.9c0.5,0.9,0.9,1.8,1.3,2.8
					c0.4,1.1,0.5,2.3,0.6,3.5c0.1,1.9,0.2,3.8,0.1,5.7C1705.8,178.8,1704.9,183.6,1703.2,188.3z M1710.6,160.5
					c-1.5,0-2.7-0.3-2.7-0.7s1.2-0.7,2.7-0.7s2.7,0.3,2.7,0.7S1712.1,160.5,1710.6,160.5z"/>
			</g>
		</g>
	</g>
	<g>
		<path class="st6" d="M1603.7,197.3h-6.6v-14.1c0-1.7-0.3-3.1-0.9-3.9s-1.5-1.3-2.7-1.3c-1.7,0-2.9,0.6-3.7,1.9
			c-0.8,1.3-1.1,3.3-1.1,6.1v11.4h-6.6v-24.1h5l0.9,3.1h0.3c0.7-1.1,1.6-2,2.8-2.6c1.2-0.6,2.7-0.9,4.2-0.9c3.6,0,6.1,1.2,7.4,3.5
			h0.6c0.7-1.1,1.6-2,2.8-2.7c1.3-0.6,2.7-0.9,4.3-0.9c2.7,0,4.8,0.7,6.2,2.1c1.4,1.4,2.1,3.7,2.1,6.8v15.7h-6.6v-14.1
			c0-1.7-0.3-3.1-0.9-3.9c-0.6-0.9-1.5-1.3-2.7-1.3c-1.6,0-2.8,0.6-3.6,1.7c-0.8,1.1-1.2,3-1.2,5.5v12.2L1603.7,197.3L1603.7,197.3z
			"/>
		<path class="st6" d="M1636.5,197.8c-3.9,0-6.9-1.1-9.2-3.3s-3.3-5.2-3.3-9.2c0-4,1-7.2,3-9.4c2.1-2.2,4.8-3.3,8.4-3.3
			c3.4,0,6.1,0.9,8,2.9c1.9,2,2.8,4.6,2.8,8v3.2h-15.6c0.1,1.9,0.6,3.3,1.6,4.4c1,1,2.5,1.5,4.4,1.5c1.5,0,2.8-0.2,4.1-0.4
			c1.3-0.3,2.7-0.8,4-1.5v5.1c-1.1,0.6-2.4,1-3.7,1.3C1639.9,197.6,1638.4,197.8,1636.5,197.8z M1635.6,177.4
			c-1.4,0-2.5,0.4-3.3,1.4c-0.8,0.9-1.3,2.1-1.4,3.8h9.2c0-1.6-0.4-2.9-1.3-3.8C1638,177.8,1636.9,177.4,1635.6,177.4z"/>
		<path class="st6" d="M1662.6,197.8c-3.9,0-6.9-1.1-9.2-3.3s-3.3-5.2-3.3-9.2c0-4,1-7.2,3-9.4c2.1-2.2,4.8-3.3,8.4-3.3
			c3.4,0,6.1,0.9,8,2.9c1.9,2,2.8,4.6,2.8,8v3.2h-15.6c0.1,1.9,0.6,3.3,1.6,4.4c1,1,2.5,1.5,4.4,1.5c1.5,0,2.8-0.2,4.1-0.4
			c1.3-0.3,2.7-0.8,4-1.5v5.1c-1.1,0.6-2.4,1-3.7,1.3C1666.1,197.6,1664.5,197.8,1662.6,197.8z M1661.7,177.4
			c-1.4,0-2.5,0.4-3.3,1.4c-0.8,0.9-1.3,2.1-1.4,3.8h9.2c0-1.6-0.4-2.9-1.3-3.8C1664.2,177.8,1663.1,177.4,1661.7,177.4z"/>
		<path class="st6" d="M1688,192.4c1.1,0,2.6-0.3,4.1-0.8v4.9c-1.6,0.8-3.7,1.1-6.1,1.1c-2.7,0-4.5-0.7-5.7-2
			c-1.2-1.4-1.8-3.3-1.8-6v-11.6h-3.2v-2.8l3.6-2.2l1.9-5.1h4.2v5.1h6.8v5h-6.8v11.6c0,0.9,0.3,1.6,0.8,2.1
			C1686.5,192.3,1687.2,192.4,1688,192.4z"/>
		<path class="st6" d="M1721,179.5h12.6v16.3c-2.1,0.7-3.9,1.1-5.7,1.4c-1.8,0.3-3.6,0.4-5.5,0.4c-4.8,0-8.4-1.4-11-4.2
			c-2.5-2.8-3.8-6.8-3.8-12.1c0-5.1,1.5-9.1,4.4-11.9s6.9-4.3,12.2-4.3c3.3,0,6.3,0.7,9.4,2l-2.2,5.4c-2.3-1.1-4.7-1.7-7.2-1.7
			c-2.9,0-5.2,0.9-6.9,2.9c-1.7,2-2.7,4.5-2.7,7.9c0,3.4,0.7,6.1,2.1,7.9c1.4,1.8,3.4,2.7,6.2,2.7c1.4,0,2.8-0.2,4.3-0.4v-6.6h-6
			v-5.7L1721,179.5L1721,179.5z"/>
		<path class="st6" d="M1754.1,172.7c0.9,0,1.6,0.1,2.2,0.2l-0.5,6.2c-0.5-0.2-1.2-0.3-2-0.3c-2.1,0-3.8,0.5-4.9,1.6
			c-1.2,1.1-1.8,2.6-1.8,4.5v12.3h-6.6v-24.1h5l0.9,4h0.3c0.8-1.4,1.8-2.5,3-3.3C1751.3,173.1,1752.6,172.7,1754.1,172.7z"/>
		<path class="st6" d="M1771.6,197.8c-3.9,0-6.9-1.1-9.2-3.3c-2.2-2.1-3.3-5.2-3.3-9.2c0-4,1-7.2,3-9.4c2.1-2.2,4.8-3.3,8.4-3.3
			c3.4,0,6.1,0.9,8,2.9c1.9,2,2.8,4.6,2.8,8v3.2h-15.6c0.1,1.9,0.6,3.3,1.6,4.4c1,1,2.5,1.5,4.4,1.5c1.5,0,2.8-0.2,4.1-0.4
			c1.3-0.3,2.7-0.8,4-1.5v5.1c-1.1,0.6-2.4,1-3.7,1.3C1775.1,197.6,1773.5,197.8,1771.6,197.8z M1770.8,177.4
			c-1.4,0-2.5,0.4-3.3,1.4c-0.8,0.9-1.3,2.1-1.4,3.8h9.2c0-1.6-0.4-2.9-1.3-3.8C1773.3,177.8,1772.1,177.4,1770.8,177.4z"/>
		<path class="st6" d="M1807.9,173.1v3.3l-3.8,0.9c0.7,1.1,1,2.3,1,3.6c0,2.6-0.9,4.6-2.7,6.1c-1.8,1.5-4.3,2.1-7.5,2.1l-1.2-0.1
			l-0.9-0.1c-0.7,0.5-1,1.1-1,1.7c0,0.9,1.2,1.5,3.6,1.5h4.1c2.7,0,4.7,0.6,6.1,1.7s2.1,2.8,2.1,5c0,2.8-1.2,5-3.5,6.6
			c-2.4,1.5-5.7,2.3-10.2,2.3c-3.3,0-6-0.6-7.7-1.8c-1.8-1.2-2.7-2.8-2.7-5c0-1.5,0.4-2.7,1.4-3.7c0.9-0.9,2.2-1.7,4-2.1
			c-0.7-0.3-1.3-0.8-1.8-1.5s-0.8-1.4-0.8-2.1c0-0.9,0.3-1.7,0.8-2.3c0.5-0.6,1.3-1.2,2.3-1.8c-1.3-0.5-2.3-1.5-3-2.7
			s-1.1-2.7-1.1-4.3c0-2.7,0.9-4.7,2.6-6.1c1.7-1.5,4.2-2.1,7.4-2.1c0.7,0,1.5,0.1,2.4,0.2c0.9,0.1,1.5,0.2,1.8,0.3L1807.9,173.1
			L1807.9,173.1z M1789.3,200.7c0,0.9,0.4,1.6,1.3,2.1c0.9,0.5,2.1,0.8,3.7,0.8c2.4,0,4.2-0.3,5.6-0.9c1.4-0.7,2-1.5,2-2.7
			c0-0.9-0.4-1.5-1.2-1.9c-0.8-0.3-2.1-0.5-3.7-0.5h-3.4c-1.2,0-2.2,0.3-3,0.9C1789.7,199,1789.3,199.7,1789.3,200.7z M1791.7,181.1
			c0,1.3,0.3,2.3,0.9,3.1c0.6,0.8,1.5,1.1,2.7,1.1c1.2,0,2.1-0.3,2.7-1.1c0.6-0.8,0.9-1.8,0.9-3.1c0-2.9-1.2-4.4-3.6-4.4
			C1792.8,176.7,1791.7,178.2,1791.7,181.1z"/>
		<path class="st6" d="M1818.4,192.6c-0.8,2.9-2.1,6.3-3.8,10.4h-4.8c0.9-3.9,1.6-7.4,2.2-10.9h6.1L1818.4,192.6z"/>
		<path class="st6" d="M1266.3,250.4h-6.6v-14.1c0-3.5-1.3-5.2-3.9-5.2c-1.9,0-3.2,0.6-4,1.9s-1.2,3.3-1.2,6.1v11.4h-6.6v-33.6h6.6
			v6.8c0,0.5-0.1,1.8-0.2,3.8l-0.2,2h0.3c1.5-2.4,3.8-3.5,7-3.5c2.8,0,5,0.8,6.5,2.3c1.5,1.5,2.2,3.7,2.2,6.6L1266.3,250.4
			L1266.3,250.4z"/>
		<path class="st6" d="M1284.1,250.8c-3.9,0-6.9-1.1-9.2-3.3c-2.2-2.1-3.3-5.2-3.3-9.2c0-4,1-7.2,3-9.4c2.1-2.2,4.8-3.3,8.4-3.3
			c3.4,0,6.1,0.9,8,2.9s2.8,4.6,2.8,8v3.2h-15.5c0.1,1.9,0.6,3.3,1.6,4.4c1,1,2.5,1.5,4.4,1.5c1.5,0,2.8-0.2,4.1-0.4
			c1.3-0.3,2.7-0.8,4-1.5v5.1c-1.1,0.6-2.4,1-3.7,1.3C1287.5,250.7,1285.9,250.8,1284.1,250.8z M1283.1,230.4
			c-1.4,0-2.5,0.4-3.3,1.4c-0.8,0.9-1.3,2.1-1.4,3.8h9.2c0-1.6-0.4-2.9-1.3-3.8S1284.5,230.4,1283.1,230.4z"/>
		<path class="st6" d="M1304.7,218.8l-0.9,11.4h-4.3l-0.9-11.4H1304.7z"/>
		<path class="st6" d="M1327.9,243.2c0,2.5-0.9,4.4-2.6,5.6c-1.7,1.3-4.3,2-7.7,2c-1.8,0-3.3-0.1-4.5-0.3c-1.2-0.3-2.4-0.6-3.5-1
			V244c1.2,0.6,2.6,1,4.1,1.5c1.5,0.4,2.9,0.6,4,0.6c2.4,0,3.6-0.7,3.6-2.1c0-0.5-0.2-0.9-0.5-1.3c-0.3-0.3-0.9-0.7-1.6-1.1
			c-0.8-0.4-1.8-0.9-3.1-1.5c-1.9-0.8-3.3-1.5-4.1-2.1c-0.9-0.7-1.5-1.5-1.9-2.3c-0.4-0.9-0.6-1.9-0.6-3.2c0-2.1,0.9-3.8,2.5-5
			c1.6-1.2,4-1.8,7.1-1.8c2.9,0,5.7,0.6,8.5,1.9l-2,4.8c-1.2-0.5-2.3-0.9-3.4-1.3c-1.1-0.3-2.1-0.5-3.3-0.5c-2,0-2.9,0.5-2.9,1.5
			c0,0.6,0.3,1.1,0.9,1.5c0.6,0.4,2,1.1,4.1,1.9c1.9,0.8,3.3,1.5,4.1,2.1s1.5,1.5,2,2.3C1327.7,241,1327.9,242,1327.9,243.2z"/>
		<path class="st6" d="M1366.8,250.4h-6.6v-14.1c0-1.7-0.3-3.1-0.9-3.9c-0.6-0.9-1.6-1.3-3-1.3c-1.9,0-3.2,0.6-4,1.9
			c-0.9,1.2-1.2,3.3-1.2,6.2v11.4h-6.6v-24.1h5l0.9,3.1h0.3c0.8-1.2,1.7-2.1,3-2.7c1.3-0.6,2.7-0.9,4.4-0.9c2.8,0,5,0.8,6.4,2.3
			c1.5,1.5,2.2,3.7,2.2,6.6L1366.8,250.4L1366.8,250.4z"/>
		<path class="st6" d="M1395.6,238.3c0,3.9-1,7-3.1,9.2c-2.1,2.2-5,3.3-8.6,3.3c-2.3,0-4.4-0.5-6.2-1.5c-1.8-1-3.2-2.5-4.1-4.4
			c-0.9-1.9-1.5-4.1-1.5-6.7c0-3.9,1-7,3.1-9.2c2.1-2.2,5-3.3,8.7-3.3c2.3,0,4.4,0.5,6.2,1.5s3.2,2.5,4.1,4.4
			C1395.2,233.6,1395.6,235.8,1395.6,238.3z M1378.9,238.3c0,2.4,0.4,4.2,1.2,5.4s2.1,1.8,3.9,1.8c1.8,0,3-0.6,3.8-1.8
			s1.2-3,1.2-5.5c0-2.4-0.4-4.2-1.2-5.4s-2.1-1.8-3.9-1.8c-1.8,0-3,0.6-3.8,1.8S1378.9,235.8,1378.9,238.3z"/>
		<path class="st6" d="M1411.2,245.6c1.1,0,2.6-0.3,4.1-0.8v4.9c-1.6,0.8-3.7,1.1-6.1,1.1c-2.7,0-4.5-0.7-5.7-2
			c-1.2-1.4-1.8-3.3-1.8-6v-11.6h-3.2v-2.8l3.6-2.2l1.9-5.1h4.2v5.1h6.8v5h-6.8v11.6c0,0.9,0.3,1.6,0.8,2.1
			C1409.7,245.3,1410.4,245.6,1411.2,245.6z"/>
		<path class="st6" d="M1447.1,250.4l-1.3-3.3h-0.2c-1.1,1.4-2.2,2.4-3.4,2.9c-1.2,0.5-2.7,0.8-4.6,0.8c-2.3,0-4.1-0.7-5.5-2
			c-1.4-1.3-2-3.3-2-5.6c0-2.6,0.9-4.5,2.7-5.6c1.8-1.2,4.5-1.9,8.1-2.1l4.2-0.2v-1c0-2.5-1.3-3.7-3.8-3.7c-2,0-4.2,0.6-6.8,1.7
			l-2.2-4.5c2.7-1.5,5.9-2.2,9.2-2.2c3.3,0,5.7,0.7,7.4,2.1c1.7,1.5,2.6,3.6,2.6,6.4v16.1L1447.1,250.4L1447.1,250.4z M1445.1,239.2
			l-2.6,0.1c-1.9,0.1-3.3,0.4-4.3,1c-0.9,0.6-1.4,1.6-1.4,2.9c0,1.9,1,2.8,3.2,2.8c1.5,0,2.7-0.4,3.7-1.3s1.4-2.1,1.4-3.5V239.2z"/>
		<path class="st6" d="M1480.8,250.4h-6.6v-14.1c0-1.7-0.3-3.1-0.9-3.9c-0.6-0.9-1.6-1.3-3-1.3c-1.9,0-3.2,0.6-4,1.9
			c-0.9,1.2-1.2,3.3-1.2,6.2v11.4h-6.6v-24.1h5l0.9,3.1h0.3c0.8-1.2,1.7-2.1,3-2.7c1.3-0.6,2.7-0.9,4.4-0.9c2.8,0,5,0.8,6.4,2.3
			c1.5,1.5,2.2,3.7,2.2,6.6L1480.8,250.4L1480.8,250.4z"/>
		<path class="st6" d="M1521,238.3c0,3.9-1,7-3.1,9.2c-2.1,2.2-5,3.3-8.6,3.3c-2.3,0-4.4-0.5-6.2-1.5c-1.8-1-3.2-2.5-4.1-4.4
			c-0.9-1.9-1.5-4.1-1.5-6.7c0-3.9,1-7,3.1-9.2c2.1-2.2,5-3.3,8.7-3.3c2.3,0,4.4,0.5,6.2,1.5c1.8,1,3.2,2.5,4.1,4.4
			C1520.6,233.6,1521,235.8,1521,238.3z M1504.4,238.3c0,2.4,0.4,4.2,1.2,5.4c0.8,1.2,2.1,1.8,3.9,1.8c1.8,0,3-0.6,3.8-1.8
			s1.2-3,1.2-5.5c0-2.4-0.4-4.2-1.2-5.4s-2.1-1.8-3.9-1.8c-1.8,0-3,0.6-3.8,1.8C1504.8,234,1504.4,235.8,1504.4,238.3z"/>
		<path class="st6" d="M1540,225.8c0.9,0,1.6,0.1,2.2,0.2l-0.5,6.2c-0.5-0.2-1.2-0.3-2-0.3c-2.1,0-3.8,0.5-4.9,1.6
			c-1.2,1.1-1.8,2.6-1.8,4.5v12.3h-6.6v-24.1h5l0.9,4h0.3c0.8-1.4,1.8-2.5,3-3.3C1537.1,226.2,1538.5,225.8,1540,225.8z"/>
		<path class="st6" d="M1554.2,250.8c-2.8,0-5-1.1-6.7-3.3c-1.6-2.2-2.4-5.2-2.4-9.2c0-3.9,0.9-7,2.5-9.2c1.6-2.2,3.9-3.3,6.8-3.3
			c3.1,0,5.4,1.2,6.9,3.5h0.3c-0.3-1.8-0.5-3.4-0.5-4.8v-7.7h6.6v33.6h-5l-1.3-3.2h-0.3C1559.6,249.6,1557.3,250.8,1554.2,250.8z
			 M1556.6,245.6c1.7,0,2.9-0.5,3.7-1.5c0.8-0.9,1.2-2.7,1.3-5v-0.7c0-2.6-0.4-4.5-1.2-5.6s-2.1-1.7-3.9-1.7c-1.5,0-2.7,0.6-3.4,1.9
			c-0.9,1.3-1.2,3.1-1.2,5.5c0,2.4,0.4,4.2,1.2,5.4C1553.9,245,1555,245.6,1556.6,245.6z"/>
		<path class="st6" d="M1574.4,220c0-2.1,1.2-3.3,3.6-3.3c2.4,0,3.6,1.1,3.6,3.3c0,1-0.3,1.8-0.9,2.4c-0.6,0.6-1.5,0.9-2.7,0.9
			C1575.6,223.3,1574.4,222.1,1574.4,220z M1581.2,250.4h-6.6v-24.1h6.6V250.4z"/>
		<path class="st6" d="M1610.5,250.4h-6.6v-14.1c0-1.7-0.3-3.1-0.9-3.9c-0.6-0.9-1.6-1.3-3-1.3c-1.9,0-3.2,0.6-4,1.9
			c-0.9,1.2-1.2,3.3-1.2,6.2v11.4h-6.6v-24.1h5l0.9,3.1h0.3c0.8-1.2,1.7-2.1,3-2.7c1.3-0.6,2.7-0.9,4.4-0.9c2.8,0,5,0.8,6.4,2.3
			c1.5,1.5,2.2,3.7,2.2,6.6L1610.5,250.4L1610.5,250.4z"/>
		<path class="st6" d="M1632.6,250.4l-1.3-3.3h-0.2c-1.1,1.4-2.2,2.4-3.4,2.9c-1.2,0.5-2.7,0.8-4.6,0.8c-2.3,0-4.1-0.7-5.5-2
			s-2-3.3-2-5.6c0-2.6,0.9-4.5,2.7-5.6c1.8-1.2,4.5-1.9,8.1-2.1l4.2-0.2v-1c0-2.5-1.3-3.7-3.8-3.7c-2,0-4.2,0.6-6.8,1.7l-2.2-4.5
			c2.7-1.5,5.9-2.2,9.2-2.2c3.3,0,5.7,0.7,7.4,2.1c1.7,1.5,2.6,3.6,2.6,6.4v16.1L1632.6,250.4L1632.6,250.4z M1630.7,239.2l-2.6,0.1
			c-1.9,0.1-3.3,0.4-4.3,1c-0.9,0.6-1.4,1.6-1.4,2.9c0,1.9,1,2.8,3.2,2.8c1.5,0,2.7-0.4,3.7-1.3c0.9-0.9,1.4-2.1,1.4-3.5V239.2z"/>
		<path class="st6" d="M1657.5,225.8c0.9,0,1.6,0.1,2.2,0.2l-0.5,6.2c-0.5-0.2-1.2-0.3-2-0.3c-2.1,0-3.8,0.5-4.9,1.6
			c-1.2,1.1-1.8,2.6-1.8,4.5v12.3h-6.6v-24.1h5l0.9,4h0.3c0.8-1.4,1.8-2.5,3-3.3C1654.5,226.2,1655.9,225.8,1657.5,225.8z"/>
		<path class="st6" d="M1660.6,226.3h7.2l4.5,13.6c0.4,1.2,0.7,2.6,0.8,4.2h0.2c0.2-1.5,0.4-2.9,0.9-4.2l4.5-13.6h7.1l-10.2,27.3
			c-0.9,2.5-2.3,4.5-4,5.6c-1.7,1.3-3.8,1.9-6.1,1.9c-1.1,0-2.2-0.1-3.3-0.3v-5.2c0.8,0.2,1.6,0.3,2.6,0.3c1.2,0,2.2-0.3,3.1-1.1
			c0.9-0.8,1.5-1.8,2.1-3.3l0.4-1.2L1660.6,226.3z"/>
		<path class="st6" d="M1707.4,250.4h-6.6v-33.6h6.6V250.4z"/>
		<path class="st6" d="M1720.9,250.4h-6.6v-33.6h6.6V250.4z"/>
		<path class="st6" d="M1743.1,250.4l-1.3-3.3h-0.2c-1.1,1.4-2.2,2.4-3.4,2.9c-1.2,0.5-2.7,0.8-4.6,0.8c-2.3,0-4.1-0.7-5.5-2
			s-2-3.3-2-5.6c0-2.6,0.9-4.5,2.7-5.6c1.8-1.2,4.5-1.9,8.1-2.1l4.2-0.2v-1c0-2.5-1.3-3.7-3.8-3.7c-2,0-4.2,0.6-6.8,1.7l-2.2-4.5
			c2.7-1.5,5.9-2.2,9.2-2.2c3.3,0,5.7,0.7,7.4,2.1c1.7,1.5,2.6,3.6,2.6,6.4v16.1L1743.1,250.4L1743.1,250.4z M1741.2,239.2l-2.6,0.1
			c-1.9,0.1-3.3,0.4-4.3,1c-0.9,0.6-1.4,1.6-1.4,2.9c0,1.9,1,2.8,3.2,2.8c1.5,0,2.7-0.4,3.7-1.3s1.4-2.1,1.4-3.5V239.2z"/>
		<path class="st6" d="M1776.2,250.4h-6.6v-14.1c0-1.7-0.3-3.1-0.9-3.9c-0.6-0.9-1.5-1.3-2.7-1.3c-1.7,0-2.9,0.6-3.7,1.9
			c-0.8,1.3-1.1,3.3-1.1,6.1v11.4h-6.6v-24.1h5l0.9,3.1h0.3c0.7-1.1,1.6-2,2.8-2.6c1.2-0.6,2.7-0.9,4.2-0.9c3.6,0,6.1,1.2,7.4,3.5
			h0.6c0.7-1.1,1.6-2,2.8-2.7c1.3-0.6,2.7-0.9,4.3-0.9c2.7,0,4.8,0.7,6.2,2.1c1.4,1.4,2.1,3.7,2.1,6.8v15.7h-6.6v-14.1
			c0-1.7-0.3-3.1-0.9-3.9c-0.6-0.9-1.5-1.3-2.7-1.3c-1.6,0-2.8,0.6-3.6,1.7c-0.8,1.1-1.2,3-1.2,5.5v12.2L1776.2,250.4L1776.2,250.4z
			"/>
		<path class="st6" d="M1813.3,250.4l-1.3-3.3h-0.2c-1.1,1.4-2.2,2.4-3.4,2.9c-1.2,0.5-2.7,0.8-4.6,0.8c-2.3,0-4.1-0.7-5.5-2
			c-1.4-1.3-2-3.3-2-5.6c0-2.6,0.9-4.5,2.7-5.6c1.8-1.2,4.5-1.9,8.1-2.1l4.2-0.2v-1c0-2.5-1.3-3.7-3.8-3.7c-2,0-4.2,0.6-6.8,1.7
			l-2.2-4.5c2.7-1.5,5.9-2.2,9.2-2.2c3.3,0,5.7,0.7,7.4,2.1c1.7,1.5,2.6,3.6,2.6,6.4v16.1L1813.3,250.4L1813.3,250.4L1813.3,250.4z
			 M1811.4,239.2l-2.6,0.1c-1.9,0.1-3.3,0.4-4.3,1c-0.9,0.6-1.4,1.6-1.4,2.9c0,1.9,1,2.8,3.2,2.8c1.5,0,2.7-0.4,3.7-1.3
			c0.9-0.9,1.4-2.1,1.4-3.5V239.2z"/>
	</g>
	<text id="hidden-text" transform="matrix(1 0 0 1 1013.0454 288.901)" class="st9 st10 st11">he is not an ordinary llama</text>
	<path id="llama_back" class="st12" d="M1931.6,496.9c22.4,37.6,31.2,51.6,31.7,51.3c0.1,0-0.1-0.4-0.1-0.4
		c18.5,58.6,17.5,90.7,17.6,138.5c10.6-0.5,11.8,0.2,22.3-0.3c0-35.9,2.9-86.9,2.9-121.4c0-0.6,11.7,11.9,11.7,11.4
		c-0.5,35.7-2,74.2-2.5,109.9c10.7-0.9,13,0.5,23.7-0.3c0-53.2,24.8-104.7,24.8-146.2c2.1,0.9,4,1.9,6.1,2.7
		c-2.1-6.8-4.3-13.7-6.5-20.5c0-3,0-5.8,0-8.8c2.2,0.9,4.6,1.5,6.8,2.4c-0.9-17.1-1.5-34.4-2.4-51.5c2.7,0.5,5.6,0.9,8.3,1.5
		c-2.7-13.4-5.3-26.8-8-40.2c14.9,0,21.2-9.2,31-9.2c-2.2-2.2-4.6-4.5-6.8-6.8c1.1-2.7,2.1-5.6,3.3-8.2c-4-0.9-8-1.9-12-2.7
		c0-3.1,0-6.1,0-9.2c-11.6,3-30.5,4.8-28.3,2.7c-4.5-10.1-11.8-19-25.8-34.2c-8.6-13.9-12.6-36.5-19.9-36.9
		C1995.3,319.7,1964.7,357.1,1931.6,496.9z"/>
	<g id="logos">
		<g>
			<polygon class="st13" points="2114.3,579.4 1289.5,579.4 1194.9,547.1 2117.3,547.1 			"/>
		</g>
		<rect x="1194.9" y="320.6" class="st14" width="922.4" height="226.6"/>
		<g id="skills">
			<g id="logos_inside">
				<g>
					<path class="st6" d="M1459.3,470.7c-3.3-0.8-6.4-1.5-9.7-2.1c-5.2,1.9-10.5,5-18.7,3.6c-17.3-2.9-36.3-19.1-30.1-42
						c1.5-5.7,4.8-9.6,7-14.2c1.3-1.3,2.6-2.6,3.9-3.9c-2-1-5.7-0.8-8.6-0.8c-7.6,3-12.8,3.7-17.1,9.6c-8.6,11.8-5.7,31.6,1.2,43.2
						c12.9,21.8,45.3,37.8,74.6,20.2c5.7-3.4,13.4-8.1,16.1-14.4c0.3-0.3,0.5-0.5,0.8-0.8c0-0.1,0-0.2,0-0.3
						C1473.3,469.9,1466.4,471.9,1459.3,470.7z M1424.7,464.7c5.7,1.5,12.3,1.5,18.5,0.5c0.1-0.2,0.2-0.3,0.3-0.5
						c-7.8-5.7-6.3-18.1-11.3-25.7C1429.4,447.3,1424.4,453.1,1424.7,464.7z M1417.9,414.4c-9.6,8.6-17.1,22.6-8,37.7
						c1.7,2.8,3.9,6.5,7,8c0.3,0.3,0.5,0.5,0.8,0.8c4.9-9.1,6.8-19,12.8-26.9C1429.6,426.9,1423.8,416.8,1417.9,414.4z
						 M1451.4,460.8c23.2-14.8,10.7-52.1-19.3-51.6c-2.1,0.5-4.4,0.9-6.5,1.5c2.5,3.8,5.1,7.5,7,12
						C1437.5,434.7,1439.5,456.4,1451.4,460.8z M1484.8,417.4c-8.2-19.3-25.4-34.1-53.5-33.6c-7.6,0.6-9.2,1.2-13.3,2.4
						c-11.6,3.6-21.1,11-27.5,19.9c6.8-2.7,15.2-5.6,24.3-2.7c1.8,0.9,3.5,1.9,5.3,2.9c2.2-0.8,4.5-1.5,6.8-2.1
						c4.7-1.2,11.6-1,16.1,0.3c14.5,3.9,30.3,20.1,25.1,41.1c-1.6,6.6-5.5,10.3-8,15.4c-0.5,0.5-0.9,0.9-1.5,1.5
						c6.4,0.3,12.3,0.1,17.1-1.9C1490.4,454.2,1491.5,433.1,1484.8,417.4z"/>
				</g>
				<g>
					<circle class="st6" cx="1840.4" cy="431.4" r="9.8"/>
					<path class="st15" d="M1840.4,411.6c13.1,0,25.2,1.9,34.3,5c11,3.8,17.8,9.6,17.8,14.7c0,5.4-7.2,11.6-19,15.5
						c-9,3-20.7,4.5-33.1,4.5c-12.8,0-24.7-1.5-33.8-4.5c-11.5-3.9-18.3-10.1-18.3-15.4c0-5.1,6.5-10.9,17.4-14.6
						C1814.8,413.5,1827.3,411.6,1840.4,411.6z"/>
					<path class="st15" d="M1823.2,421.5c6.5-11.3,14.2-20.9,21.5-27.2c8.8-7.6,17.2-10.6,21.7-8c4.7,2.7,6.4,12,3.9,24.2
						c-1.9,9.2-6.4,20.2-12.7,31c-6.3,11-13.6,20.7-20.8,27c-9.1,8-17.9,10.9-22.5,8.2c-4.5-2.6-6.2-11-4-22.3
						C1812.1,444.7,1816.6,433,1823.2,421.5z"/>
					<path class="st15" d="M1823.2,441.5c-6.5-11.3-11-22.8-12.8-32.3c-2.2-11.5-0.7-20.2,3.9-22.8c4.7-2.7,13.6,0.4,22.9,8.7
						c7,6.2,14.3,15.7,20.5,26.4c6.3,11,11.1,22.2,13,31.5c2.3,11.9,0.4,21-4.2,23.6c-4.5,2.6-12.7-0.2-21.4-7.7
						C1837.8,462.7,1829.8,452.9,1823.2,441.5z"/>
				</g>
				<g>
					<g>
						<path class="st6" d="M1271,450.3c-3.1,0-5.5-0.9-7-2.7c-1.5-1.8-2.4-4.4-2.4-7.8c0-3.4,0.9-6.1,2.5-8c1.7-1.9,4.1-2.8,7.3-2.8
							c2.1,0,4.1,0.4,5.8,1.2l-1.3,3.5c-1.8-0.7-3.3-1.1-4.5-1.1c-3.5,0-5.3,2.3-5.3,7c0,2.3,0.4,4,1.3,5.1s2.1,1.7,3.9,1.7
							c2,0,3.8-0.5,5.5-1.5v3.8c-0.8,0.4-1.6,0.8-2.5,0.9C1273.3,450.2,1272.3,450.3,1271,450.3z"/>
						<path class="st6" d="M1288.7,450h-4.4v-28.8h4.4V450z"/>
						<path class="st6" d="M1295.6,459c-1.3,0-2.4-0.2-3.3-0.4v-3.4c0.9,0.3,1.7,0.3,2.6,0.3c1.9,0,2.8-1,2.8-3.2v-22.9h4.4v23.1
							c0,2.1-0.6,3.7-1.6,4.8C1299.3,458.5,1297.7,459,1295.6,459z M1297.5,424.1c0-0.8,0.3-1.4,0.6-1.8c0.4-0.4,1-0.6,1.8-0.6
							s1.4,0.3,1.8,0.6c0.4,0.4,0.6,1,0.6,1.8s-0.3,1.3-0.6,1.8c-0.4,0.4-1,0.6-1.8,0.6s-1.4-0.3-1.8-0.6
							C1297.7,425.5,1297.5,424.9,1297.5,424.1z"/>
						<path class="st6" d="M1324.8,444.1c0,2-0.8,3.5-2.1,4.6c-1.5,1.1-3.5,1.6-6.2,1.6c-2.7,0-4.9-0.4-6.6-1.3v-3.8
							c2.4,1.1,4.6,1.6,6.7,1.6c2.7,0,4-0.8,4-2.4c0-0.5-0.2-0.9-0.4-1.3c-0.3-0.3-0.8-0.7-1.5-1.1c-0.7-0.4-1.6-0.8-2.8-1.3
							c-2.3-0.9-3.9-1.8-4.8-2.7c-0.9-0.9-1.3-2.1-1.3-3.5c0-1.8,0.7-3.1,2.1-4.1c1.5-0.9,3.3-1.5,5.7-1.5c2.4,0,4.6,0.5,6.8,1.5
							l-1.5,3.3c-2.2-0.9-4-1.4-5.6-1.4c-2.3,0-3.4,0.7-3.4,2c0,0.6,0.3,1.2,0.9,1.6c0.6,0.4,1.9,1,3.9,1.8c1.7,0.7,2.9,1.3,3.7,1.8
							s1.3,1.2,1.7,1.9C1324.6,442.3,1324.8,443.2,1324.8,444.1z"/>
					</g>
					<path class="st6" d="M1289.3,481.1c-22.3-2-39.8-20.7-39.8-43.6s17.5-41.5,39.8-43.5v-4.9c-25,2-44.7,22.9-44.7,48.4
						c0,25.5,19.7,46.5,44.7,48.4V481.1z"/>
					<path class="st6" d="M1297.2,389.2v4.9c22.3,2,39.8,20.7,39.8,43.6c0,22.9-17.5,41.6-39.8,43.6v4.9c25-2,44.7-22.9,44.7-48.4
						C1341.8,412.1,1322.1,391.2,1297.2,389.2z"/>
				</g>
				<path class="st6" d="M1576.6,486.8c-1.4,0-2.7-0.3-3.9-1l-12.5-7.4c-1.9-1-0.9-1.5-0.3-1.6c2.5-0.9,3-1,5.6-2.6
					c0.3-0.2,0.7-0.1,0.9,0.1l9.6,5.7c0.3,0.2,0.9,0.2,1.2,0l37.5-21.7c0.3-0.2,0.6-0.6,0.6-1V414c0-0.4-0.3-0.9-0.6-1l-37.5-21.7
					c-0.3-0.2-0.8-0.2-1.1,0l-37.5,21.7c-0.3,0.2-0.6,0.6-0.6,1v43.3c0,0.4,0.3,0.8,0.6,1l10.3,5.9c5.6,2.8,9-0.5,9-3.8v-42.7
					c0-0.6,0.5-1.1,1.1-1.1h4.8c0.6,0,1.1,0.5,1.1,1.1v42.7c0,7.4-4,11.7-11.1,11.7c-2.1,0-3.9,0-8.6-2.3l-9.8-5.6
					c-2.4-1.4-3.9-4-3.9-6.8v-43.3c0-2.8,1.5-5.5,3.9-6.8l37.5-21.7c2.4-1.4,5.6-1.4,7.9,0l37.5,21.7c2.4,1.4,3.9,4,3.9,6.8v43.3
					c0,2.8-1.5,5.4-3.9,6.8l-37.5,21.7C1579.3,486.4,1578,486.8,1576.6,486.8z M1606.9,444.1c0-8.1-5.5-10.3-17-11.8
					c-11.6-1.5-12.8-2.3-12.8-5c0-2.2,1-5.2,9.6-5.2c7.7,0,10.5,1.6,11.7,6.8c0.1,0.5,0.5,0.9,1,0.9h4.9c0.3,0,0.6-0.2,0.8-0.3
					c0.2-0.3,0.3-0.5,0.3-0.9c-0.8-9-6.7-13.1-18.7-13.1c-10.7,0-17,4.5-17,12.1c0,8.2,6.3,10.4,16.6,11.5c12.2,1.2,13.3,3,13.3,5.4
					c0,4.2-3.3,6-11.3,6c-9.9,0-12.1-2.5-12.8-7.4c-0.1-0.5-0.5-0.9-1.1-0.9h-4.9c-0.6,0-1.1,0.5-1.1,1.1c0,6.3,3.4,13.9,19.9,13.9
					C1600,457,1606.9,452.4,1606.9,444.1z M1623.3,400.2v0.8h2.1v5.6h0.9V401h2.1v-0.8H1623.3z M1629.1,406.6h0.8v-3.7
					c0-0.2,0-0.3,0-0.7s0-0.5,0-0.7v-0.3l1.8,5.3h0.9l1.8-5.3c0,0.3,0,0.7,0,0.9c0,0.3,0,0.5,0,0.6v3.7h0.8v-6.2h-1.2l-1.8,5.3
					l-1.8-5.3h-1.2V406.6z"/>
				<g id="Group-10" transform="translate(113.000000, 69.000000)">
					<path id="Fill-2" class="st6" d="M1571.5,421c-6.4,0-12.1-1.6-16.3-4.8c-5.2-3.9-8-9.7-8-16.7c0-8.2,7.4-13.9,13.9-18.8
						c2.7-2.1,7.3-5.6,8-7.2c2.7-6.2,3.9-9-1.3-28c-1.5-5.6-1.5-13.4,7.4-19.3c0-6.2,0.4-13.1,3.2-16.3c0.5-0.6,2.1-2.5,4.5-2.5
						c2.1,0,3.4,1.3,4.4,2.3c1,1,1.8,1.8,3.4,1.8c0.8,0,1.6-0.2,2.6-0.4c4.3-1.3,8-3.9,11.4-6.3c3.5-2.5,6.2-4.5,9.2-4.5
						c1.1,0,2.1,0.3,3.1,0.9c2.3,1.4,3.5,4.5,4,10c0.3,2.8,0.3,6.2,0.2,10.3c4.1,1.5,7.1,3.6,9.2,6.4c2.7,3.8,3.3,8.6,1.7,13.4
						c-6,17.9-3.7,25.2-1.6,31.8c2,6.2,4.2,13.2-3.1,23.2c-4.9,6.6-10.4,8-14.7,9.1c-3.8,0.9-7.6,1.9-13.5,6.4
						C1591.4,417.3,1580.9,421,1571.5,421"/>
					<path id="Fill-4" class="st16" d="M1604.5,331.7c-2.1,0-3.7-2.7-3.7-5.9s1.6-5.9,3.7-5.9s3.7,2.7,3.7,5.9
						C1608.3,329.1,1606.6,331.7,1604.5,331.7 M1587.2,331.9c-0.9,0-1.7-1.5-1.7-3.2c0-1.8,0.8-3.2,1.7-3.2c0.9,0,1.7,1.5,1.7,3.2
						C1588.9,330.6,1588.1,331.9,1587.2,331.9 M1628.7,340.1c1.6-4.9,0.3-8.3-1.2-10.3c-2.1-3-5.8-4.8-9.8-5.9
						c0.4-8.4,0.3-18.2-2.4-19.9c-3.8-2.3-10.8,7.4-20.9,10.4c-10.1,2.9-9.3-6.8-13.3-2.2c-2.1,2.4-2.5,9.2-2.3,16
						c-5.4,3.1-9.8,8-7.5,16.4c5.6,20.2,4.1,23.6,1.1,30.3c-1.1,2.5-5.3,5.7-9.1,8.6c-6.2,4.7-12.6,9.6-12.6,16.1
						c0,5.9,2.3,10.7,6.6,13.9c3.6,2.7,8.6,4.1,14.3,4.1c8.6,0,18.4-3.3,25.4-8.7c6.4-5,10.9-6.1,14.8-7c4.3-1,8.6-2.1,12.8-7.7
						c6.2-8.6,4.5-14.2,2.6-20.1C1624.9,367.3,1622.3,359.1,1628.7,340.1"/>
					<path id="Fill-6" class="st6" d="M1586.1,402.9c-12.7,8.2-28.9,4.2-31.2-3.3c0.1,17.9,25.4,16.9,39.5,6
						c14.2-11,20.3-5,26.8-13.9c3.4-4.7,3.9-8,3.3-11.5C1622.3,389.4,1598.2,395.1,1586.1,402.9"/>
					<path id="Fill-8" class="st6" d="M1617.3,328.1c-0.3,4.6-0.8,8-0.9,8.2c-1.5,3.7-16.6,4.7-21.7,5c-5.8,0.4-7.2,20.3-8.6,28.2
						c-1.2,6.4-6.1-22.9-6.6-26.9c-0.2-1.5-0.5-5.2-0.8-9.8c-4.5,3.3-4.7,6.8-3.7,10.5c5.7,20.8,4.4,25.2,0.9,33
						c-2.6,5.8-13.2,11.3-18.4,17c2.6,3.5,10.3,11.6,24.1,4.4c15.4-8,37.2-16.2,39.9-27.8c-1.5-6.5-2.1-15.7,3.1-31.3
						C1626.7,333,1623.1,329.8,1617.3,328.1"/>
				</g>
			</g>
		</g>
	</g>
	<g id="lama_1_">
		<g id="body_1_">
			<g>
				<path class="st6" d="M1865.8,340.9"/>
				<path class="st6" d="M2053.7,326.5c-8-7.4-16.2-14.7-24.2-22.1c-8-7.4-16.2-14.7-24.2-22.1c1.3-1.9,2.4-3.8,3.7-5.6
					c-84.6,0-22.2-144-63.7-185.5c2.1-1.2,13.8-33.9,13.8-33.9s-15.1-25.2-29.9-25.2c-2,0-9.7,0.3-11.6,0.3
					c0,13.9,15.4,31.8,15.4,51.8c-13.1,0.2-26.3,0.3-39.4,0.4c0-17.8,8.6-37.5,8.6-55.8c-19.9,0-27.5,15.5-31.9,31.6
					c0,13.7,13.7,20.9,13.7,25.8c-9.2,6-12.8,13.8-15.8,21.8c0,52.5,12,128.5-6.5,175.9c-0.3,1.5-0.7,3.1-1,4.5
					c7.5-1.4,9.3-1.5,9.3-1.4c0.1,0.4-15.5,2.3-29.3,12.7c-4.2,3.2-8.1,7-7.5,8.1c0.9,1.5,10.4-3.4,11.2-1.9
					c0.9,1.5-11,3.1-18.1,8.1c-4.3,3,13.4,0.3,13.8,1.3c0.6,1.7,0,0.3,0,0c-0.1-0.5-33.5,5.6-47.2,16.1c-5.6,4.4-7.1,10.2-6,20.2
					c8.9,53.1,5.6,77.3,16.3,85.6l26.3-6.8c0,0-3.4-16.8-9.3-31.2c-3.7-8.9-12.9-41-5-50.6c9.8-11.9,37.2-15.6,37.4-14.7
					c0.1,0.4,12.3,2.3,12.3,2.3c-1.1,3.9,3.9,22.3,2.1,11.1c-1-6.3,10.8-14.8,11.9-14.4c1.4,0.5-11.9,14.4-8.1,24.4
					c0,0,18.7-11.8,16.9-8.7c-6.4,10.6-0.7,20.5,0,20.6c0.8,0.2,6.1-7.5,12.3-15c3-3.7,8,4,8.3,2.5c2.2-9.3-4.4-21.2-4.4-21.2
					c1.8-1.4,4.4,8.4,8.1,12.5c14.5,15.9,19.6,15.6,19.9,15.6c0.3,0-5.6-17.5,0.2-22.5c1.7-1.5,3.6,8.8,6.2,8.7
					c2.3-0.1-0.1-10.8,5.6-16.3c4.5-4.4,13.3-4.7,15-1.9c2.5,4.1-11.1,12-19.3,26.3c-13.7,23.6-11.1,62.3,9.3,76.9l31-12.9
					c1.9-4.5-1.9-1.5-18-23.1c-11.1-15.1-6.6-19-5.6-25.1c2.2-12.6,16.7-21.4,33.7-23.8c9.5-1.4,17.9,0.1,21.8-5.6
					c2.4-3.5,3-9.5,2.2-14.3c-0.9-5.1-2.9-6.6-2.2-8.1C2012.8,319,2021,318.1,2053.7,326.5z"/>
			</g>
		</g>
		<g id="head_1_">
			<g id="eye1_1_">
				<g>
					<ellipse class="st17" cx="1886" cy="136.1" rx="5.1" ry="5.1"/>
				</g>
			</g>
			<g id="eye2_1_">
				<g>
					<ellipse class="st17" cx="1946.6" cy="136.1" rx="5.1" ry="5.1"/>
				</g>
			</g>
			<g id="mouth_2_">
				<g id="Elipsa_3_1_">
					<g>
						<path class="st18" d="M1916.2,130c-10.6,0-16.9,9.7-16.4,21.6c0.5,11.9,6,21.6,16.4,21.6c10.6,0,15.4-9.4,15.4-21.3
							S1926.7,130,1916.2,130z"/>
					</g>
				</g>
				<g id="smile_1_">
					<g>
						<path class="st17" d="M1921.4,148.4c-3.3,1.5-9.2,0-10.5,0c-2.2,0.1-4.8-3.1-4.8-3.1v0.8c0,0,2.1,3.9,4.8,3.9
							c2.9,0,7.8,0.9,10.5-0.8c2.4-1.5,3.6-3,3.6-3v-0.8C1925,145.4,1924,147.2,1921.4,148.4z"/>
					</g>
				</g>
				<g id="face_1_" class="st3">
					<g class="st5">
						<path class="st17" d="M1864,344.3c-5,0.8-10,1.1-15.1,0.8c-0.3,0-1.5,0.4-0.9,0.4c5.3,0.2,10.5-0.1,15.7-0.9
							C1864.1,344.5,1864.8,344.1,1864,344.3L1864,344.3z"/>
					</g>
				</g>
				<g id="cheek_1_" class="st3">
					<g class="st5">
						<path class="st17" d="M1863.5,341.1c-0.5,3.6,0.7,6.3,2,9.7c0.2,0.3,1.5,0,1.3-0.3c-1.3-3.3-2.5-6-2-9.6
							C1864.8,340.6,1863.5,340.8,1863.5,341.1L1863.5,341.1z"/>
					</g>
				</g>
				<g id="noseline_1_">
					<g>
						<polygon class="st17" points="1915.2,137.9 1915.2,148.5 1916,148.5 1916,137.9 						"/>
					</g>
				</g>
				<g id="nose_1_">
					<g>
						<path class="st17" d="M1915.7,133.6c-4.2,0-7.6,2.2-7.6,5.1s3.7,3.3,7.9,3.3c4.2,0,7.4-0.5,7.4-3.3S1919.9,133.6,1915.7,133.6
							z"/>
					</g>
				</g>
			</g>
		</g>
		<g id="tie_1_">
			<g>
				<path class="st17" d="M1945,228.6c-3.7-1.2-21.7,9.2-21.7,9.2c-1.1-1.2-2.7-1.9-4.5-1.9c-1.8,0-3.4,0.7-4.5,1.9
					c0,0-18.1-11-21.6-8.9c-3.4,2-3.6,23.4,0,25.5c3.6,2.1,22-8.6,22-8.6c1.1,1,2.5,1.6,4.1,1.6c1.6,0,3.1-0.6,4.1-1.6
					c0,0,18.9,11.1,22,8.6C1947.8,251.8,1948.6,229.7,1945,228.6z"/>
			</g>
		</g>
		<g id="glasses_1_">
			<g>
				<path class="st17" d="M1979.6,124.6c0-0.9-0.1-1.8-0.2-2.7c0-0.4-0.2-0.6-0.6-0.8c-0.3-0.1-0.5-0.2-0.8-0.2
					c-3.9-0.6-7.9-1.3-11.9-1.5c-3.3-0.3-6.3-0.3-9.6-0.5c-6.2-0.3-12.3-0.2-18.5,0.6c-3.8,0.4-7.4,1.2-11,2.3
					c-1.8,0.6-3.6,1.3-5.5,1.9c-2.9,0.9-5.7,1.4-8.7,0.7c-1.8-0.3-3.5-0.8-5.3-1.5c-3.2-1-6.2-2.1-9.5-2.6
					c-6.2-1.2-12.7-1.7-18.6-1.6c-4.9,0-9.2,0.2-13.4,0.7c-3.5,0.4-7.1,0.9-10.6,1.4c-0.7,0.1-1.5,0.3-2.2,0.5
					c-0.3,0.1-0.6,0.3-0.6,0.8c-0.1,2.1-0.2,4.2-0.2,6.2c0,0.3,0.1,0.6,0.1,1c0,0.3,0.2,0.4,0.4,0.5c0.3,0.1,0.5,0.3,0.8,0.4
					c1.2,0.8,1.7,2.1,2.1,3.3c0.3,0.9,0.5,1.9,0.8,2.7c0.2,0.5,0.3,1.2,0.5,1.7c0.6,2.7,1.2,5.5,1.8,8.2c0.6,2.6,1.4,5.2,2.6,7.5
					c1.4,2.7,3.3,4.8,6.2,5.9c1.7,0.7,3.5,1.2,5.3,1.5c3.3,0.5,6.4,0.5,9.8,0.3c3.3-0.3,6.5-0.7,9.8-1.7c2.3-0.7,4.5-1.7,6.4-3.3
					c2.9-2.5,5.2-5.5,7-8.9c1.8-3.4,3.1-7,4.1-10.7c0.3-1.1,0.6-2.1,1-3.2c0.5-1.5,1.6-2.4,3.3-2.7c0.5-0.1,1.1-0.1,1.5-0.1
					c1.2,0.1,2.3,0.3,3.2,1.4c0.3,0.4,0.7,0.9,0.9,1.5c0.4,1,0.9,2.1,1.2,3.1c1.5,4.5,3.3,8.8,5.6,12.9c2,3.4,4.5,6.1,8,8
					c2.4,1.4,5,2.1,7.7,2.7c4,0.8,8.1,1,12.3,0.8c2.5-0.1,5-0.4,7.4-1.2c2.4-0.7,4.6-2,6.2-4c1.1-1.4,1.8-2.9,2.4-4.4
					c1.4-3.3,2.2-6.8,3-10.2c0.3-1.7,0.8-3.4,1.2-5.1c0.2-0.9,0.4-1.8,0.7-2.6c0.3-0.8,0.4-1.7,0.9-2.3c0.5-0.7,1.1-1.5,1.9-1.7
					c0.3-0.2,0.5-0.3,0.6-0.8c0.1-0.3,0.1-0.5,0.1-0.8C1979.6,127.1,1979.6,125.9,1979.6,124.6z M1857.7,125.9
					c-1.4,0-2.4-0.3-2.4-0.6s1.1-0.6,2.4-0.6s2.4,0.3,2.4,0.6S1859.1,125.9,1857.7,125.9z M1904.8,139.2c-0.9,3.7-2.2,7.1-4.1,10.4
					c-1,1.8-2.1,3.4-3.7,4.9c-2,1.9-4.3,3-6.9,3.7c-5.2,1.4-10.5,1.7-15.8,0.9c-1.1-0.2-2.1-0.4-3.2-0.7c-2.1-0.5-3.8-1.8-5-3.7
					c-1.4-2.1-2.1-4.3-2.7-6.7c-0.7-3.1-1.2-6.2-1.5-9.4c-0.2-1.8-0.2-3.7,0.1-5.5c0.1-0.9,0.2-1.9,0.3-2.7c0.7-3.3,2.7-5.2,5.8-6.1
					c2.9-0.7,5.8-1.2,8.8-1.5c2.1-0.2,4.4-0.3,5.8-0.3c5,0.1,9.2,0.3,13.4,1.4c1.7,0.3,3.4,0.7,5,1.6c0.8,0.4,1.5,0.9,2.1,1.5
					c1.1,0.9,1.7,2.1,1.9,3.6C1905.7,133.5,1905.4,136.3,1904.8,139.2z M1967.5,150.8c-0.6,1.7-1.5,3.3-2.7,4.5
					c-1.5,1.5-3.3,2.1-5.1,2.7c-2.4,0.6-4.9,0.8-7.3,0.8c-3.8,0-7.4-0.4-11-1.3c-3.6-0.8-6.4-2.7-8.8-5.6c-3-3.7-4.9-7.9-5.8-12.5
					c-0.4-2.1-0.9-4.3-0.8-6.4c0-1,0.1-1.9,0.3-2.9c0.4-2.3,1.8-3.9,3.9-4.6c2.1-0.9,4.4-1.5,6.7-1.9c2.5-0.5,5-0.9,7.5-1.1
					c2-0.1,3.9-0.2,5.3-0.3c5.3,0.3,9.9,0.6,14.5,2c0.8,0.3,1.6,0.6,2.4,1c0.7,0.3,1.4,0.9,1.7,1.7c0.4,0.8,0.8,1.6,1.2,2.5
					c0.3,1,0.4,2.1,0.5,3.2c0.1,1.7,0.2,3.4,0.1,5.1C1969.9,142.2,1969.1,146.6,1967.5,150.8z M1974.2,125.9c-1.4,0-2.4-0.3-2.4-0.6
					s1.1-0.6,2.4-0.6s2.4,0.3,2.4,0.6S1975.6,125.9,1974.2,125.9z"/>
			</g>
		</g>
	</g>
	<g id="top">
		<g id="bg">
			<polygon class="st13" points="575.3,290.8 3,290.8 0,255.9 646.1,255.9 			"/>
			
				<rect x="0" y="68.3" transform="matrix(-1 -2.878465e-11 2.878465e-11 -1 645.6775 324.2825)" class="st14" width="645.7" height="187.6"/>
		</g>
		<g id="logo">
			<g id="x">
				<g id="bracket_1_">
					<g>
						<path class="st19" d="M586.6,137.2c-2.2-6.9-5.5-13.1-9.8-18.7c-4.3-5.6-8.9-9.7-14-12.2l-2.5,4.9c3.8,2.3,4.5,4.9,7.9,9.9
							c3.4,5.1,6,10.7,8,17.1c1.9,6.4,2.9,13,2.9,19.9c0,7.6-1,14.7-2.9,21.2c-1.9,6.5-4.5,12.2-7.9,17.1c-3.3,4.9-5.4,6.3-8,10
							l2.5,4.7c5.2-2.6,9.9-6.7,14.2-12.3c4.3-5.6,7.5-11.8,9.7-18.6c2.2-6.7,3.3-13.8,3.3-21.1C590,151.2,588.8,144,586.6,137.2z"
							/>
					</g>
				</g>
				<g id="X">
					<g>
						<g class="st20">
							<path class="st6" d="M555.9,194.8h-13.6l-18.1-29.6L506,194.8h-12.7l24-37.5l-22.4-34.8H508l16.7,27.3l16.7-27.3h12.8
								l-22.6,35L555.9,194.8z"/>
						</g>
					</g>
				</g>
				<g id="bracket">
					<g>
						<path class="st19" d="M472.1,179.5c-1.9-6.5-2.9-13.6-2.9-21.2c0-6.9,1-13.5,2.9-19.9c1.9-6.4,4.5-12.1,8-17.2
							c3.4-5.1,4.1-7.7,7.9-9.9l-2.5-4.9c-5.1,2.6-9.7,6.7-14,12.3c-4.3,5.6-7.5,11.8-9.8,18.7c-2.2,6.9-3.4,14.2-3.4,21.8
							c0,7.3,1.1,14.4,3.3,21.2c2.2,6.8,5.4,13,9.7,18.6c4.3,5.6,9,9.7,14.2,12.4l2.5-4.7c-2.5-3.7-4.7-5.1-8-10
							C476.6,191.7,474,185.9,472.1,179.5z"/>
					</g>
				</g>
			</g>
			<g id="lambda">
				<g id="λ_1_">
					<g>
						<path class="st19" d="M111.2,184.1l-1,0.1l-1.9-0.1c-1.9-0.2-3.5-1.9-4.9-4.9l-24.4-58.2c-1.2-2.9-2.9-5.1-5.2-6.6
							c-2.3-1.5-5.5-2.2-9.7-2.2c-2.7,0-5.2,0.3-7.4,0.8l0.2,9.7l1.6-0.1h2c2.8,0.1,4.8,1.5,6.1,4.2l5.2,11.6l-22.1,55.6h15.2
							L79,155.8l11.6,28.4c1.6,3.9,3.6,6.7,5.8,8.3c2.2,1.6,5.4,2.4,9.6,2.4c2,0,3.8-0.2,5.4-0.6L111.2,184.1z"/>
					</g>
				</g>
				<g>
					<path class="st6" d="M156.3,194.8l-2.3-7.6h-0.4c-2.6,3.3-5.3,5.6-8,6.8s-6.1,1.8-10.3,1.8c-5.4,0-9.5-1.5-12.6-4.3
						c-3-2.9-4.5-7-4.5-12.3c0-5.6,2.1-9.9,6.3-12.7c4.2-2.9,10.6-4.4,19.1-4.7l9.4-0.3v-2.9c0-3.5-0.8-6.1-2.5-7.9
						c-1.6-1.7-4.2-2.6-7.6-2.6c-2.8,0-5.5,0.4-8,1.2c-2.6,0.8-5.1,1.8-7.4,2.9l-3.8-8.3c3-1.6,6.2-2.8,9.7-3.5
						c3.5-0.8,6.9-1.2,10-1.2c7,0,12.2,1.5,15.7,4.5s5.3,7.8,5.3,14.3v36.8L156.3,194.8L156.3,194.8z M139,186.9
						c4.2,0,7.6-1.2,10.2-3.5c2.5-2.4,3.8-5.7,3.8-9.9v-4.7l-7,0.3c-5.4,0.2-9.4,1.1-12,2.8c-2.5,1.6-3.7,4.1-3.7,7.5
						c0,2.4,0.7,4.3,2.2,5.7C133.9,186.3,136.1,186.9,139,186.9z"/>
					<path class="st6" d="M226.9,194.8h-11.7v-33.7c0-4.2-0.8-7.3-2.4-9.4c-1.6-2.1-4-3.1-7.4-3.1c-4.5,0-7.7,1.5-9.9,4.4
						c-2.1,2.9-3.1,7.7-3.1,14.5v27.2h-11.6v-54.6h9.1l1.6,7.2h0.6c1.5-2.6,3.7-4.6,6.6-6c2.9-1.4,6.1-2.1,9.5-2.1
						c8.4,0,14,2.9,16.7,8.6h0.8c1.6-2.7,3.9-4.8,6.8-6.3c2.9-1.5,6.3-2.2,10.1-2.2c6.5,0,11.3,1.6,14.3,4.9s4.5,8.3,4.5,15v35.7
						h-11.6v-33.7c0-4.2-0.8-7.3-2.4-9.4c-1.6-2.1-4.1-3.1-7.4-3.1c-4.5,0-7.8,1.4-9.9,4.2c-2.1,2.8-3.1,7.1-3.1,13L226.9,194.8
						L226.9,194.8z"/>
					<path class="st6" d="M305.5,139.2c6.8,0,12.1,2.5,15.9,7.4c3.8,4.9,5.7,11.9,5.7,20.8c0,9-1.9,15.9-5.8,20.9s-9.2,7.5-16.1,7.5
						c-6.9,0-12.3-2.5-16.1-7.5h-0.8l-2.1,6.5h-8.7v-76.9h11.6v18.3c0,1.3-0.1,3.4-0.2,6c-0.1,2.7-0.2,4.4-0.3,5.1h0.5
						C292.9,141.9,298.3,139.2,305.5,139.2z M302.5,148.7c-4.7,0-8,1.4-10.1,4.1c-2.1,2.8-3.1,7.4-3.2,13.8v0.8
						c0,6.7,1.1,11.5,3.1,14.4c2.1,3,5.6,4.5,10.3,4.5c4.1,0,7.2-1.6,9.4-4.9c2.1-3.3,3.2-8,3.2-14.2
						C315.3,154.9,311,148.7,302.5,148.7z"/>
					<path class="st6" d="M359.1,195.9c-6.8,0-12.1-2.5-15.9-7.4c-3.8-4.9-5.7-11.9-5.7-20.8c0-9,1.9-15.9,5.8-20.9
						c3.9-5,9.2-7.5,16.1-7.5c7.2,0,12.6,2.6,16.4,8h0.6c-0.6-3.9-0.8-7-0.8-9.3v-20h11.7v76.9H378l-2-7.2h-0.6
						C371.7,193.1,366.2,195.9,359.1,195.9z M362.2,186.4c4.8,0,8.3-1.3,10.4-4c2.2-2.7,3.3-7,3.4-13.1v-1.6
						c0-6.9-1.1-11.8-3.4-14.7c-2.2-2.9-5.7-4.3-10.5-4.3c-4.1,0-7.2,1.6-9.4,4.9c-2.2,3.3-3.3,8-3.3,14.2c0,6.1,1.1,10.7,3.2,13.9
						C354.7,184.9,357.9,186.4,362.2,186.4z"/>
					<path class="st6" d="M437.9,194.8l-2.3-7.6h-0.4c-2.6,3.3-5.3,5.6-8,6.8c-2.7,1.2-6.1,1.8-10.3,1.8c-5.4,0-9.5-1.5-12.6-4.3
						c-3-2.9-4.5-7-4.5-12.3c0-5.6,2.1-9.9,6.3-12.7c4.2-2.9,10.6-4.4,19.1-4.7l9.4-0.3v-2.9c0-3.5-0.8-6.1-2.5-7.9
						s-4.2-2.6-7.6-2.6c-2.8,0-5.5,0.4-8,1.2c-2.6,0.8-5.1,1.8-7.4,2.9l-3.8-8.3c3-1.6,6.2-2.8,9.7-3.5c3.5-0.8,6.9-1.2,10-1.2
						c7,0,12.2,1.5,15.7,4.5c3.5,3,5.3,7.8,5.3,14.3v36.8L437.9,194.8L437.9,194.8z M420.6,186.9c4.2,0,7.6-1.2,10.2-3.5
						c2.5-2.4,3.8-5.7,3.8-9.9v-4.7l-7,0.3c-5.4,0.2-9.4,1.1-12,2.8c-2.5,1.6-3.7,4.1-3.7,7.5c0,2.4,0.7,4.3,2.2,5.7
						C415.6,186.3,417.7,186.9,420.6,186.9z"/>
				</g>
			</g>
		</g>
	</g>
</g>
</svg>
