<?xml version="1.0" encoding="utf-8"?>
<!-- Generator: Adobe Illustrator 19.2.0, SVG Export Plug-In . SVG Version: 6.00 Build 0)  -->
<svg version="1.1" id="greg-svg" xmlns="http://www.w3.org/2000/svg" xmlns:xlink="http://www.w3.org/1999/xlink" x="0px" y="0px"
	 viewBox="0 0 2117.3 952.4" style="enable-background:new 0 0 2117.3 952.4;" xml:space="preserve">
<style type="text/css">
	.st0{fill:#88B4E0;}
	.st1{fill:#89BF40;}
	.st2{fill:#7EAD41;}
	.st3{display:none;}
	.st4{display:inline;fill:#FFFFFF;}
	.st5{fill:#FFFFFF;}
	.st6{fill:#242424;}
	.st7{fill:#EAEAEA;}
	.st8{display:inline;}
	.st9{display:none;fill:#3F4A52;enable-background:new    ;}
	.st10{font-family:'OpenSans';}
	.st11{font-size:37.0706px;}
	.st12{display:none;fill:#3F4A52;}
	.st13{fill:none;stroke:#FFFFFF;stroke-width:3;stroke-miterlimit:10;}
	.st14{fill:#404B54;}
	.st15{fill:#0973B9;}
	.st16{enable-background:new    ;}
	.st17{fill:#404B53;}
</style>
<g id="foreground">
	<polygon class="st0" points="0,0 2117.3,0 2117.3,835.2 1.5,835.2 	"/>
	<path class="st1" d="M2117.3,952.4V557.3c0,0-282.4-19.2-494.1-12.2c-211.8,7-617.7,54.5-775.9,89.6
		C805.3,644,543.5,715.3,329.6,798C147.9,868,6.2,952.4,6.2,952.4H2117.3z"/>
	<path class="st2" d="M6.2,952.4h2111.8c79.2,3.3-919.4-217.4-1340-256.3C660.9,685.3,99.4,634.7,6.2,674.9
		C6.2,674.9,3.1,944.6,6.2,952.4z"/>
	<g id="clouds" class="st3">
		<path id="cloud1" class="st4" d="M-156.4,75.5h553.7c0,0,75-71.6,0-63S272.9,43.7,272.9,43.7s88.5-76.2,17-80.6
			c-57.9-3.6-49.4,22.1-49.4,22.1s6.8-80.1-27.3-64.7c-34.1,15.3-69.9,63.2-69.9,63.2c18.7,10.2,0,0,0,0c8.6-24.2-25.1-6.8-25.1-6.8
			c14.7-13.8,42.1-78.6-12.4-73.4C51.3-91.4-1.5-62.4,3.6-43.7C8.7-25,83.7-200.4-18.5-145.9S-71.3-52.5-62.8-40.4
			s-71.6-50.9-71.6-13.5s56.2,90.3,56.2,90.3s-42.6-69.9-71.6-42.6C-178.5,20.9-156.4,75.5-156.4,75.5z"/>
		<path id="cloud2" class="st4" d="M435.5-156.6h329.2c0,0,44.6-42.5,0-37.5c-44.6,5.1-74,18.5-74,18.5s52.6-45.3,10.1-47.9
			c-34.4-2.1-29.4,13.2-29.4,13.2s4.1-47.6-16.2-38.5s-41.6,37.6-41.6,37.6c11.1,6.1,0,0,0,0c5.1-14.4-14.9-4-14.9-4
			c8.7-8.2,25.1-46.7-7.4-43.7c-32.4,3-63.8,20.3-60.8,31.4c3,11.1,47.6-93.2-13.2-60.8s-31.4,55.5-26.3,62.7
			c5.1,7.2-42.5-30.3-42.5-8s33.4,53.7,33.4,53.7s-25.3-41.5-42.5-25.3S435.5-156.6,435.5-156.6z"/>
		<path id="cloud3" class="st4" d="M940.6-26.2h442.7c0,0,59.9-57.2,0-50.4s-99.4,24.9-99.4,24.9s70.7-60.9,13.6-64.4
			c-46.3-2.9-39.5,17.7-39.5,17.7s5.4-64-21.8-51.8c-27.2,12.3-55.9,50.5-55.9,50.5c15,8.2,0,0,0,0c6.8-19.3-20-5.4-20-5.4
			c11.8-11,33.7-62.8-9.9-58.7c-43.6,4.1-85.8,27.2-81.7,42.2s64-125.3-17.7-81.7s-42.2,74.7-35.4,84.3c6.8,9.7-57.2-40.7-57.2-10.8
			s45,72.2,45,72.2s-34.1-55.8-57.2-34.1C922.9-69.8,940.6-26.2,940.6-26.2z"/>
	</g>
	<g id="lama">
		<g id="body">
			<g>
				<path class="st5" d="M1700.5,496.9c18.7,0,26.7-11.6,38.9-11.6c-2.8-2.8-5.8-5.7-8.6-8.5c1.4-3.5,2.7-7,4.1-10.3
					c-5-1.2-10-2.3-15.1-3.5c0-3.9,0-7.6,0-11.5c-14.6,3.7-29.1,7.3-43.7,11.1c2.7-2.6,5.4-5,8.1-7.6c-14,2.2-27.9,4.4-42,6.4
					c2.3-2.3,4.6-4.6,7-7c-12.4,0.4-24.7,0.8-37.1,1.2c0.6-2.7,1.2-5.4,1.8-8.1c-13,1.8-26,3.5-39.1,5.3c0.6-1,1.2-1.9,1.8-3
					c-12.9,2.7-25.6,5.4-38.5,8.1c1.8-2.7,3.5-5.4,5.3-8.1c-121.6,0-31.8-206.8-91.4-266.3c3.1-1.7,19.8-48.7,19.8-48.7
					s-21.8-36.2-42.9-36.2c-2.8,0-13.9,0.5-16.7,0.5c0,20.1,22.1,45.7,22.1,74.3c-18.8,0.3-37.7,0.4-56.5,0.6
					c0-25.6,12.2-53.8,12.2-80.1c-28.6,0-39.4,22.3-45.8,45.3c0,19.7,19.7,30,19.7,37c-13.3,8.6-18.4,19.8-22.8,31.3
					c0,75.3,17.3,184.5-9.4,252.5c-0.5,2.2-1,4.4-1.4,6.6c4.5-0.6,9-1.3,13.4-1.9c0,0-16.2,35.9-16.2,48.8c3.5-4.5,7-8.9,10.6-13.4
					c-2.7,15.7-5.4,31.4-8.1,47.1c2.7-1.8,5.3-3.6,8-5.3c-2.2,17.1-4.2,34.1-6.4,51.3c3.3-4.2,6.6-8.5,9.9-12.7c0,9.7,0,19.4,0,29.1
					c2.4,0,5,0,7.5,0c-3.3,12.2-6.6,24.5-9.9,36.7c3.5-4.6,7-9.3,10.4-14c5.8,23.6,11.7,47,17.5,70.6c-1,44-1.9,88.2-3,132.2
					c16.9-0.4,33.9-0.8,50.7-1.2c1.9-36.7-0.9-87,0.9-129.3c0.5-13,5.5-23.6,6.2-34.9c1.9,11.2,10.3,22.9,12.4,35.9
					c6.2,40,6.2,86.7,12.1,121c10.7-1.2,21.4-2.3,31.9-3.5c1.5-52.4,3.1-104.9,4.6-157.4c7.6,1,15.1,1.9,22.7,3
					c4.2,6.2,8.5,12.4,12.9,18.5c1.9,0,3.9,0,5.7,0c0.4-5.4,0.8-10.8,1.2-16.2c4.1,7.3,8.1,14.7,12.2,22.1
					c-0.6-5.8-1.2-11.6-1.8-17.4c6.6,4.5,13.1,8.9,19.8,13.4c-3-10-5.8-20.2-8.8-30.4c7.3-2.7,24.5-0.6,22.1-8.1
					c23.2,73.5,21.9,113.8,22.1,173.7c13.3-0.6,14.8,0.3,27.9-0.4c0-44.9,3.6-108.9,3.6-152.2c0-0.8,6.2,13.8,6.2,13.1
					c-0.6,44.8,6.1,94.3,5.4,139.1c13.4-1,16.4,0.6,29.7-0.4c0-66.8,31.2-131.3,31.2-183.4c2.6,1.2,5,2.3,7.6,3.5
					c-2.7-8.5-5.4-17.1-8.1-25.6c0-3.7,0-7.3,0-11.1c2.8,1,5.8,1.9,8.6,3c-1-21.5-1.9-43.1-3-64.6c3.5,0.6,7,1.2,10.4,1.8
					C1707.1,530.5,1703.9,513.8,1700.5,496.9z"/>
			</g>
		</g>
		<g id="head">
			<g id="eye1">
				<g>
					<ellipse class="st6" cx="1367" cy="248" rx="7.3" ry="7.3"/>
				</g>
			</g>
			<g id="eye2">
				<g>
					<ellipse class="st6" cx="1454" cy="248" rx="7.3" ry="7.3"/>
				</g>
			</g>
			<g id="mouth_1_">
				<g id="Elipsa_3">
					<g>
						<path class="st7" d="M1410.3,239.1c-15.2,0-24.3,13.9-23.6,31s8.6,31,23.6,31c15.2,0,22.1-13.5,22.1-30.6
							S1425.3,239.1,1410.3,239.1z"/>
					</g>
				</g>
				<g id="smile" class="st3">
					<g class="st8">
						<path class="st6" d="M1417.7,265.5c-4.6,2.1-13.3,0-15.1,0c-3.2,0.1-6.8-4.4-6.8-4.4v1.2c0,0,3.1,5.5,6.8,5.5
							c4.1,0,11.2,1.3,15.1-1.2c3.5-2.1,5.2-4.2,5.2-4.2v-1.2C1422.9,261.3,1421.6,263.8,1417.7,265.5z"/>
					</g>
				</g>
				<g id="face">
					<g>
						<path class="st6" d="M1419.3,265.8c-7.2,1.2-14.4,1.5-21.8,1.2c-0.4,0-2.1,0.6-1.3,0.6c7.6,0.3,15.1-0.1,22.7-1.3
							C1419.5,266.2,1420.6,265.5,1419.3,265.8L1419.3,265.8z"/>
					</g>
				</g>
				<g id="cheek">
					<g>
						<path class="st6" d="M1418.6,261.3c-0.8,5.2,1,9.1,2.8,13.9c0.3,0.5,2.1,0,1.8-0.5c-1.8-4.8-3.6-8.6-2.8-13.8
							C1420.6,260.5,1418.8,260.8,1418.6,261.3L1418.6,261.3z"/>
					</g>
				</g>
				<g id="noseline">
					<g>
						<polygon class="st6" points="1408.8,250.6 1408.8,265.8 1410,265.8 1410,250.6 						"/>
					</g>
				</g>
				<g id="nose">
					<g>
						<path class="st6" d="M1409.6,244.3c-6.1,0-10.9,3.2-10.9,7.3c0,4.1,5.3,4.8,11.3,4.8c6.1,0,10.6-0.8,10.6-4.8
							C1420.6,247.6,1415.7,244.3,1409.6,244.3z"/>
					</g>
				</g>
			</g>
		</g>
		<g id="tie">
			<g>
				<path class="st6" d="M1447.7,384.8c-5.3-1.7-31.2,13.1-31.2,13.1c-1.5-1.7-3.9-2.7-6.4-2.7s-4.9,1-6.4,2.7c0,0-26-15.7-31-12.7
					c-4.9,2.8-5.2,33.6,0,36.6c5.2,3.1,31.5-12.4,31.5-12.4c1.5,1.4,3.6,2.3,5.9,2.3s4.4-0.9,5.9-2.3c0,0,27.2,16,31.5,12.4
					C1451.7,418.1,1452.9,386.4,1447.7,384.8z"/>
			</g>
		</g>
		<g id="glasses">
			<g>
				<path class="st6" d="M1500.9,227.3c0-1.3-0.1-2.6-0.3-3.9c0-0.6-0.3-0.9-0.9-1.2c-0.4-0.1-0.8-0.3-1.2-0.3
					c-5.7-0.9-11.3-1.8-17.1-2.2c-4.6-0.4-9.1-0.5-13.8-0.8c-8.9-0.4-17.6-0.3-26.5,0.9c-5.4,0.6-10.7,1.7-15.8,3.3
					c-2.6,0.9-5.2,1.8-7.9,2.7c-4.1,1.3-8.2,1.9-12.5,1c-2.6-0.5-5-1.2-7.6-2.1c-4.5-1.4-8.9-3-13.6-3.7c-9-1.7-18.2-2.4-26.7-2.3
					c-7,0-13.1,0.3-19.3,1c-5,0.6-10.2,1.3-15.2,1.9c-1,0.1-2.2,0.5-3.2,0.8c-0.5,0.1-0.9,0.5-0.9,1.2c-0.1,3-0.3,6.1-0.3,9
					c0,0.5,0.1,0.9,0.1,1.4c0,0.4,0.3,0.6,0.6,0.8c0.4,0.1,0.8,0.4,1.2,0.6c1.7,1.2,2.4,3,3.1,4.8c0.5,1.3,0.8,2.7,1.2,4
					c0.3,0.8,0.5,1.7,0.8,2.4c0.9,4,1.7,7.9,2.6,11.8c0.9,3.7,1.9,7.5,3.7,10.8c1.9,3.9,4.8,6.8,8.9,8.5c2.4,1,5,1.7,7.6,2.1
					c4.6,0.8,9.3,0.8,14,0.5c4.8-0.4,9.4-1,14-2.4c3.3-1,6.6-2.4,9.3-4.8c4.1-3.6,7.5-7.9,10-12.7c2.6-4.9,4.4-10,5.9-15.3
					c0.5-1.5,0.9-3,1.4-4.5c0.8-2.2,2.3-3.5,4.6-3.9c0.8-0.1,1.5-0.1,2.2-0.1c1.7,0.1,3.3,0.5,4.5,1.9c0.5,0.6,1,1.3,1.3,2.1
					c0.6,1.4,1.3,3,1.7,4.4c2.1,6.4,4.8,12.6,8.1,18.5c2.8,4.9,6.6,8.8,11.5,11.6c3.5,1.9,7.2,3.1,11.1,3.9
					c5.8,1.2,11.7,1.4,17.6,1.2c3.6-0.1,7.1-0.6,10.6-1.7c3.5-1,6.7-2.8,9-5.8c1.5-1.9,2.6-4.1,3.5-6.3c1.9-4.8,3.2-9.8,4.2-14.7
					c0.5-2.4,1.2-4.9,1.7-7.3c0.3-1.3,0.6-2.6,1-3.7s0.6-2.4,1.3-3.3c0.8-1,1.5-2.1,2.7-2.4c0.5-0.3,0.8-0.5,0.9-1.2
					c0.1-0.4,0.1-0.8,0.1-1.2C1500.9,230.9,1500.9,229.1,1500.9,227.3z M1325.9,229.1c-1.9,0-3.5-0.4-3.5-0.9s1.5-0.9,3.5-0.9
					c1.9,0,3.5,0.4,3.5,0.9S1327.8,229.1,1325.9,229.1z M1393.5,248.3c-1.3,5.3-3.2,10.2-5.9,14.9c-1.4,2.6-3.1,4.9-5.3,7
					c-2.8,2.7-6.2,4.2-9.9,5.3c-7.5,1.9-15.1,2.4-22.8,1.3c-1.5-0.3-3-0.6-4.5-1c-3.1-0.8-5.4-2.6-7.1-5.3c-1.9-3-3.1-6.2-4-9.5
					c-1-4.4-1.7-8.9-2.1-13.5c-0.3-2.6-0.3-5.3,0.1-7.9c0.1-1.3,0.3-2.7,0.5-4c1-4.6,3.9-7.5,8.4-8.8c4.1-1,8.4-1.7,12.6-2.1
					c3.1-0.3,6.3-0.4,8.4-0.5c7.2,0.1,13.3,0.5,19.3,1.9c2.4,0.5,4.9,1,7.1,2.3c1.2,0.6,2.2,1.3,3.1,2.1c1.5,1.3,2.4,3.1,2.7,5.2
					C1394.9,240,1394.4,244.1,1393.5,248.3z M1483.7,264.9c-0.9,2.4-2.2,4.6-4,6.4c-2.1,2.1-4.6,3.1-7.3,3.9
					c-3.5,0.9-7,1.2-10.4,1.2c-5.4,0-10.6-0.6-15.8-1.8c-5.2-1.2-9.3-3.9-12.6-8c-4.2-5.3-7-11.3-8.4-17.9c-0.6-3.1-1.3-6.2-1.2-9.3
					c0-1.4,0.1-2.7,0.4-4.1c0.6-3.3,2.6-5.5,5.7-6.7c3.1-1.3,6.3-2.1,9.5-2.7c3.6-0.8,7.2-1.3,10.8-1.5c2.8-0.1,5.7-0.3,7.6-0.4
					c7.6,0.4,14.3,0.9,20.9,2.8c1.2,0.4,2.3,0.9,3.5,1.4c1,0.5,1.9,1.3,2.4,2.4c0.6,1.2,1.2,2.3,1.7,3.6c0.5,1.4,0.6,3,0.8,4.5
					c0.1,2.4,0.3,4.9,0.1,7.3C1487,252.6,1485.8,258.8,1483.7,264.9z M1493.2,229.1c-1.9,0-3.5-0.4-3.5-0.9s1.5-0.9,3.5-0.9
					c1.9,0,3.5,0.4,3.5,0.9S1495.1,229.1,1493.2,229.1z"/>
			</g>
		</g>
	</g>
	<text id="hidden-text" transform="matrix(1 0 0 1 1013.0454 288.901)" class="st9 st10 st11">he is not an ordinary llama</text>
	<g id="logos">
		<rect x="1" y="275" class="st12" width="638.9" height="137.7"/>
		<g id="skills">
			<g id="logos_inside">
				<g>
					<path class="st5" d="M904,449.9c-2.6-0.6-5.2-1.2-7.8-1.7c-4.2,1.5-8.5,4-15.1,2.9c-13.9-2.3-29.2-15.4-24.2-33.8
						c1.2-4.6,3.9-7.7,5.6-11.4c1-1,2.1-2.1,3.1-3.1c-1.6-0.8-4.6-0.6-7-0.6c-6.1,2.4-10.3,3-13.8,7.7c-7,9.5-4.6,25.4,1,34.8
						c10.4,17.6,36.4,30.4,60,16.3c4.6-2.8,10.7-6.5,12.9-11.6c0.2-0.2,0.4-0.4,0.6-0.6c0-0.1,0-0.1,0-0.2
						C915.2,449.2,909.6,450.8,904,449.9z M876.1,445c4.6,1.2,9.9,1.2,14.9,0.4c0.1-0.1,0.1-0.3,0.2-0.4c-6.3-4.6-5.1-14.5-9.1-20.7
						C879.9,431.1,875.9,435.7,876.1,445z M870.7,404.6c-7.7,7-13.8,18.2-6.4,30.4c1.4,2.3,3.2,5.2,5.6,6.4c0.2,0.2,0.4,0.4,0.6,0.6
						c3.9-7.3,5.5-15.3,10.3-21.6C880,414.6,875.4,406.5,870.7,404.6z M897.6,441.9c18.7-11.9,8.6-41.9-15.5-41.5
						c-1.7,0.4-3.5,0.8-5.2,1.2c2,3,4.1,6.1,5.6,9.6C886.4,420.9,888,438.4,897.6,441.9z M924.5,407c-6.6-15.6-20.5-27.4-43-27.1
						c-6.1,0.5-7.4,1-10.7,1.9c-9.3,2.9-17,8.9-22.1,16c5.4-2.2,12.3-4.5,19.6-2.1c1.4,0.8,2.8,1.5,4.3,2.3c1.8-0.6,3.6-1.2,5.4-1.7
						c3.8-1,9.3-0.8,12.9,0.2c11.7,3.2,24.4,16.2,20.2,33.1c-1.3,5.3-4.4,8.3-6.4,12.4c-0.4,0.4-0.8,0.8-1.2,1.2
						c5.2,0.2,9.9,0.1,13.8-1.5C929,436.6,929.9,419.6,924.5,407z"/>
				</g>
				<g>
					<circle class="st5" cx="1210.7" cy="418.3" r="7.9"/>
					<path class="st13" d="M1210.7,402.3c10.5,0,20.2,1.5,27.6,4.1c8.9,3,14.3,7.7,14.3,11.8c0,4.3-5.8,9.3-15.3,12.5
						c-7.2,2.4-16.7,3.6-26.7,3.6c-10.3,0-19.9-1.2-27.2-3.6c-9.2-3.2-14.7-8.1-14.7-12.4c0-4.1,5.2-8.7,14-11.8
						C1190.1,403.9,1200,402.3,1210.7,402.3z"/>
					<path class="st13" d="M1196.8,410.3c5.2-9.1,11.4-16.8,17.3-21.9c7.1-6.1,13.8-8.5,17.4-6.5c3.8,2.2,5.2,9.6,3.1,19.5
						c-1.5,7.4-5.2,16.3-10.2,24.9c-5.1,8.9-10.9,16.7-16.7,21.8c-7.3,6.4-14.4,8.7-18.1,6.6c-3.6-2.1-5-8.9-3.2-18
						C1187.9,429,1191.5,419.6,1196.8,410.3z"/>
					<path class="st13" d="M1196.8,426.4c-5.2-9.1-8.9-18.3-10.3-26c-1.8-9.2-0.6-16.3,3.1-18.3c3.8-2.2,10.9,0.3,18.5,7
						c5.6,5,11.5,12.6,16.5,21.3c5.1,8.9,9,17.8,10.5,25.3c1.9,9.6,0.3,16.9-3.4,19c-3.6,2.1-10.2-0.1-17.2-6.2
						C1208.5,443.5,1202.1,435.5,1196.8,426.4z"/>
				</g>
				<g>
					<g>
						<path class="st5" d="M752.4,433.5c-2.5,0-4.4-0.8-5.6-2.2s-1.9-3.5-1.9-6.3c0-2.8,0.7-4.9,2-6.4c1.4-1.5,3.3-2.3,5.9-2.3
							c1.7,0,3.3,0.3,4.7,1l-1,2.8c-1.4-0.6-2.7-0.9-3.6-0.9c-2.8,0-4.3,1.9-4.3,5.6c0,1.9,0.3,3.2,1,4.1c0.7,0.9,1.7,1.4,3.1,1.4
							c1.6,0,3-0.4,4.4-1.2v3c-0.6,0.3-1.3,0.6-2,0.8C754.3,433.4,753.5,433.5,752.4,433.5z"/>
						<path class="st5" d="M766.7,433.2h-3.5v-23.1h3.5V433.2z"/>
						<path class="st5" d="M772.3,440.5c-1,0-1.9-0.1-2.6-0.3v-2.8c0.7,0.2,1.4,0.3,2.1,0.3c1.5,0,2.3-0.8,2.3-2.5v-18.4h3.5v18.6
							c0,1.7-0.5,3-1.3,3.9C775.2,440.1,773.9,440.5,772.3,440.5z M773.8,412.4c0-0.6,0.2-1.1,0.5-1.4c0.3-0.3,0.8-0.5,1.4-0.5
							c0.6,0,1.1,0.2,1.4,0.5c0.3,0.3,0.5,0.8,0.5,1.4c0,0.6-0.2,1-0.5,1.4c-0.3,0.3-0.8,0.5-1.4,0.5c-0.6,0-1.1-0.2-1.4-0.5
							C773.9,413.5,773.8,413,773.8,412.4z"/>
						<path class="st5" d="M795.7,428.5c0,1.6-0.6,2.8-1.7,3.7c-1.2,0.9-2.8,1.3-5,1.3c-2.2,0-3.9-0.3-5.3-1v-3
							c1.9,0.9,3.7,1.3,5.4,1.3c2.1,0,3.2-0.6,3.2-1.9c0-0.4-0.1-0.8-0.3-1c-0.2-0.3-0.6-0.6-1.2-0.9c-0.6-0.3-1.3-0.6-2.3-1
							c-1.9-0.8-3.2-1.4-3.9-2.2c-0.7-0.8-1-1.7-1-2.8c0-1.4,0.6-2.5,1.7-3.3c1.2-0.8,2.7-1.2,4.6-1.2c1.9,0,3.7,0.4,5.5,1.2
							l-1.2,2.6c-1.8-0.8-3.2-1.1-4.5-1.1c-1.9,0-2.8,0.6-2.8,1.6c0,0.5,0.2,1,0.8,1.3c0.5,0.3,1.5,0.8,3.2,1.4c1.4,0.6,2.3,1,3,1.4
							c0.6,0.4,1,1,1.4,1.5C795.6,427.1,795.7,427.8,795.7,428.5z"/>
					</g>
					<path class="st5" d="M767.2,458.3c-17.9-1.6-32-16.7-32-35.1c0-18.4,14.1-33.4,32-35v-3.9c-20.1,1.6-35.9,18.5-35.9,39
						s15.8,37.4,35.9,39V458.3z"/>
					<path class="st5" d="M773.5,384.3v3.9c17.9,1.6,32,16.7,32,35.1c0,18.4-14.1,33.5-32,35.1v3.9c20.1-1.6,35.9-18.5,35.9-39
						C809.5,402.8,793.5,385.9,773.5,384.3z"/>
				</g>
				<path class="st5" d="M998.3,462.9c-1.1,0-2.2-0.3-3.2-0.8l-10.1-6c-1.5-0.8-0.8-1.2-0.3-1.3c2-0.7,2.4-0.8,4.5-2.1
					c0.2-0.1,0.6-0.1,0.8,0.1l7.7,4.6c0.3,0.1,0.7,0.1,1,0l30.2-17.4c0.3-0.1,0.5-0.5,0.5-0.8v-34.8c0-0.3-0.2-0.7-0.5-0.8
					L998.8,386c-0.3-0.1-0.6-0.1-0.9,0l-30.2,17.4c-0.3,0.1-0.5,0.5-0.5,0.8v34.8c0,0.3,0.2,0.6,0.5,0.8l8.3,4.8
					c4.5,2.3,7.2-0.4,7.2-3v-34.4c0-0.5,0.4-0.9,0.9-0.9h3.9c0.5,0,0.9,0.4,0.9,0.9v34.4c0,6-3.2,9.4-9,9.4c-1.7,0-3.1,0-7-1.9
					l-7.9-4.5c-1.9-1.1-3.2-3.2-3.2-5.5v-34.8c0-2.3,1.2-4.4,3.2-5.5l30.2-17.4c1.9-1.1,4.5-1.1,6.3,0l30.2,17.4
					c1.9,1.1,3.2,3.2,3.2,5.5v34.8c0,2.3-1.2,4.3-3.2,5.5l-30.2,17.4C1000.5,462.5,999.4,462.9,998.3,462.9z M1022.7,428.5
					c0-6.5-4.4-8.3-13.7-9.5c-9.4-1.2-10.3-1.9-10.3-4.1c0-1.8,0.8-4.2,7.7-4.2c6.2,0,8.5,1.3,9.4,5.5c0.1,0.4,0.4,0.7,0.8,0.7h3.9
					c0.3,0,0.5-0.1,0.6-0.3c0.1-0.2,0.3-0.4,0.2-0.7c-0.6-7.2-5.4-10.5-15.1-10.5c-8.6,0-13.7,3.6-13.7,9.7c0,6.6,5.1,8.4,13.4,9.2
					c9.8,1,10.7,2.4,10.7,4.3c0,3.4-2.7,4.8-9.1,4.8c-8,0-9.7-2-10.3-6c-0.1-0.4-0.4-0.8-0.9-0.8h-3.9c-0.5,0-0.9,0.4-0.9,0.9
					c0,5.1,2.8,11.2,16,11.2C1017.2,438.8,1022.7,435.1,1022.7,428.5z M1035.9,393.2v0.6h1.7v4.5h0.7v-4.5h1.7v-0.6H1035.9z
					 M1040.6,398.3h0.6v-3c0-0.1,0-0.3,0-0.6s0-0.4,0-0.6V394l1.4,4.3h0.7l1.4-4.3c0,0.3,0,0.6,0,0.8c0,0.2,0,0.4,0,0.5v3h0.6v-5h-1
					l-1.4,4.3l-1.4-4.3h-1V398.3z"/>
				<g id="Group-10" transform="translate(113.000000, 69.000000)">
					<path id="Fill-2" class="st5" d="M972.2,396.4c-5.2,0-9.7-1.3-13.2-3.9c-4.2-3.1-6.4-7.8-6.4-13.4c0-6.6,5.9-11.2,11.2-15.2
						c2.2-1.7,5.9-4.5,6.4-5.8c2.2-5,3.2-7.2-1-22.5c-1.2-4.5-1.2-10.7,5.9-15.5c0-5,0.3-10.5,2.5-13.2c0.4-0.5,1.7-2,3.6-2
						c1.7,0,2.8,1,3.5,1.9c0.8,0.8,1.4,1.4,2.8,1.4c0.6,0,1.3-0.1,2.1-0.3c3.4-1,6.5-3.2,9.2-5.1c2.8-2,5-3.6,7.4-3.6
						c0.9,0,1.7,0.2,2.5,0.7c1.9,1.1,2.8,3.6,3.2,8.1c0.2,2.3,0.2,5,0.1,8.3c3.3,1.2,5.7,2.9,7.4,5.2c2.2,3,2.7,6.9,1.4,10.8
						c-4.8,14.4-3,20.3-1.3,25.5c1.6,5,3.4,10.6-2.5,18.7c-3.9,5.3-8.3,6.4-11.8,7.3c-3,0.8-6.1,1.5-10.9,5.2
						C988.2,393.5,979.8,396.4,972.2,396.4"/>
					<path id="Fill-4" class="st14" d="M998.8,324.5c-1.7,0-3-2.1-3-4.8s1.3-4.8,3-4.8c1.7,0,3,2.1,3,4.8
						C1001.8,322.5,1000.4,324.5,998.8,324.5 M984.8,324.7c-0.8,0-1.4-1.2-1.4-2.5c0-1.4,0.6-2.5,1.4-2.5c0.8,0,1.4,1.2,1.4,2.5
						C986.2,323.6,985.5,324.7,984.8,324.7 M1018.2,331.3c1.3-3.9,0.2-6.7-1-8.3c-1.7-2.4-4.7-3.9-7.9-4.8c0.3-6.7,0.2-14.7-1.9-16
						c-3-1.9-8.7,5.9-16.8,8.3c-8.1,2.3-7.5-5.5-10.7-1.8c-1.7,1.9-2,7.4-1.9,12.9c-4.3,2.5-7.9,6.4-6.1,13.2
						c4.5,16.3,3.3,19,0.9,24.4c-0.9,2-4.3,4.6-7.3,6.9c-5,3.8-10.1,7.7-10.1,12.9c0,4.8,1.9,8.6,5.3,11.2c2.9,2.2,6.9,3.3,11.5,3.3
						c7,0,14.8-2.7,20.5-7c5.2-4,8.7-4.9,11.9-5.6c3.4-0.8,7-1.7,10.3-6.2c5-6.9,3.6-11.4,2.1-16.2
						C1015.2,353.2,1013.1,346.6,1018.2,331.3"/>
					<path id="Fill-6" class="st5" d="M983.9,381.8c-10.2,6.6-23.3,3.4-25.1-2.7c0.1,14.4,20.5,13.6,31.8,4.8
						c11.4-8.8,16.3-4.1,21.6-11.2c2.8-3.8,3.2-6.5,2.7-9.2C1013.1,371,993.7,375.6,983.9,381.8"/>
					<path id="Fill-8" class="st5" d="M1009,321.6c-0.3,3.7-0.6,6.5-0.7,6.6c-1.2,3-13.4,3.8-17.4,4.1c-4.7,0.3-5.8,16.3-7,22.7
						c-1,5.2-4.9-18.5-5.3-21.6c-0.1-1.2-0.4-4.2-0.6-7.9c-3.6,2.6-3.8,5.4-3,8.5c4.6,16.7,3.5,20.3,0.8,26.6
						c-2.1,4.7-10.6,9.1-14.8,13.7c2.1,2.8,8.3,9.3,19.4,3.5c12.4-6.4,30-13,32.1-22.4c-1.2-5.2-1.7-12.6,2.5-25.2
						C1016.6,325.6,1013.7,323,1009,321.6"/>
				</g>
			</g>
		</g>
	</g>
	<g id="top">
		<g id="logo_1_">
			<g id="x_1_">
				<g id="bracket_3_">
					<g>
						<path class="st15" d="M1252.6,270c-2.2-6.6-5.3-12.6-9.4-18s-8.6-9.3-13.4-11.8l-2.4,4.7c3.7,2.2,4.4,4.7,7.6,9.5
							c3.2,4.9,5.8,10.3,7.7,16.5c1.8,6.2,2.8,12.5,2.8,19.2c0,7.3-0.9,14.1-2.8,20.3c-1.8,6.3-4.4,11.7-7.6,16.4
							c-3.2,4.7-5.2,6-7.7,9.6l2.4,4.5c5-2.5,9.5-6.4,13.6-11.8s7.2-11.3,9.3-17.9c2.1-6.5,3.1-13.3,3.1-20.3
							C1255.9,283.5,1254.8,276.6,1252.6,270z"/>
					</g>
				</g>
				<g id="X_1_">
					<g>
						<g class="st16">
							<path class="st17" d="M1223.1,325.4h-13.1l-17.4-28.4l-17.5,28.4H1163l23-36l-21.6-33.4h12.6l16,26.3l16-26.3h12.3
								l-21.7,33.6L1223.1,325.4z"/>
						</g>
					</g>
				</g>
				<g id="bracket_2_">
					<g>
						<path class="st15" d="M1142.6,310.6c-1.8-6.3-2.8-13.1-2.8-20.3c0-6.6,0.9-13,2.8-19.2s4.4-11.7,7.7-16.5
							c3.2-4.9,3.9-7.4,7.6-9.5l-2.4-4.7c-4.9,2.5-9.3,6.4-13.4,11.8c-4.1,5.4-7.2,11.4-9.4,18s-3.2,13.6-3.2,21
							c0,7,1,13.8,3.1,20.3c2.1,6.5,5.2,12.5,9.3,17.9c4.1,5.4,8.6,9.3,13.6,11.9l2.4-4.5c-2.4-3.6-4.5-4.9-7.7-9.6
							C1147,322.4,1144.5,316.8,1142.6,310.6z"/>
					</g>
				</g>
			</g>
			<g id="lambda_1_">
				<g id="λ_2_">
					<g>
						<path class="st15" d="M795.9,315.1l-0.9,0.1l-1.8-0.1c-1.8-0.2-3.3-1.8-4.7-4.7l-23.5-55.9c-1.1-2.8-2.8-4.9-5-6.3
							c-2.2-1.5-5.3-2.2-9.3-2.2c-2.6,0-5,0.3-7.1,0.8l0.2,9.3l1.5-0.1h1.9c2.7,0.1,4.6,1.5,5.9,4l5,11.2l-21.2,53.4h14.6l13.5-36.6
							l11.1,27.3c1.6,3.8,3.5,6.5,5.6,7.9c2.2,1.5,5.2,2.3,9.2,2.3c1.9,0,3.6-0.2,5.2-0.5L795.9,315.1z"/>
					</g>
				</g>
				<g>
					<path class="st17" d="M839.2,325.4l-2.2-7.3h-0.4c-2.5,3.2-5.1,5.4-7.7,6.5c-2.6,1.1-5.9,1.7-9.9,1.7c-5.2,0-9.2-1.4-12.1-4.2
						c-2.9-2.8-4.4-6.7-4.4-11.8c0-5.4,2-9.5,6-12.2s10.1-4.3,18.4-4.5l9.1-0.3v-2.8c0-3.3-0.8-5.9-2.4-7.6c-1.6-1.7-4-2.5-7.3-2.5
						c-2.7,0-5.3,0.4-7.7,1.2c-2.5,0.8-4.9,1.7-7.1,2.8l-3.6-8c2.9-1.5,6-2.6,9.3-3.4c3.4-0.8,6.6-1.2,9.6-1.2
						c6.7,0,11.7,1.5,15.1,4.4c3.4,2.9,5.1,7.5,5.1,13.7v35.4L839.2,325.4L839.2,325.4z M822.6,317.8c4,0,7.3-1.1,9.8-3.4
						c2.4-2.3,3.7-5.4,3.7-9.5v-4.5l-6.7,0.3c-5.2,0.2-9.1,1.1-11.5,2.6c-2.4,1.6-3.6,3.9-3.6,7.2c0,2.3,0.7,4.2,2.1,5.4
						C817.8,317.2,819.8,317.8,822.6,317.8z"/>
					<path class="st17" d="M907,325.4h-11.2V293c0-4-0.8-7-2.3-9s-3.9-3-7.1-3c-4.3,0-7.4,1.4-9.5,4.2c-2,2.8-3,7.4-3,14v26.2h-11.2
						v-52.5h8.7l1.6,6.9h0.6c1.5-2.5,3.6-4.4,6.4-5.8c2.8-1.3,5.8-2.1,9.1-2.1c8.1,0,13.4,2.8,16,8.3h0.8c1.6-2.6,3.7-4.6,6.5-6.1
						c2.8-1.5,6-2.2,9.7-2.2c6.3,0,10.8,1.6,13.7,4.7c2.9,3.2,4.3,8,4.3,14.5v34.3H929v-32.4c0-4-0.8-7-2.3-9c-1.5-2-3.9-3-7.1-3
						c-4.3,0-7.5,1.3-9.5,4s-3,6.9-3,12.5V325.4L907,325.4z"/>
					<path class="st17" d="M982.6,271.9c6.5,0,11.7,2.4,15.3,7.1c3.7,4.7,5.5,11.4,5.5,20c0,8.6-1.8,15.3-5.6,20.1
						s-8.8,7.2-15.4,7.2c-6.6,0-11.8-2.4-15.5-7.2h-0.8l-2.1,6.2h-8.4v-73.9h11.2v17.6c0,1.3-0.1,3.2-0.2,5.8
						c-0.1,2.6-0.2,4.2-0.3,4.9h0.5C970.4,274.5,975.7,271.9,982.6,271.9z M979.7,281.1c-4.5,0-7.7,1.3-9.7,3.9
						c-2,2.6-3,7.1-3.1,13.3v0.8c0,6.4,1,11,3,13.9c2.1,2.9,5.3,4.3,9.9,4.3c3.9,0,7-1.6,9-4.7c2.1-3.1,3.1-7.7,3.1-13.6
						C992,287.1,987.9,281.1,979.7,281.1z"/>
					<path class="st17" d="M1034,326.4c-6.5,0-11.7-2.4-15.3-7.1c-3.7-4.7-5.5-11.4-5.5-20c0-8.6,1.8-15.3,5.6-20.1
						c3.7-4.8,8.8-7.2,15.4-7.2c6.9,0,12.1,2.5,15.8,7.7h0.6c-0.5-3.8-0.8-6.7-0.8-8.9v-19.2h11.2v73.9h-8.7l-1.9-6.9h-0.5
						C1046.2,323.7,1040.9,326.4,1034,326.4z M1037.1,317.3c4.6,0,7.9-1.3,10-3.9s3.2-6.7,3.2-12.6v-1.5c0-6.6-1.1-11.3-3.2-14.1
						c-2.2-2.8-5.5-4.2-10.1-4.2c-3.9,0-7,1.6-9.1,4.7c-2.1,3.2-3.2,7.7-3.2,13.6c0,5.8,1,10.3,3.1,13.3
						C1029.8,315.8,1032.9,317.3,1037.1,317.3z"/>
					<path class="st17" d="M1109.8,325.4l-2.2-7.3h-0.4c-2.5,3.2-5.1,5.4-7.7,6.5c-2.6,1.1-5.9,1.7-9.9,1.7c-5.2,0-9.2-1.4-12.1-4.2
						c-2.9-2.8-4.4-6.7-4.4-11.8c0-5.4,2-9.5,6-12.2s10.1-4.3,18.4-4.5l9.1-0.3v-2.8c0-3.3-0.8-5.9-2.4-7.6c-1.6-1.7-4-2.5-7.3-2.5
						c-2.7,0-5.3,0.4-7.7,1.2c-2.5,0.8-4.9,1.7-7.1,2.8l-3.6-8c2.9-1.5,6-2.6,9.3-3.4c3.4-0.8,6.6-1.2,9.6-1.2
						c6.7,0,11.7,1.5,15.1,4.4c3.4,2.9,5.1,7.5,5.1,13.7v35.4L1109.8,325.4L1109.8,325.4z M1093.2,317.8c4,0,7.3-1.1,9.8-3.4
						c2.4-2.3,3.7-5.4,3.7-9.5v-4.5l-6.7,0.3c-5.2,0.2-9.1,1.1-11.5,2.6c-2.4,1.6-3.6,3.9-3.6,7.2c0,2.3,0.7,4.2,2.1,5.4
						C1088.3,317.2,1090.4,317.8,1093.2,317.8z"/>
				</g>
			</g>
		</g>
	</g>
</g>
</svg>
