<?xml version="1.0" encoding="utf-8"?>
<!-- Generator: Adobe Illustrator 19.2.0, SVG Export Plug-In . SVG Version: 6.00 Build 0)  -->
<svg version="1.1" id="greg-svg" xmlns="http://www.w3.org/2000/svg" xmlns:xlink="http://www.w3.org/1999/xlink" x="0px" y="0px"
	 viewBox="0 0 2480 835.2" style="enable-background:new 0 0 2480 835.2;" xml:space="preserve">
<style type="text/css">
	.st0{fill:#88B4E0;}
	.st1{fill:#89BF40;}
	.st2{fill:#7EAD41;}
	.st3{display:none;}
	.st4{display:inline;fill:#FFFFFF;}
	.st5{fill:#FFFFFF;}
	.st6{fill:#242424;}
	.st7{fill:#EAEAEA;}
	.st8{display:inline;}
	.st9{display:none;fill:#3F4A52;enable-background:new    ;}
	.st10{font-family:'OpenSans';}
	.st11{font-size:37.0706px;}
	.st12{fill:#0072BC;}
	.st13{enable-background:new    ;}
	.st14{fill:#3F4A52;}
</style>
<g id="foreground">
	<polygon class="st0" points="-1.7,0 2480,0 2480,835.2 0,835.2 	"/>
	<path class="st1" d="M2480,835.2V451.7c0,0-331.7-18.7-580.4-11.9c-248.8,6.8-725.6,52.9-911.5,86.9c-49.4,9-357,78.2-608.2,158.5
		c-213.5,68.1-380,150-379.9,150H2480z"/>
	<path class="st2" d="M0,835.2h2480c93,2.9-1079.7-186.7-1573.6-220.1c-137.6-9.3-797-52.6-906.4-18.2C0,597-3.7,828.5,0,835.2z"/>
	<g id="clouds" class="st3">
		<path id="cloud1" class="st4" d="M206.3,75.5H760c0,0,75-71.6,0-63S635.6,43.7,635.6,43.7s88.5-76.2,17-80.6
			c-57.9-3.6-49.4,22.1-49.4,22.1s6.8-80.1-27.3-64.7C541.8-64.2,506-16.3,506-16.3c18.7,10.2,0,0,0,0c8.6-24.2-25.1-6.8-25.1-6.8
			c14.7-13.8,42.1-78.6-12.4-73.4C414-91.4,361.2-62.4,366.3-43.7c5.1,18.7,80.1-156.7-22.1-102.2s-52.8,93.4-44.3,105.5
			s-71.6-50.9-71.6-13.5s56.2,90.3,56.2,90.3s-42.6-69.9-71.6-42.6C184.2,20.9,206.3,75.5,206.3,75.5z"/>
		<path id="cloud2" class="st4" d="M798.2-156.6h329.2c0,0,44.6-42.5,0-37.5c-44.6,5.1-74,18.5-74,18.5s52.6-45.3,10.1-47.9
			c-34.4-2.1-29.4,13.2-29.4,13.2s4.1-47.6-16.2-38.5s-41.6,37.6-41.6,37.6c11.1,6.1,0,0,0,0c5.1-14.4-14.9-4-14.9-4
			c8.7-8.2,25.1-46.7-7.4-43.7c-32.4,3-63.8,20.3-60.8,31.4c3,11.1,47.6-93.2-13.2-60.8s-31.4,55.5-26.3,62.7
			c5.1,7.2-42.5-30.3-42.5-8s33.4,53.7,33.4,53.7s-25.3-41.5-42.5-25.3S798.2-156.6,798.2-156.6z"/>
		<path id="cloud3" class="st4" d="M1303.3-26.2H1746c0,0,59.9-57.2,0-50.4s-99.4,24.9-99.4,24.9s70.7-60.9,13.6-64.4
			c-46.3-2.9-39.5,17.7-39.5,17.7s5.4-64-21.8-51.8c-27.2,12.3-55.9,50.5-55.9,50.5c15,8.2,0,0,0,0c6.8-19.3-20-5.4-20-5.4
			c11.8-11,33.7-62.8-9.9-58.7c-43.6,4.1-85.8,27.2-81.7,42.2s64-125.3-17.7-81.7s-42.2,74.7-35.4,84.3c6.8,9.7-57.2-40.7-57.2-10.8
			s45,72.2,45,72.2s-34.1-55.8-57.2-34.1C1285.6-69.8,1303.3-26.2,1303.3-26.2z"/>
	</g>
	<g id="lama">
		<g id="body">
			<g>
				<path class="st5" d="M2234.3,368.5c14.5,0,20.7-9,30.2-9c-2.2-2.2-4.5-4.4-6.7-6.6c1.1-2.7,2.1-5.4,3.2-8
					c-3.9-0.9-7.8-1.8-11.7-2.7c0-3,0-5.9,0-8.9c-11.3,2.9-22.6,5.7-33.9,8.6c2.1-2,4.2-3.9,6.3-5.9c-10.9,1.7-21.7,3.4-32.6,5
					c1.8-1.8,3.6-3.6,5.4-5.4c-9.6,0.3-19.2,0.6-28.8,0.9c0.5-2.1,0.9-4.2,1.4-6.3c-10.1,1.4-20.2,2.7-30.4,4.1
					c0.5-0.8,0.9-1.5,1.4-2.3c-10,2.1-19.9,4.2-29.9,6.3c1.4-2.1,2.7-4.2,4.1-6.3c-94.4,0-24.7-160.6-71-206.8
					c2.4-1.3,15.4-37.8,15.4-37.8s-16.9-28.1-33.3-28.1c-2.2,0-10.8,0.4-13,0.4c0,15.6,17.2,35.5,17.2,57.7
					c-14.6,0.2-29.3,0.3-43.9,0.5c0-19.9,9.5-41.8,9.5-62.2c-22.2,0-30.6,17.3-35.6,35.2c0,15.3,15.3,23.3,15.3,28.7
					c-10.3,6.7-14.3,15.4-17.7,24.3c0,58.5,13.4,143.3-7.3,196.1c-0.4,1.7-0.8,3.4-1.1,5.1c3.5-0.5,7-1,10.4-1.5
					c0,0-12.6,27.9-12.6,37.9c2.7-3.5,5.4-6.9,8.2-10.4c-2.1,12.2-4.2,24.4-6.3,36.6c2.1-1.4,4.1-2.8,6.2-4.1
					c-1.7,13.3-3.3,26.5-5,39.8c2.6-3.3,5.1-6.6,7.7-9.9c0,7.5,0,15.1,0,22.6c1.9,0,3.9,0,5.8,0c-2.6,9.5-5.1,19-7.7,28.5
					c2.7-3.6,5.4-7.2,8.1-10.9c4.5,18.3,9.1,36.5,13.6,54.8c-0.8,34.2-1.5,68.5-2.3,102.7c13.1-0.3,26.3-0.6,39.4-0.9
					c1.5-28.5-0.7-67.6,0.7-100.4c0.4-10.1,4.3-18.3,4.8-27.1c1.5,8.7,8,17.8,9.6,27.9c4.8,31.1,4.8,67.3,9.4,94
					c8.3-0.9,16.6-1.8,24.8-2.7c1.2-40.7,2.4-81.5,3.6-122.2c5.9,0.8,11.7,1.5,17.6,2.3c3.3,4.8,6.6,9.6,10,14.4c1.5,0,3,0,4.4,0
					c0.3-4.2,0.6-8.4,0.9-12.6c3.2,5.7,6.3,11.4,9.5,17.2c-0.5-4.5-0.9-9-1.4-13.5c5.1,3.5,10.2,6.9,15.4,10.4
					c-2.3-7.8-4.5-15.7-6.8-23.6c5.7-2.1,19-0.5,17.2-6.3c18,57.1,17,88.4,17.2,134.9c10.3-0.5,11.5,0.2,21.7-0.3
					c0-34.9,2.8-84.6,2.8-118.2c0-0.6,4.8,10.7,4.8,10.2c-0.5,34.8,4.7,73.2,4.2,108c10.4-0.8,12.7,0.5,23.1-0.3
					c0-51.9,24.2-102,24.2-142.4c2,0.9,3.9,1.8,5.9,2.7c-2.1-6.6-4.2-13.3-6.3-19.9c0-2.9,0-5.7,0-8.6c2.2,0.8,4.5,1.5,6.7,2.3
					c-0.8-16.7-1.5-33.5-2.3-50.2c2.7,0.5,5.4,0.9,8.1,1.4C2239.4,394.6,2236.9,381.6,2234.3,368.5z"/>
			</g>
		</g>
		<g id="head">
			<g id="eye1">
				<g>
					<ellipse class="st6" cx="1975.3" cy="175.2" rx="5.7" ry="5.7"/>
				</g>
			</g>
			<g id="eye2">
				<g>
					<ellipse class="st6" cx="2042.9" cy="175.2" rx="5.7" ry="5.7"/>
				</g>
			</g>
			<g id="mouth_1_">
				<g id="Elipsa_3">
					<g>
						<path class="st7" d="M2008.9,168.3c-11.8,0-18.9,10.8-18.3,24.1s6.7,24.1,18.3,24.1c11.8,0,17.2-10.5,17.2-23.8
							S2020.6,168.3,2008.9,168.3z"/>
					</g>
				</g>
				<g id="smile" class="st3">
					<g class="st8">
						<path class="st6" d="M2014.7,188.8c-3.6,1.6-10.3,0-11.7,0c-2.5,0.1-5.3-3.4-5.3-3.4v0.9c0,0,2.4,4.3,5.3,4.3
							c3.2,0,8.7,1,11.7-0.9c2.7-1.6,4-3.3,4-3.3v-0.9C2018.7,185.5,2017.7,187.5,2014.7,188.8z"/>
					</g>
				</g>
				<g id="face">
					<g>
						<path class="st6" d="M2015.9,189c-5.6,0.9-11.2,1.2-16.9,0.9c-0.3,0-1.6,0.5-1,0.5c5.9,0.2,11.7-0.1,17.6-1
							C2016.1,189.3,2016.9,188.8,2015.9,189L2015.9,189z"/>
					</g>
				</g>
				<g id="cheek">
					<g>
						<path class="st6" d="M2015.4,185.5c-0.6,4,0.8,7.1,2.2,10.8c0.2,0.4,1.6,0,1.4-0.4c-1.4-3.7-2.8-6.7-2.2-10.7
							C2016.9,184.9,2015.5,185.1,2015.4,185.5L2015.4,185.5z"/>
					</g>
				</g>
				<g id="noseline">
					<g>
						<polygon class="st6" points="2007.8,177.2 2007.8,189 2008.7,189 2008.7,177.2 						"/>
					</g>
				</g>
				<g id="nose">
					<g>
						<path class="st6" d="M2008.4,172.3c-4.7,0-8.5,2.5-8.5,5.7s4.1,3.7,8.8,3.7c4.7,0,8.2-0.6,8.2-3.7S2013.1,172.3,2008.4,172.3z
							"/>
					</g>
				</g>
			</g>
		</g>
		<g id="tie">
			<g>
				<path class="st6" d="M2038,281.4c-4.1-1.3-24.2,10.2-24.2,10.2c-1.2-1.3-3-2.1-5-2.1s-3.8,0.8-5,2.1c0,0-20.2-12.2-24.1-9.9
					c-3.8,2.2-4,26.1,0,28.4c4,2.4,24.5-9.6,24.5-9.6c1.2,1.1,2.8,1.8,4.6,1.8s3.4-0.7,4.6-1.8c0,0,21.1,12.4,24.5,9.6
					C2041.1,307.3,2042,282.7,2038,281.4z"/>
			</g>
		</g>
		<g id="glasses">
			<g>
				<path class="st6" d="M2079.3,159.1c0-1-0.1-2-0.2-3c0-0.5-0.2-0.7-0.7-0.9c-0.3-0.1-0.6-0.2-0.9-0.2c-4.4-0.7-8.8-1.4-13.3-1.7
					c-3.6-0.3-7.1-0.4-10.7-0.6c-6.9-0.3-13.7-0.2-20.6,0.7c-4.2,0.5-8.3,1.3-12.3,2.6c-2,0.7-4,1.4-6.1,2.1c-3.2,1-6.4,1.5-9.7,0.8
					c-2-0.4-3.9-0.9-5.9-1.6c-3.5-1.1-6.9-2.3-10.6-2.9c-7-1.3-14.1-1.9-20.7-1.8c-5.4,0-10.2,0.2-15,0.8c-3.9,0.5-7.9,1-11.8,1.5
					c-0.8,0.1-1.7,0.4-2.5,0.6c-0.4,0.1-0.7,0.4-0.7,0.9c-0.1,2.3-0.2,4.7-0.2,7c0,0.4,0.1,0.7,0.1,1.1c0,0.3,0.2,0.5,0.5,0.6
					s0.6,0.3,0.9,0.5c1.3,0.9,1.9,2.3,2.4,3.7c0.4,1,0.6,2.1,0.9,3.1c0.2,0.6,0.4,1.3,0.6,1.9c0.7,3.1,1.3,6.1,2,9.2
					c0.7,2.9,1.5,5.8,2.9,8.4c1.5,3,3.7,5.3,6.9,6.6c1.9,0.8,3.9,1.3,5.9,1.6c3.6,0.6,7.2,0.6,10.9,0.4c3.7-0.3,7.3-0.8,10.9-1.9
					c2.6-0.8,5.1-1.9,7.2-3.7c3.2-2.8,5.8-6.1,7.8-9.9s3.4-7.8,4.6-11.9c0.4-1.2,0.7-2.3,1.1-3.5c0.6-1.7,1.8-2.7,3.6-3
					c0.6-0.1,1.2-0.1,1.7-0.1c1.3,0.1,2.6,0.4,3.5,1.5c0.4,0.5,0.8,1,1,1.6c0.5,1.1,1,2.3,1.3,3.4c1.6,5,3.7,9.8,6.3,14.4
					c2.2,3.8,5.1,6.8,8.9,9c2.7,1.5,5.6,2.4,8.6,3c4.5,0.9,9.1,1.1,13.7,0.9c2.8-0.1,5.5-0.5,8.2-1.3s5.2-2.2,7-4.5
					c1.2-1.5,2-3.2,2.7-4.9c1.5-3.7,2.5-7.6,3.3-11.4c0.4-1.9,0.9-3.8,1.3-5.7c0.2-1,0.5-2,0.8-2.9s0.5-1.9,1-2.6
					c0.6-0.8,1.2-1.6,2.1-1.9c0.4-0.2,0.6-0.4,0.7-0.9c0.1-0.3,0.1-0.6,0.1-0.9C2079.3,161.9,2079.3,160.5,2079.3,159.1z
					 M1943.4,160.5c-1.5,0-2.7-0.3-2.7-0.7s1.2-0.7,2.7-0.7s2.7,0.3,2.7,0.7S1944.9,160.5,1943.4,160.5z M1995.9,175.4
					c-1,4.1-2.5,7.9-4.6,11.6c-1.1,2-2.4,3.8-4.1,5.4c-2.2,2.1-4.8,3.3-7.7,4.1c-5.8,1.5-11.7,1.9-17.7,1c-1.2-0.2-2.3-0.5-3.5-0.8
					c-2.4-0.6-4.2-2-5.5-4.1c-1.5-2.3-2.4-4.8-3.1-7.4c-0.8-3.4-1.3-6.9-1.6-10.5c-0.2-2-0.2-4.1,0.1-6.1c0.1-1,0.2-2.1,0.4-3.1
					c0.8-3.6,3-5.8,6.5-6.8c3.2-0.8,6.5-1.3,9.8-1.6c2.4-0.2,4.9-0.3,6.5-0.4c5.6,0.1,10.3,0.4,15,1.5c1.9,0.4,3.8,0.8,5.5,1.8
					c0.9,0.5,1.7,1,2.4,1.6c1.2,1,1.9,2.4,2.1,4C1997,169,1996.6,172.2,1995.9,175.4z M2065.9,188.3c-0.7,1.9-1.7,3.6-3.1,5
					c-1.6,1.6-3.6,2.4-5.7,3c-2.7,0.7-5.4,0.9-8.1,0.9c-4.2,0-8.2-0.5-12.3-1.4c-4-0.9-7.2-3-9.8-6.2c-3.3-4.1-5.4-8.8-6.5-13.9
					c-0.5-2.4-1-4.8-0.9-7.2c0-1.1,0.1-2.1,0.3-3.2c0.5-2.6,2-4.3,4.4-5.2c2.4-1,4.9-1.6,7.4-2.1c2.8-0.6,5.6-1,8.4-1.2
					c2.2-0.1,4.4-0.2,5.9-0.3c5.9,0.3,11.1,0.7,16.2,2.2c0.9,0.3,1.8,0.7,2.7,1.1c0.8,0.4,1.5,1,1.9,1.9c0.5,0.9,0.9,1.8,1.3,2.8
					c0.4,1.1,0.5,2.3,0.6,3.5c0.1,1.9,0.2,3.8,0.1,5.7C2068.5,178.8,2067.6,183.6,2065.9,188.3z M2073.3,160.5
					c-1.5,0-2.7-0.3-2.7-0.7s1.2-0.7,2.7-0.7s2.7,0.3,2.7,0.7S2074.8,160.5,2073.3,160.5z"/>
			</g>
		</g>
	</g>
	<g>
		<path class="st5" d="M1642.2,154.5h-7.7V138c0-2-0.3-3.6-1-4.6c-0.7-1-1.8-1.5-3.2-1.5c-2,0-3.4,0.7-4.3,2.2s-1.3,3.8-1.3,7.1
			v13.3h-7.7v-28.2h5.9l1,3.6h0.4c0.8-1.3,1.9-2.3,3.3-3c1.4-0.7,3.1-1.1,4.9-1.1c4.2,0,7.1,1.4,8.6,4.1h0.7
			c0.8-1.3,1.9-2.3,3.3-3.1c1.5-0.7,3.1-1.1,5-1.1c3.2,0,5.6,0.8,7.3,2.5c1.6,1.6,2.5,4.3,2.5,7.9v18.4h-7.7V138c0-2-0.3-3.6-1-4.6
			c-0.7-1-1.8-1.5-3.2-1.5c-1.9,0-3.3,0.7-4.2,2c-0.9,1.3-1.4,3.5-1.4,6.4V154.5z"/>
		<path class="st5" d="M1680.5,155c-4.5,0-8.1-1.3-10.7-3.8c-2.6-2.5-3.8-6.1-3.8-10.7c0-4.7,1.2-8.4,3.5-11
			c2.4-2.6,5.6-3.9,9.8-3.9c4,0,7.1,1.1,9.3,3.4c2.2,2.3,3.3,5.4,3.3,9.4v3.7h-18.2c0.1,2.2,0.7,3.9,1.9,5.1
			c1.2,1.2,2.9,1.8,5.1,1.8c1.7,0,3.3-0.2,4.8-0.5c1.5-0.4,3.1-0.9,4.7-1.7v6c-1.3,0.7-2.8,1.2-4.3,1.5
			C1684.5,154.8,1682.7,155,1680.5,155z M1679.4,131.2c-1.6,0-2.9,0.5-3.8,1.6c-0.9,1-1.5,2.5-1.6,4.4h10.8c0-1.9-0.5-3.4-1.5-4.4
			C1682.3,131.7,1681,131.2,1679.4,131.2z"/>
		<path class="st5" d="M1711,155c-4.5,0-8.1-1.3-10.7-3.8c-2.6-2.5-3.8-6.1-3.8-10.7c0-4.7,1.2-8.4,3.5-11c2.4-2.6,5.6-3.9,9.8-3.9
			c4,0,7.1,1.1,9.3,3.4c2.2,2.3,3.3,5.4,3.3,9.4v3.7h-18.2c0.1,2.2,0.7,3.9,1.9,5.1c1.2,1.2,2.9,1.8,5.1,1.8c1.7,0,3.3-0.2,4.8-0.5
			c1.5-0.4,3.1-0.9,4.7-1.7v6c-1.3,0.7-2.8,1.2-4.3,1.5C1715.1,154.8,1713.2,155,1711,155z M1709.9,131.2c-1.6,0-2.9,0.5-3.8,1.6
			c-0.9,1-1.5,2.5-1.6,4.4h10.8c0-1.9-0.5-3.4-1.5-4.4C1712.9,131.7,1711.6,131.2,1709.9,131.2z"/>
		<path class="st5" d="M1740.7,148.8c1.3,0,3-0.3,4.8-0.9v5.7c-1.9,0.9-4.3,1.3-7.1,1.3c-3.1,0-5.3-0.8-6.7-2.3
			c-1.4-1.6-2.1-3.9-2.1-7V132h-3.7v-3.3l4.2-2.6l2.2-6h4.9v6h7.9v5.8h-7.9v13.6c0,1.1,0.3,1.9,0.9,2.4
			C1738.9,148.6,1739.7,148.8,1740.7,148.8z"/>
		<path class="st5" d="M1779.3,133.7h14.7v19.1c-2.4,0.8-4.6,1.3-6.7,1.6c-2.1,0.3-4.2,0.5-6.4,0.5c-5.6,0-9.8-1.6-12.8-4.9
			c-2.9-3.3-4.4-8-4.4-14.1c0-6,1.7-10.6,5.1-13.9c3.4-3.3,8.1-5,14.2-5c3.8,0,7.4,0.8,11,2.3l-2.6,6.3c-2.7-1.3-5.5-2-8.4-2
			c-3.4,0-6.1,1.1-8.1,3.4c-2,2.3-3.1,5.3-3.1,9.2c0,4,0.8,7.1,2.5,9.2c1.6,2.1,4,3.2,7.2,3.2c1.6,0,3.3-0.2,5-0.5v-7.7h-7V133.7z"
			/>
		<path class="st5" d="M1817.9,125.7c1,0,1.9,0.1,2.6,0.2l-0.6,7.2c-0.6-0.2-1.4-0.3-2.3-0.3c-2.5,0-4.4,0.6-5.7,1.9
			c-1.4,1.3-2.1,3-2.1,5.3v14.4h-7.7v-28.2h5.8l1.1,4.7h0.4c0.9-1.6,2.1-2.9,3.5-3.8C1814.6,126.2,1816.2,125.7,1817.9,125.7z"/>
		<path class="st5" d="M1838.4,155c-4.5,0-8.1-1.3-10.7-3.8c-2.6-2.5-3.8-6.1-3.8-10.7c0-4.7,1.2-8.4,3.5-11
			c2.4-2.6,5.6-3.9,9.8-3.9c4,0,7.1,1.1,9.3,3.4c2.2,2.3,3.3,5.4,3.3,9.4v3.7h-18.2c0.1,2.2,0.7,3.9,1.9,5.1
			c1.2,1.2,2.9,1.8,5.1,1.8c1.7,0,3.3-0.2,4.8-0.5c1.5-0.4,3.1-0.9,4.7-1.7v6c-1.3,0.7-2.8,1.2-4.3,1.5
			C1842.5,154.8,1840.6,155,1838.4,155z M1837.4,131.2c-1.6,0-2.9,0.5-3.8,1.6c-0.9,1-1.5,2.5-1.6,4.4h10.8c0-1.9-0.5-3.4-1.5-4.4
			C1840.3,131.7,1839,131.2,1837.4,131.2z"/>
		<path class="st5" d="M1880.8,126.2v3.9l-4.4,1.1c0.8,1.3,1.2,2.7,1.2,4.2c0,3-1.1,5.4-3.2,7.1s-5,2.5-8.8,2.5l-1.4-0.1l-1.1-0.1
			c-0.8,0.6-1.2,1.3-1.2,2c0,1.1,1.4,1.7,4.2,1.7h4.8c3.1,0,5.5,0.7,7.1,2c1.6,1.3,2.4,3.3,2.4,5.9c0,3.3-1.4,5.9-4.1,7.7
			c-2.8,1.8-6.7,2.7-11.9,2.7c-3.9,0-7-0.7-9-2.1c-2.1-1.4-3.1-3.3-3.1-5.8c0-1.7,0.5-3.1,1.6-4.3c1.1-1.1,2.6-2,4.7-2.4
			c-0.8-0.3-1.5-0.9-2.1-1.7c-0.6-0.8-0.9-1.6-0.9-2.4c0-1.1,0.3-2,0.9-2.7c0.6-0.7,1.5-1.4,2.7-2.1c-1.5-0.6-2.7-1.7-3.5-3.1
			s-1.3-3.1-1.3-5c0-3.1,1-5.5,3-7.1c2-1.7,4.9-2.5,8.6-2.5c0.8,0,1.7,0.1,2.8,0.2s1.8,0.2,2.1,0.3H1880.8z M1859,158.4
			c0,1.1,0.5,1.9,1.5,2.5c1,0.6,2.4,0.9,4.3,0.9c2.8,0,4.9-0.4,6.5-1.1c1.6-0.8,2.3-1.8,2.3-3.1c0-1.1-0.5-1.8-1.4-2.2
			c-0.9-0.4-2.4-0.6-4.3-0.6h-4c-1.4,0-2.6,0.3-3.5,1C1859.5,156.5,1859,157.3,1859,158.4z M1861.8,135.5c0,1.5,0.3,2.7,1,3.6
			c0.7,0.9,1.8,1.3,3.2,1.3c1.4,0,2.5-0.4,3.2-1.3c0.7-0.9,1-2.1,1-3.6c0-3.4-1.4-5.1-4.2-5.1
			C1863.2,130.4,1861.8,132.1,1861.8,135.5z"/>
		<path class="st5" d="M1893,149c-0.9,3.4-2.4,7.4-4.4,12.1h-5.6c1.1-4.5,1.9-8.7,2.6-12.7h7.1L1893,149z"/>
		<path class="st5" d="M1247.9,216.5h-7.7V200c0-4.1-1.5-6.1-4.5-6.1c-2.2,0-3.7,0.7-4.7,2.2c-1,1.5-1.4,3.8-1.4,7.1v13.3h-7.7
			v-39.3h7.7v8c0,0.6-0.1,2.1-0.2,4.4l-0.2,2.3h0.4c1.7-2.8,4.4-4.1,8.2-4.1c3.3,0,5.8,0.9,7.6,2.7c1.7,1.8,2.6,4.3,2.6,7.7V216.5z"
			/>
		<path class="st5" d="M1268.7,217c-4.5,0-8.1-1.3-10.7-3.8c-2.6-2.5-3.8-6.1-3.8-10.7c0-4.7,1.2-8.4,3.5-11
			c2.4-2.6,5.6-3.9,9.8-3.9c4,0,7.1,1.1,9.3,3.4c2.2,2.3,3.3,5.4,3.3,9.4v3.7H1262c0.1,2.2,0.7,3.9,1.9,5.1c1.2,1.2,2.9,1.8,5.1,1.8
			c1.7,0,3.3-0.2,4.8-0.5c1.5-0.4,3.1-0.9,4.7-1.7v6c-1.3,0.7-2.8,1.2-4.3,1.5C1272.7,216.9,1270.9,217,1268.7,217z M1267.6,193.2
			c-1.6,0-2.9,0.5-3.8,1.6c-0.9,1-1.5,2.5-1.6,4.4h10.8c0-1.9-0.5-3.4-1.5-4.4C1270.5,193.8,1269.2,193.2,1267.6,193.2z"/>
		<path class="st5" d="M1292.8,179.6l-1,13.3h-5l-1-13.3H1292.8z"/>
		<path class="st5" d="M1319.9,208.1c0,2.9-1,5.1-3,6.6c-2,1.5-5,2.3-9,2.3c-2.1,0-3.8-0.1-5.3-0.4c-1.4-0.3-2.8-0.7-4.1-1.2V209
			c1.4,0.7,3,1.2,4.8,1.7c1.8,0.5,3.4,0.7,4.7,0.7c2.8,0,4.2-0.8,4.2-2.4c0-0.6-0.2-1.1-0.6-1.5c-0.4-0.4-1-0.8-1.9-1.3
			c-0.9-0.5-2.1-1-3.6-1.7c-2.2-0.9-3.8-1.8-4.8-2.5c-1-0.8-1.8-1.7-2.2-2.7c-0.5-1-0.7-2.2-0.7-3.7c0-2.5,1-4.4,2.9-5.8
			s4.7-2.1,8.3-2.1c3.4,0,6.7,0.7,9.9,2.2l-2.3,5.6c-1.4-0.6-2.7-1.1-4-1.5s-2.5-0.6-3.8-0.6c-2.3,0-3.4,0.6-3.4,1.8
			c0,0.7,0.4,1.3,1.1,1.8c0.7,0.5,2.3,1.3,4.8,2.2c2.2,0.9,3.8,1.7,4.8,2.5c1,0.8,1.8,1.7,2.3,2.7
			C1319.7,205.5,1319.9,206.7,1319.9,208.1z"/>
		<path class="st5" d="M1365.4,216.5h-7.7V200c0-2-0.4-3.6-1.1-4.6c-0.7-1-1.9-1.5-3.5-1.5c-2.2,0-3.7,0.7-4.7,2.2
			c-1,1.4-1.4,3.8-1.4,7.2v13.3h-7.7v-28.2h5.9l1,3.6h0.4c0.9-1.4,2-2.4,3.5-3.1s3.2-1,5.1-1c3.3,0,5.8,0.9,7.5,2.7
			c1.7,1.8,2.6,4.3,2.6,7.7V216.5z"/>
		<path class="st5" d="M1399,202.4c0,4.6-1.2,8.2-3.6,10.8c-2.4,2.6-5.8,3.9-10.1,3.9c-2.7,0-5.1-0.6-7.2-1.8
			c-2.1-1.2-3.7-2.9-4.8-5.1c-1.1-2.2-1.7-4.8-1.7-7.8c0-4.6,1.2-8.2,3.6-10.8s5.8-3.8,10.2-3.8c2.7,0,5.1,0.6,7.2,1.8
			c2.1,1.2,3.7,2.9,4.8,5.1S1399,199.4,1399,202.4z M1379.5,202.4c0,2.8,0.5,4.9,1.4,6.3s2.4,2.1,4.5,2.1c2.1,0,3.5-0.7,4.4-2.1
			c0.9-1.4,1.4-3.5,1.4-6.4c0-2.8-0.5-4.9-1.4-6.3c-0.9-1.4-2.4-2.1-4.5-2.1c-2.1,0-3.5,0.7-4.4,2.1S1379.5,199.5,1379.5,202.4z"/>
		<path class="st5" d="M1417.3,210.9c1.3,0,3-0.3,4.8-0.9v5.7c-1.9,0.9-4.3,1.3-7.1,1.3c-3.1,0-5.3-0.8-6.7-2.3
			c-1.4-1.6-2.1-3.9-2.1-7v-13.6h-3.7v-3.3l4.2-2.6l2.2-6h4.9v6h7.9v5.8h-7.9v13.6c0,1.1,0.3,1.9,0.9,2.4
			C1415.5,210.6,1416.3,210.9,1417.3,210.9z"/>
		<path class="st5" d="M1459.2,216.5l-1.5-3.8h-0.2c-1.3,1.6-2.6,2.8-4,3.4c-1.4,0.6-3.2,0.9-5.4,0.9c-2.7,0-4.8-0.8-6.4-2.3
			c-1.6-1.5-2.3-3.8-2.3-6.6c0-3,1-5.2,3.1-6.6c2.1-1.4,5.3-2.2,9.5-2.4l4.9-0.2v-1.2c0-2.9-1.5-4.3-4.4-4.3c-2.3,0-4.9,0.7-8,2
			l-2.6-5.2c3.2-1.7,6.9-2.6,10.8-2.6c3.8,0,6.7,0.8,8.7,2.5s3,4.2,3,7.5v18.8H1459.2z M1456.9,203.4l-3,0.1c-2.2,0.1-3.9,0.5-5,1.2
			c-1.1,0.7-1.6,1.9-1.6,3.4c0,2.2,1.2,3.3,3.7,3.3c1.8,0,3.2-0.5,4.3-1.5c1.1-1,1.6-2.4,1.6-4.1V203.4z"/>
		<path class="st5" d="M1498.6,216.5h-7.7V200c0-2-0.4-3.6-1.1-4.6c-0.7-1-1.9-1.5-3.5-1.5c-2.2,0-3.7,0.7-4.7,2.2
			c-1,1.4-1.4,3.8-1.4,7.2v13.3h-7.7v-28.2h5.9l1,3.6h0.4c0.9-1.4,2-2.4,3.5-3.1s3.2-1,5.1-1c3.3,0,5.8,0.9,7.5,2.7
			c1.7,1.8,2.6,4.3,2.6,7.7V216.5z"/>
		<path class="st5" d="M1545.6,202.4c0,4.6-1.2,8.2-3.6,10.8c-2.4,2.6-5.8,3.9-10.1,3.9c-2.7,0-5.1-0.6-7.2-1.8
			c-2.1-1.2-3.7-2.9-4.8-5.1c-1.1-2.2-1.7-4.8-1.7-7.8c0-4.6,1.2-8.2,3.6-10.8s5.8-3.8,10.2-3.8c2.7,0,5.1,0.6,7.2,1.8
			c2.1,1.2,3.7,2.9,4.8,5.1S1545.6,199.4,1545.6,202.4z M1526.1,202.4c0,2.8,0.5,4.9,1.4,6.3s2.4,2.1,4.5,2.1c2.1,0,3.5-0.7,4.4-2.1
			c0.9-1.4,1.4-3.5,1.4-6.4c0-2.8-0.5-4.9-1.4-6.3c-0.9-1.4-2.4-2.1-4.5-2.1c-2.1,0-3.5,0.7-4.4,2.1S1526.1,199.5,1526.1,202.4z"/>
		<path class="st5" d="M1567.7,187.8c1,0,1.9,0.1,2.6,0.2l-0.6,7.2c-0.6-0.2-1.4-0.3-2.3-0.3c-2.5,0-4.4,0.6-5.7,1.9
			c-1.4,1.3-2.1,3-2.1,5.3v14.4h-7.7v-28.2h5.8l1.1,4.7h0.4c0.9-1.6,2.1-2.9,3.5-3.8C1564.4,188.2,1566,187.8,1567.7,187.8z"/>
		<path class="st5" d="M1584.4,217c-3.3,0-5.9-1.3-7.8-3.9c-1.9-2.6-2.8-6.1-2.8-10.7c0-4.6,1-8.2,2.9-10.8c1.9-2.6,4.6-3.9,8-3.9
			c3.6,0,6.3,1.4,8.1,4.1h0.3c-0.4-2.1-0.6-4-0.6-5.6v-9h7.7v39.3h-5.9l-1.5-3.7h-0.3C1590.7,215.6,1588,217,1584.4,217z
			 M1587.1,210.9c2,0,3.4-0.6,4.3-1.7s1.4-3.1,1.5-5.8v-0.8c0-3-0.5-5.2-1.4-6.5s-2.5-2-4.6-2c-1.7,0-3.1,0.7-4,2.2
			c-1,1.5-1.4,3.6-1.4,6.4c0,2.8,0.5,4.9,1.4,6.3C1584,210.2,1585.3,210.9,1587.1,210.9z"/>
		<path class="st5" d="M1607.9,181c0-2.5,1.4-3.8,4.2-3.8c2.8,0,4.2,1.3,4.2,3.8c0,1.2-0.3,2.1-1,2.8c-0.7,0.7-1.7,1-3.1,1
			C1609.3,184.8,1607.9,183.5,1607.9,181z M1615.9,216.5h-7.7v-28.2h7.7V216.5z"/>
		<path class="st5" d="M1650.1,216.5h-7.7V200c0-2-0.4-3.6-1.1-4.6c-0.7-1-1.9-1.5-3.5-1.5c-2.2,0-3.7,0.7-4.7,2.2
			c-1,1.4-1.4,3.8-1.4,7.2v13.3h-7.7v-28.2h5.9l1,3.6h0.4c0.9-1.4,2-2.4,3.5-3.1s3.2-1,5.1-1c3.3,0,5.8,0.9,7.5,2.7
			c1.7,1.8,2.6,4.3,2.6,7.7V216.5z"/>
		<path class="st5" d="M1675.9,216.5l-1.5-3.8h-0.2c-1.3,1.6-2.6,2.8-4,3.4c-1.4,0.6-3.2,0.9-5.4,0.9c-2.7,0-4.8-0.8-6.4-2.3
			c-1.6-1.5-2.3-3.8-2.3-6.6c0-3,1-5.2,3.1-6.6c2.1-1.4,5.3-2.2,9.5-2.4l4.9-0.2v-1.2c0-2.9-1.5-4.3-4.4-4.3c-2.3,0-4.9,0.7-8,2
			l-2.6-5.2c3.2-1.7,6.9-2.6,10.8-2.6c3.8,0,6.7,0.8,8.7,2.5s3,4.2,3,7.5v18.8H1675.9z M1673.7,203.4l-3,0.1c-2.2,0.1-3.9,0.5-5,1.2
			c-1.1,0.7-1.6,1.9-1.6,3.4c0,2.2,1.2,3.3,3.7,3.3c1.8,0,3.2-0.5,4.3-1.5c1.1-1,1.6-2.4,1.6-4.1V203.4z"/>
		<path class="st5" d="M1705,187.8c1,0,1.9,0.1,2.6,0.2l-0.6,7.2c-0.6-0.2-1.4-0.3-2.3-0.3c-2.5,0-4.4,0.6-5.7,1.9
			c-1.4,1.3-2.1,3-2.1,5.3v14.4h-7.7v-28.2h5.8l1.1,4.7h0.4c0.9-1.6,2.1-2.9,3.5-3.8C1701.6,188.2,1703.2,187.8,1705,187.8z"/>
		<path class="st5" d="M1708.7,188.3h8.4l5.3,15.9c0.5,1.4,0.8,3,0.9,4.9h0.2c0.2-1.7,0.5-3.4,1.1-4.9l5.2-15.9h8.3l-11.9,31.9
			c-1.1,2.9-2.7,5.2-4.7,6.6c-2,1.5-4.4,2.2-7.1,2.2c-1.3,0-2.6-0.1-3.9-0.4v-6.1c0.9,0.2,1.9,0.3,3,0.3c1.4,0,2.6-0.4,3.6-1.3
			s1.8-2.1,2.4-3.8l0.5-1.4L1708.7,188.3z"/>
		<path class="st5" d="M1763.3,216.5h-7.7v-39.3h7.7V216.5z"/>
		<path class="st5" d="M1779.1,216.5h-7.7v-39.3h7.7V216.5z"/>
		<path class="st5" d="M1805.1,216.5l-1.5-3.8h-0.2c-1.3,1.6-2.6,2.8-4,3.4c-1.4,0.6-3.2,0.9-5.4,0.9c-2.7,0-4.8-0.8-6.4-2.3
			c-1.6-1.5-2.3-3.8-2.3-6.6c0-3,1-5.2,3.1-6.6c2.1-1.4,5.3-2.2,9.5-2.4l4.9-0.2v-1.2c0-2.9-1.5-4.3-4.4-4.3c-2.3,0-4.9,0.7-8,2
			l-2.6-5.2c3.2-1.7,6.9-2.6,10.8-2.6c3.8,0,6.7,0.8,8.7,2.5s3,4.2,3,7.5v18.8H1805.1z M1802.8,203.4l-3,0.1c-2.2,0.1-3.9,0.5-5,1.2
			c-1.1,0.7-1.6,1.9-1.6,3.4c0,2.2,1.2,3.3,3.7,3.3c1.8,0,3.2-0.5,4.3-1.5c1.1-1,1.6-2.4,1.6-4.1V203.4z"/>
		<path class="st5" d="M1843.7,216.5h-7.7V200c0-2-0.3-3.6-1-4.6c-0.7-1-1.8-1.5-3.2-1.5c-2,0-3.4,0.7-4.3,2.2s-1.3,3.8-1.3,7.1
			v13.3h-7.7v-28.2h5.9l1,3.6h0.4c0.8-1.3,1.9-2.3,3.3-3c1.4-0.7,3.1-1.1,4.9-1.1c4.2,0,7.1,1.4,8.6,4.1h0.7
			c0.8-1.3,1.9-2.3,3.3-3.1c1.5-0.7,3.1-1.1,5-1.1c3.2,0,5.6,0.8,7.3,2.5c1.6,1.6,2.5,4.3,2.5,7.9v18.4h-7.7V200c0-2-0.3-3.6-1-4.6
			c-0.7-1-1.8-1.5-3.2-1.5c-1.9,0-3.3,0.7-4.2,2c-0.9,1.3-1.4,3.5-1.4,6.4V216.5z"/>
		<path class="st5" d="M1887.1,216.5l-1.5-3.8h-0.2c-1.3,1.6-2.6,2.8-4,3.4c-1.4,0.6-3.2,0.9-5.4,0.9c-2.7,0-4.8-0.8-6.4-2.3
			c-1.6-1.5-2.3-3.8-2.3-6.6c0-3,1-5.2,3.1-6.6c2.1-1.4,5.3-2.2,9.5-2.4l4.9-0.2v-1.2c0-2.9-1.5-4.3-4.4-4.3c-2.3,0-4.9,0.7-8,2
			l-2.6-5.2c3.2-1.7,6.9-2.6,10.8-2.6c3.8,0,6.7,0.8,8.7,2.5s3,4.2,3,7.5v18.8H1887.1z M1884.9,203.4l-3,0.1c-2.2,0.1-3.9,0.5-5,1.2
			c-1.1,0.7-1.6,1.9-1.6,3.4c0,2.2,1.2,3.3,3.7,3.3c1.8,0,3.2-0.5,4.3-1.5c1.1-1,1.6-2.4,1.6-4.1V203.4z"/>
	</g>
	<text id="hidden-text" transform="matrix(1 0 0 1 1375.755 288.901)" class="st9 st10 st11">he is not an ordinary llama</text>
	<g id="comein">
		<g id="dark">
			<g id="x">
				<g id="bracket_1_">
					<g>
						<path class="st12" d="M1065.2,411.4c-2.4-7.3-5.8-13.9-10.4-19.8c-4.5-6-9.5-10.3-14.8-13l-2.7,5.2c4,2.4,4.8,5.2,8.4,10.5
							c3.6,5.4,6.4,11.4,8.5,18.2c2,6.8,3,13.8,3,21.1c0,8-1,15.5-3,22.4s-4.8,12.9-8.3,18.1s-5.8,6.7-8.5,10.6l2.7,4.9
							c5.5-2.7,10.5-7.1,15-13c4.5-6,8-12.5,10.3-19.7c2.3-7.1,3.5-14.6,3.5-22.4C1068.8,426.3,1067.6,418.7,1065.2,411.4z"/>
					</g>
				</g>
				<g id="X">
					<g>
						<g class="st13">
							<path class="st14" d="M1032.6,472.5h-14.4L999,441.2l-19.3,31.3h-13.4l25.4-39.7l-23.8-36.9h13.9l17.7,29l17.7-29h13.5
								l-23.9,37.1L1032.6,472.5z"/>
						</g>
					</g>
				</g>
				<g id="bracket">
					<g>
						<path class="st12" d="M943.8,456.2c-2-6.9-3-14.4-3-22.4c0-7.3,1-14.3,3-21.1s4.8-12.9,8.5-18.2c3.6-5.4,4.3-8.2,8.4-10.5
							l-2.7-5.2c-5.4,2.7-10.3,7.1-14.8,13c-4.5,6-8,12.6-10.4,19.8s-3.6,15-3.6,23.2c0,7.7,1.1,15.2,3.5,22.4
							c2.3,7.2,5.7,13.8,10.3,19.7c4.5,6,9.5,10.3,15,13.1l2.7-4.9c-2.7-3.9-4.9-5.4-8.5-10.6C948.6,469.2,945.8,463.1,943.8,456.2z
							"/>
					</g>
				</g>
			</g>
			<g id="lambda">
				<g id="λ_1_">
					<g>
						<path class="st12" d="M561.1,461.1l-1,0.1l-2-0.1c-2-0.2-3.7-2-5.2-5.2L527,394.2c-1.3-3-3.1-5.4-5.5-7
							c-2.4-1.6-5.8-2.4-10.2-2.4c-2.9,0-5.5,0.3-7.9,0.9l0.2,10.3l1.7-0.1h2.1c3,0.1,5.1,1.6,6.5,4.4l5.5,12.3L496,471.5h16.1
							l14.9-40.4l12.3,30.1c1.7,4.2,3.8,7.1,6.2,8.8c2.4,1.7,5.8,2.5,10.2,2.5c2.1,0,4-0.2,5.7-0.6L561.1,461.1z"/>
					</g>
				</g>
				<g id="lambda-text">
					<path class="st14" d="M608.9,472.5l-2.4-8.1h-0.4c-2.8,3.5-5.6,6-8.5,7.2s-6.5,1.9-10.9,1.9c-5.7,0-10.1-1.5-13.3-4.6
						c-3.2-3.1-4.8-7.4-4.8-13c0-6,2.2-10.5,6.7-13.5s11.2-4.7,20.3-5l10-0.3V434c0-3.7-0.9-6.5-2.6-8.3s-4.4-2.7-8-2.7
						c-3,0-5.8,0.4-8.5,1.3s-5.4,1.9-7.9,3.1l-4-8.8c3.2-1.7,6.6-2.9,10.3-3.8c3.8-0.8,7.3-1.3,10.6-1.3c7.4,0,12.9,1.6,16.7,4.8
						c3.8,3.2,5.7,8.3,5.7,15.1v39.1L608.9,472.5L608.9,472.5z M590.6,464.1c4.5,0,8-1.3,10.8-3.8c2.7-2.5,4-6,4-10.5v-5l-7.4,0.3
						c-5.8,0.2-10,1.2-12.7,2.9c-2.6,1.7-3.9,4.3-3.9,7.9c0,2.6,0.8,4.6,2.3,6C585.2,463.4,587.5,464.1,590.6,464.1z"/>
					<path class="st14" d="M683.8,472.5h-12.4v-35.7c0-4.5-0.8-7.7-2.5-9.9c-1.7-2.2-4.3-3.3-7.9-3.3c-4.8,0-8.2,1.5-10.5,4.6
						c-2.2,3.1-3.3,8.2-3.3,15.4v28.9h-12.3v-57.9h9.6l1.7,7.6h0.7c1.6-2.7,3.9-4.9,7-6.4c3-1.5,6.4-2.3,10.1-2.3
						c8.9,0,14.8,3,17.7,9.1h0.8c1.7-2.9,4.1-5.1,7.2-6.7c3.1-1.6,6.7-2.4,10.7-2.4c6.9,0,12,1.7,15.1,5.2c3.2,3.5,4.8,8.8,4.8,16
						v37.8h-12.3v-35.7c0-4.5-0.8-7.7-2.6-9.9c-1.7-2.2-4.3-3.3-7.9-3.3c-4.8,0-8.3,1.5-10.5,4.5s-3.3,7.6-3.3,13.8L683.8,472.5
						L683.8,472.5L683.8,472.5z"/>
					<path class="st14" d="M767.1,413.5c7.2,0,12.9,2.6,16.9,7.9c4,5.2,6.1,12.6,6.1,22.1s-2,16.9-6.1,22.2s-9.8,7.9-17,7.9
						c-7.3,0-13-2.6-17.1-7.9h-0.8l-2.3,6.8h-9.2v-81.6h12.3v19.4c0,1.4-0.1,3.6-0.2,6.4c-0.1,2.9-0.2,4.6-0.3,5.4h0.5
						C753.7,416.4,759.5,413.5,767.1,413.5z M763.9,423.6c-4.9,0-8.5,1.5-10.7,4.3c-2.2,2.9-3.3,7.8-3.4,14.6v0.8
						c0,7.1,1.1,12.1,3.3,15.3c2.3,3.2,5.9,4.8,11,4.8c4.3,0,7.7-1.7,9.9-5.2c2.3-3.5,3.4-8.5,3.4-15
						C777.5,430.2,773,423.6,763.9,423.6z"/>
					<path class="st14" d="M823.9,473.6c-7.2,0-12.9-2.6-16.9-7.9c-4-5.2-6.1-12.6-6.1-22.1s2-16.9,6.1-22.2c4.1-5.3,9.8-7.9,17-7.9
						c7.6,0,13.4,2.8,17.4,8.5h0.7c-0.6-4.2-0.9-7.4-0.9-9.8V391h12.4v81.6H844L842,465h-0.6C837.3,470.7,831.5,473.6,823.9,473.6z
						 M827.3,463.6c5.1,0,8.8-1.4,11.1-4.3s3.5-7.4,3.6-13.9v-1.7c0-7.3-1.2-12.5-3.6-15.5c-2.4-3.1-6.1-4.6-11.1-4.6
						c-4.3,0-7.7,1.7-10,5.2s-3.5,8.5-3.5,15c0,6.4,1.1,11.3,3.4,14.7C819.3,461.9,822.7,463.6,827.3,463.6z"/>
					<path class="st14" d="M907.5,472.5l-2.4-8.1h-0.4c-2.8,3.5-5.6,6-8.5,7.2s-6.5,1.9-10.9,1.9c-5.7,0-10.1-1.5-13.3-4.6
						s-4.8-7.4-4.8-13c0-6,2.2-10.5,6.7-13.5s11.2-4.7,20.3-5l10-0.3V434c0-3.7-0.9-6.5-2.6-8.3s-4.4-2.7-8-2.7
						c-3,0-5.8,0.4-8.5,1.3s-5.4,1.9-7.9,3.1l-4-8.8c3.2-1.7,6.6-2.9,10.3-3.8c3.8-0.8,7.3-1.3,10.6-1.3c7.4,0,12.9,1.6,16.7,4.8
						c3.8,3.2,5.7,8.3,5.7,15.1v39.1L907.5,472.5L907.5,472.5z M889.2,464.1c4.5,0,8-1.3,10.8-3.8c2.7-2.5,4-6,4-10.5v-5l-7.4,0.3
						c-5.8,0.2-10,1.2-12.7,2.9c-2.6,1.7-3.9,4.3-3.9,7.9c0,2.6,0.8,4.6,2.3,6C883.8,463.4,886.1,464.1,889.2,464.1z"/>
				</g>
			</g>
		</g>
		<g>
			<path class="st5" d="M268,281.3h-8.3v-17.9c0-4.4-1.6-6.6-4.9-6.6c-2.3,0-4,0.8-5.1,2.4s-1.6,4.2-1.6,7.7v14.4h-8.3v-42.5h8.3
				v8.7c0,0.7-0.1,2.3-0.2,4.8l-0.2,2.5h0.4c1.9-3,4.8-4.5,8.9-4.5c3.6,0,6.3,1,8.2,2.9c1.9,1.9,2.8,4.7,2.8,8.3V281.3z"/>
			<path class="st5" d="M290.4,281.8c-4.9,0-8.8-1.4-11.5-4.1c-2.8-2.7-4.2-6.6-4.2-11.5c0-5.1,1.3-9.1,3.8-11.9
				c2.6-2.8,6.1-4.2,10.6-4.2c4.3,0,7.7,1.2,10.1,3.7s3.6,5.9,3.6,10.2v4h-19.7c0.1,2.4,0.8,4.2,2.1,5.6c1.3,1.3,3.2,2,5.5,2
				c1.8,0,3.6-0.2,5.2-0.6s3.4-1,5.1-1.8v6.5c-1.5,0.7-3,1.3-4.7,1.6C294.9,281.7,292.8,281.8,290.4,281.8z M289.3,256.1
				c-1.8,0-3.2,0.6-4.2,1.7c-1,1.1-1.6,2.7-1.7,4.8h11.7c0-2.1-0.6-3.7-1.6-4.8S291,256.1,289.3,256.1z"/>
			<path class="st5" d="M341,281.8c-3.6,0-6.4-1.3-8.4-3.9h-0.4c0.3,2.6,0.4,4,0.4,4.4v12.4h-8.3v-44h6.8l1.2,4h0.4
				c2-3,4.8-4.5,8.7-4.5c3.6,0,6.4,1.4,8.5,4.2c2,2.8,3.1,6.7,3.1,11.6c0,3.3-0.5,6.1-1.4,8.5s-2.3,4.2-4.1,5.5
				C345.5,281.2,343.4,281.8,341,281.8z M338.6,256.8c-2.1,0-3.6,0.6-4.5,1.9c-0.9,1.3-1.4,3.4-1.5,6.3v0.9c0,3.3,0.5,5.6,1.5,7.1
				c1,1.4,2.5,2.1,4.6,2.1c3.7,0,5.6-3.1,5.6-9.2c0-3-0.5-5.3-1.4-6.8C342,257.6,340.5,256.8,338.6,256.8z"/>
			<path class="st5" d="M381.3,281.3l-1.1-3.9h-0.4c-0.9,1.4-2.2,2.5-3.8,3.3s-3.5,1.2-5.6,1.2c-3.6,0-6.3-1-8.1-2.9
				c-1.8-1.9-2.7-4.7-2.7-8.3v-19.9h8.3v17.9c0,2.2,0.4,3.9,1.2,5c0.8,1.1,2,1.7,3.7,1.7c2.3,0,4-0.8,5.1-2.3s1.6-4.1,1.6-7.8v-14.4
				h8.3v30.6H381.3z"/>
			<path class="st5" d="M409.4,275.2c1.5,0,3.2-0.3,5.2-1v6.2c-2.1,0.9-4.6,1.4-7.7,1.4c-3.3,0-5.8-0.8-7.3-2.5
				c-1.5-1.7-2.3-4.2-2.3-7.6V257h-4v-3.5l4.6-2.8l2.4-6.5h5.3v6.5h8.6v6.3h-8.6v14.7c0,1.2,0.3,2.1,1,2.6
				C407.4,274.9,408.3,275.2,409.4,275.2z"/>
			<path class="st5" d="M442.1,272.2c0,3.1-1.1,5.5-3.3,7.2c-2.2,1.6-5.4,2.5-9.8,2.5c-2.2,0-4.1-0.2-5.7-0.5
				c-1.6-0.3-3-0.7-4.4-1.3v-6.9c1.5,0.7,3.3,1.3,5.2,1.8s3.7,0.7,5.1,0.7c3,0,4.5-0.9,4.5-2.6c0-0.7-0.2-1.2-0.6-1.6
				c-0.4-0.4-1.1-0.9-2.1-1.4s-2.3-1.1-3.9-1.8c-2.4-1-4.1-1.9-5.2-2.7c-1.1-0.8-1.9-1.8-2.4-2.9c-0.5-1.1-0.8-2.4-0.8-4
				c0-2.7,1.1-4.8,3.2-6.3c2.1-1.5,5.1-2.2,9-2.2c3.7,0,7.3,0.8,10.7,2.4l-2.5,6c-1.5-0.7-3-1.2-4.3-1.6c-1.3-0.4-2.7-0.6-4.1-0.6
				c-2.5,0-3.7,0.7-3.7,2c0,0.7,0.4,1.4,1.2,1.9s2.5,1.4,5.2,2.4c2.4,1,4.1,1.9,5.2,2.7c1.1,0.8,1.9,1.8,2.5,2.9
				C441.9,269.4,442.1,270.7,442.1,272.2z"/>
			<path class="st5" d="M461,266c0-4.8,0.7-9.4,2.1-13.6c1.4-4.2,3.4-7.9,6.1-11.1h6.8c-2.6,3.5-4.5,7.4-5.8,11.6s-2,8.5-2,13
				c0,4.5,0.7,8.8,2,12.9s3.2,7.9,5.7,11.3h-6.8c-2.7-3.1-4.7-6.7-6.1-10.9C461.7,275.2,461,270.7,461,266z"/>
			<path class="st5" d="M491.8,281.8c-3.6,0-6.4-1.4-8.5-4.2s-3.1-6.7-3.1-11.6c0-5,1-8.9,3.1-11.7c2.1-2.8,5-4.2,8.6-4.2
				c3.8,0,6.8,1.5,8.8,4.5h0.3c-0.4-2.3-0.6-4.3-0.6-6.1v-9.8h8.4v42.5h-6.4l-1.6-4h-0.4C498.6,280.3,495.7,281.8,491.8,281.8z
				 M494.8,275.2c2.1,0,3.7-0.6,4.7-1.9c1-1.2,1.5-3.3,1.6-6.3v-0.9c0-3.3-0.5-5.6-1.5-7.1s-2.7-2.1-4.9-2.1c-1.9,0-3.3,0.8-4.3,2.4
				c-1,1.6-1.5,3.9-1.5,6.9s0.5,5.3,1.6,6.8S492.8,275.2,494.8,275.2z"/>
			<path class="st5" d="M531.4,281.8c-4.9,0-8.8-1.4-11.5-4.1c-2.8-2.7-4.2-6.6-4.2-11.5c0-5.1,1.3-9.1,3.8-11.9
				c2.6-2.8,6.1-4.2,10.6-4.2c4.3,0,7.7,1.2,10.1,3.7s3.6,5.9,3.6,10.2v4h-19.7c0.1,2.4,0.8,4.2,2.1,5.6c1.3,1.3,3.2,2,5.5,2
				c1.8,0,3.6-0.2,5.2-0.6s3.4-1,5.1-1.8v6.5c-1.5,0.7-3,1.3-4.7,1.6C535.8,281.7,533.8,281.8,531.4,281.8z M530.2,256.1
				c-1.8,0-3.2,0.6-4.2,1.7c-1,1.1-1.6,2.7-1.7,4.8h11.7c0-2.1-0.6-3.7-1.6-4.8S532,256.1,530.2,256.1z"/>
			<path class="st5" d="M567.6,257h-7.2v24.3H552V257h-4.6v-4l4.6-2.2v-2.2c0-3.5,0.9-6,2.6-7.6c1.7-1.6,4.5-2.4,8.2-2.4
				c2.9,0,5.4,0.4,7.7,1.3l-2.1,6.1c-1.7-0.5-3.2-0.8-4.6-0.8c-1.2,0-2,0.4-2.6,1.1c-0.5,0.7-0.8,1.6-0.8,2.7v1.9h7.2V257z"/>
			<path class="st5" d="M600.6,281.3h-8.3v-17.9c0-2.2-0.4-3.9-1.2-5c-0.8-1.1-2-1.7-3.7-1.7c-2.3,0-4,0.8-5.1,2.3s-1.6,4.1-1.6,7.8
				v14.4h-8.3v-30.6h6.4l1.1,3.9h0.5c0.9-1.5,2.2-2.6,3.8-3.3c1.6-0.8,3.5-1.1,5.6-1.1c3.6,0,6.3,1,8.1,2.9c1.8,1.9,2.8,4.7,2.8,8.3
				V281.3z"/>
			<path class="st5" d="M621.5,266c0,4.8-0.7,9.3-2.1,13.4c-1.4,4.1-3.5,7.7-6.1,10.8h-6.8c2.5-3.4,4.4-7.1,5.7-11.3
				c1.3-4.2,2-8.5,2-13c0-4.4-0.7-8.8-2-13s-3.3-8.1-5.8-11.6h6.8c2.7,3.2,4.7,6.9,6.1,11.1C620.8,256.7,621.5,261.2,621.5,266z"/>
			<path class="st5" d="M325.8,312.2c3.1,0,5.5,1.2,7.3,3.6s2.6,5.7,2.6,9.9c0,4.3-0.9,7.7-2.7,10.1s-4.3,3.6-7.4,3.6
				c-3.1,0-5.5-1.1-7.2-3.4h-0.5l-1.2,2.9h-5.5v-36.5h7.1v8.5c0,1.1-0.1,2.8-0.3,5.2h0.3C320,313.5,322.5,312.2,325.8,312.2z
				 M323.5,317.9c-1.8,0-3.1,0.5-3.9,1.6s-1.2,2.9-1.3,5.4v0.8c0,2.8,0.4,4.8,1.3,6s2.2,1.8,4,1.8c1.5,0,2.6-0.7,3.5-2
				s1.3-3.3,1.3-5.9s-0.4-4.5-1.3-5.8S325,317.9,323.5,317.9z"/>
			<path class="st5" d="M358.2,338.9l-1.4-3.6h-0.2c-1.2,1.5-2.4,2.6-3.7,3.2s-2.9,0.9-5,0.9c-2.5,0-4.5-0.7-5.9-2.2
				s-2.2-3.5-2.2-6.1c0-2.8,1-4.8,2.9-6.2s4.9-2.1,8.8-2.2l4.5-0.1v-1.1c0-2.7-1.4-4-4.1-4c-2.1,0-4.6,0.6-7.4,1.9l-2.4-4.8
				c3-1.6,6.4-2.4,10-2.4c3.5,0,6.2,0.8,8.1,2.3s2.8,3.9,2.8,7v17.5H358.2z M356.1,326.8l-2.8,0.1c-2.1,0.1-3.6,0.4-4.6,1.1
				s-1.5,1.7-1.5,3.1c0,2,1.2,3,3.5,3c1.7,0,3-0.5,4-1.4s1.5-2.2,1.5-3.8V326.8z"/>
			<path class="st5" d="M381.2,339.4c-8.2,0-12.2-4.5-12.2-13.4c0-4.5,1.1-7.9,3.3-10.2s5.4-3.5,9.5-3.5c3,0,5.8,0.6,8.2,1.8
				l-2.1,5.5c-1.1-0.5-2.2-0.8-3.1-1.1s-1.9-0.4-2.9-0.4c-3.7,0-5.6,2.6-5.6,7.9c0,5.1,1.9,7.7,5.6,7.7c1.4,0,2.6-0.2,3.8-0.6
				s2.3-0.9,3.5-1.7v6.1c-1.2,0.7-2.3,1.2-3.5,1.5S383,339.4,381.2,339.4z"/>
			<path class="st5" d="M402.1,324.6l3.1-4l7.3-8h8.1l-10.4,11.4l11,14.8H413l-7.5-10.6l-3.1,2.5v8.2h-7.1v-36.5h7.1v16.3
				L402.1,324.6L402.1,324.6z"/>
			<path class="st5" d="M437.1,305.9c0-2.3,1.3-3.5,3.9-3.5s3.9,1.2,3.9,3.5c0,1.1-0.3,2-1,2.6s-1.6,0.9-2.9,0.9
				C438.4,309.4,437.1,308.3,437.1,305.9z M444.6,338.9h-7.1v-26.2h7.1V338.9z"/>
			<path class="st5" d="M476.3,338.9h-7.1v-15.3c0-1.9-0.3-3.3-1-4.3s-1.7-1.4-3.2-1.4c-2,0-3.4,0.7-4.3,2s-1.3,3.6-1.3,6.6v12.3
				h-7.1v-26.2h5.5l1,3.4h0.4c0.8-1.3,1.9-2.2,3.3-2.9s3-1,4.8-1c3,0,5.4,0.8,6.9,2.5s2.4,4,2.4,7.1V338.9z"/>
			<path class="st5" d="M494.7,333.7c1.2,0,2.8-0.3,4.5-0.8v5.3c-1.8,0.8-4,1.2-6.6,1.2c-2.9,0-4.9-0.7-6.2-2.2s-2-3.6-2-6.5v-12.6
				H481v-3l3.9-2.4l2.1-5.5h4.6v5.6h7.3v5.4h-7.3v12.6c0,1,0.3,1.8,0.9,2.2S493.8,333.7,494.7,333.7z"/>
			<path class="st5" d="M528.3,325.7c0,4.3-1.1,7.6-3.4,10s-5.4,3.6-9.4,3.6c-2.5,0-4.7-0.6-6.7-1.7s-3.4-2.7-4.4-4.7
				s-1.5-4.5-1.5-7.2c0-4.3,1.1-7.6,3.4-10s5.4-3.6,9.4-3.6c2.5,0,4.7,0.5,6.7,1.6s3.4,2.7,4.4,4.7S528.3,323,528.3,325.7z
				 M510.2,325.7c0,2.6,0.4,4.6,1.3,5.9s2.2,2,4.2,2c1.9,0,3.3-0.7,4.1-2s1.3-3.3,1.3-5.9c0-2.6-0.4-4.5-1.3-5.8s-2.2-1.9-4.1-1.9
				c-1.9,0-3.3,0.6-4.1,1.9S510.2,323.1,510.2,325.7z"/>
			<path class="st5" d="M561.1,339.4c-3.1,0-5.5-1.1-7.2-3.4h-0.4c0.2,2.2,0.4,3.5,0.4,3.8v10.6h-7.1v-37.7h5.8l1,3.4h0.3
				c1.7-2.6,4.1-3.9,7.4-3.9c3.1,0,5.5,1.2,7.3,3.6s2.6,5.7,2.6,10c0,2.8-0.4,5.2-1.2,7.3s-2,3.6-3.5,4.7S563.1,339.4,561.1,339.4z
				 M559,317.9c-1.8,0-3.1,0.5-3.9,1.6s-1.2,2.9-1.3,5.4v0.8c0,2.8,0.4,4.8,1.3,6s2.2,1.8,4,1.8c3.2,0,4.8-2.6,4.8-7.9
				c0-2.6-0.4-4.5-1.2-5.8S560.6,317.9,559,317.9z"/>
			<path class="st5" d="M591.7,312.2c1,0,1.8,0.1,2.4,0.2l-0.5,6.7c-0.6-0.2-1.3-0.2-2.1-0.2c-2.3,0-4.1,0.6-5.3,1.8
				s-1.9,2.8-1.9,4.9v13.3H577v-26.2h5.4l1.1,4.4h0.4c0.8-1.5,1.9-2.7,3.3-3.6S590,312.2,591.7,312.2z"/>
			<path class="st5" d="M622.7,325.7c0,4.3-1.1,7.6-3.4,10s-5.4,3.6-9.4,3.6c-2.5,0-4.7-0.6-6.7-1.7s-3.4-2.7-4.4-4.7
				s-1.5-4.5-1.5-7.2c0-4.3,1.1-7.6,3.4-10s5.4-3.6,9.4-3.6c2.5,0,4.7,0.5,6.7,1.6s3.4,2.7,4.4,4.7S622.7,323,622.7,325.7z
				 M604.5,325.7c0,2.6,0.4,4.6,1.3,5.9s2.2,2,4.2,2c1.9,0,3.3-0.7,4.1-2s1.3-3.3,1.3-5.9c0-2.6-0.4-4.5-1.3-5.8s-2.2-1.9-4.1-1.9
				c-1.9,0-3.3,0.6-4.1,1.9S604.5,323.1,604.5,325.7z"/>
			<path class="st5" d="M651.4,312.7v3.6l-4.1,1.1c0.8,1.2,1.1,2.5,1.1,3.9c0,2.8-1,5-2.9,6.6s-4.7,2.4-8.2,2.4l-1.3-0.1l-1.1-0.1
				c-0.7,0.6-1.1,1.2-1.1,1.9c0,1,1.3,1.5,3.9,1.5h4.5c2.9,0,5.1,0.6,6.6,1.9s2.3,3,2.3,5.4c0,3.1-1.3,5.4-3.8,7.1s-6.2,2.5-11,2.5
				c-3.7,0-6.4-0.6-8.4-1.9s-2.9-3.1-2.9-5.4c0-1.6,0.5-2.9,1.5-4s2.4-1.8,4.3-2.3c-0.7-0.3-1.4-0.8-1.9-1.5s-0.8-1.5-0.8-2.3
				c0-1,0.3-1.8,0.9-2.5s1.4-1.3,2.5-2c-1.4-0.6-2.5-1.5-3.3-2.9s-1.2-2.9-1.2-4.6c0-2.9,0.9-5.1,2.8-6.6s4.5-2.3,8-2.3
				c0.7,0,1.6,0.1,2.6,0.2s1.7,0.2,1.9,0.3H651.4z M631.1,342.6c0,1,0.5,1.8,1.4,2.3s2.3,0.8,4,0.8c2.6,0,4.6-0.4,6-1.1
				s2.2-1.7,2.2-2.9c0-1-0.4-1.7-1.3-2s-2.2-0.6-4-0.6h-3.7c-1.3,0-2.4,0.3-3.3,0.9S631.1,341.6,631.1,342.6z M633.7,321.3
				c0,1.4,0.3,2.5,1,3.4s1.6,1.2,3,1.2c1.3,0,2.3-0.4,3-1.2s0.9-2,0.9-3.4c0-3.2-1.3-4.7-3.9-4.7
				C635.1,316.5,633.7,318.1,633.7,321.3z"/>
			<path class="st5" d="M670.3,312.2c1,0,1.8,0.1,2.4,0.2l-0.5,6.7c-0.6-0.2-1.3-0.2-2.1-0.2c-2.3,0-4.1,0.6-5.3,1.8
				s-1.9,2.8-1.9,4.9v13.3h-7.1v-26.2h5.4l1.1,4.4h0.4c0.8-1.5,1.9-2.7,3.3-3.6S668.7,312.2,670.3,312.2z"/>
			<path class="st5" d="M694.1,338.9l-1.4-3.6h-0.2c-1.2,1.5-2.4,2.6-3.7,3.2s-2.9,0.9-5,0.9c-2.5,0-4.5-0.7-5.9-2.2
				s-2.2-3.5-2.2-6.1c0-2.8,1-4.8,2.9-6.2s4.9-2.1,8.8-2.2l4.5-0.1v-1.1c0-2.7-1.4-4-4.1-4c-2.1,0-4.6,0.6-7.4,1.9l-2.4-4.8
				c3-1.6,6.4-2.4,10-2.4c3.5,0,6.2,0.8,8.1,2.3s2.8,3.9,2.8,7v17.5H694.1z M692,326.8l-2.8,0.1c-2.1,0.1-3.6,0.4-4.6,1.1
				s-1.5,1.7-1.5,3.1c0,2,1.2,3,3.5,3c1.7,0,3-0.5,4-1.4s1.5-2.2,1.5-3.8V326.8z"/>
			<path class="st5" d="M729.9,338.9h-7.1v-15.3c0-1.9-0.3-3.3-0.9-4.3s-1.6-1.4-3-1.4c-1.8,0-3.2,0.7-4,2s-1.2,3.6-1.2,6.6v12.3
				h-7.1v-26.2h5.5l1,3.4h0.4c0.7-1.2,1.7-2.1,3-2.8s2.9-1,4.6-1c3.9,0,6.6,1.3,8,3.8h0.6c0.7-1.2,1.7-2.2,3.1-2.8s2.9-1,4.6-1
				c3,0,5.2,0.8,6.7,2.3s2.3,4,2.3,7.3v17.1h-7.2v-15.3c0-1.9-0.3-3.3-0.9-4.3s-1.6-1.4-3-1.4c-1.8,0-3.1,0.6-3.9,1.9
				s-1.3,3.2-1.3,6V338.9z"/>
			<path class="st5" d="M777.1,338.9h-7.1v-15.3c0-1.9-0.3-3.3-0.9-4.3s-1.6-1.4-3-1.4c-1.8,0-3.2,0.7-4,2s-1.2,3.6-1.2,6.6v12.3
				h-7.1v-26.2h5.5l1,3.4h0.4c0.7-1.2,1.7-2.1,3-2.8s2.9-1,4.6-1c3.9,0,6.6,1.3,8,3.8h0.6c0.7-1.2,1.7-2.2,3.1-2.8s2.9-1,4.6-1
				c3,0,5.2,0.8,6.7,2.3s2.3,4,2.3,7.3v17.1h-7.2v-15.3c0-1.9-0.3-3.3-0.9-4.3s-1.6-1.4-3-1.4c-1.8,0-3.1,0.6-3.9,1.9
				s-1.3,3.2-1.3,6V338.9z"/>
			<path class="st5" d="M800.4,305.9c0-2.3,1.3-3.5,3.9-3.5s3.9,1.2,3.9,3.5c0,1.1-0.3,2-1,2.6s-1.6,0.9-2.9,0.9
				C801.7,309.4,800.4,308.3,800.4,305.9z M807.9,338.9h-7.1v-26.2h7.1V338.9z"/>
			<path class="st5" d="M839.6,338.9h-7.1v-15.3c0-1.9-0.3-3.3-1-4.3s-1.7-1.4-3.2-1.4c-2,0-3.4,0.7-4.3,2s-1.3,3.6-1.3,6.6v12.3
				h-7.1v-26.2h5.5l1,3.4h0.4c0.8-1.3,1.9-2.2,3.3-2.9s3-1,4.8-1c3,0,5.4,0.8,6.9,2.5s2.4,4,2.4,7.1V338.9z"/>
			<path class="st5" d="M869.7,312.7v3.6l-4.1,1.1c0.8,1.2,1.1,2.5,1.1,3.9c0,2.8-1,5-2.9,6.6s-4.7,2.4-8.2,2.4l-1.3-0.1l-1.1-0.1
				c-0.7,0.6-1.1,1.2-1.1,1.9c0,1,1.3,1.5,3.9,1.5h4.5c2.9,0,5.1,0.6,6.6,1.9s2.3,3,2.3,5.4c0,3.1-1.3,5.4-3.8,7.1s-6.2,2.5-11,2.5
				c-3.7,0-6.4-0.6-8.4-1.9s-2.9-3.1-2.9-5.4c0-1.6,0.5-2.9,1.5-4s2.4-1.8,4.3-2.3c-0.7-0.3-1.4-0.8-1.9-1.5s-0.8-1.5-0.8-2.3
				c0-1,0.3-1.8,0.9-2.5s1.4-1.3,2.5-2c-1.4-0.6-2.5-1.5-3.3-2.9s-1.2-2.9-1.2-4.6c0-2.9,0.9-5.1,2.8-6.6s4.5-2.3,8-2.3
				c0.7,0,1.6,0.1,2.6,0.2s1.7,0.2,1.9,0.3H869.7z M849.5,342.6c0,1,0.5,1.8,1.4,2.3s2.3,0.8,4,0.8c2.6,0,4.6-0.4,6-1.1
				s2.2-1.7,2.2-2.9c0-1-0.4-1.7-1.3-2s-2.2-0.6-4-0.6h-3.7c-1.3,0-2.4,0.3-3.3,0.9S849.5,341.6,849.5,342.6z M852.1,321.3
				c0,1.4,0.3,2.5,1,3.4s1.6,1.2,3,1.2c1.3,0,2.3-0.4,3-1.2s0.9-2,0.9-3.4c0-3.2-1.3-4.7-3.9-4.7
				C853.4,316.5,852.1,318.1,852.1,321.3z"/>
			<path class="st5" d="M908.1,338.9l-2-9.2l-2.7-11.6h-0.2l-4.8,20.7h-7.7l-7.5-26.2h7.1l3,11.6c0.5,2.1,1,4.9,1.5,8.6h0.1
				c0.1-1.2,0.3-3.1,0.8-5.6l0.4-2l3.2-12.6h7.9l3.1,12.6c0.1,0.3,0.2,0.9,0.3,1.5s0.3,1.4,0.4,2.1s0.2,1.5,0.3,2.2s0.2,1.3,0.2,1.7
				h0.1c0.1-1.1,0.4-2.7,0.8-4.6s0.6-3.3,0.8-4l3.1-11.6h7l-7.5,26.2H908.1z"/>
			<path class="st5" d="M927.3,305.9c0-2.3,1.3-3.5,3.9-3.5s3.9,1.2,3.9,3.5c0,1.1-0.3,2-1,2.6s-1.6,0.9-2.9,0.9
				C928.6,309.4,927.3,308.3,927.3,305.9z M934.8,338.9h-7.1v-26.2h7.1V338.9z"/>
			<path class="st5" d="M953.3,333.7c1.2,0,2.8-0.3,4.5-0.8v5.3c-1.8,0.8-4,1.2-6.6,1.2c-2.9,0-4.9-0.7-6.2-2.2s-2-3.6-2-6.5v-12.6
				h-3.4v-3l3.9-2.4l2.1-5.5h4.6v5.6h7.3v5.4h-7.3v12.6c0,1,0.3,1.8,0.9,2.2S952.4,333.7,953.3,333.7z"/>
			<path class="st5" d="M987.3,338.9h-7.1v-15.3c0-3.8-1.4-5.7-4.2-5.7c-2,0-3.4,0.7-4.3,2s-1.3,3.6-1.3,6.6v12.3h-7.1v-36.5h7.1
				v7.4c0,0.6-0.1,1.9-0.2,4.1l-0.2,2.1h0.4c1.6-2.6,4.1-3.8,7.6-3.8c3.1,0,5.4,0.8,7,2.5s2.4,4,2.4,7.1V338.9z"/>
		</g>
	</g>
</g>
</svg>
