<?xml version="1.0" encoding="utf-8"?>
<!-- Generator: Adobe Illustrator 19.2.0, SVG Export Plug-In . SVG Version: 6.00 Build 0)  -->
<svg version="1.1" id="Warstwa_1" xmlns="http://www.w3.org/2000/svg" xmlns:xlink="http://www.w3.org/1999/xlink" x="0px" y="0px"
	 viewBox="0 0 438.2 563.7" style="enable-background:new 0 0 438.2 563.7;" xml:space="preserve">
<style type="text/css">
	.st0{fill:#FFFFFF;}
	.st1{fill:#242424;}
	.st2{fill:#EAEAEA;}
	.st3{display:none;}
	.st4{display:inline;}
	.st5{fill:#231F20;}
</style>
<g id="lama">
	<g id="body">
		<g>
			<path class="st0" d="M22.4,348.4c2.7-0.5,5.4-0.9,8.1-1.4c-0.8,16.7-1.5,33.5-2.3,50.2c0.9-0.3,1.9-0.7,2.9-1
				c2.2,2.1,2.5,2.5,4.7,4.6c-2.4,7.5-4.8,15.1-7.1,22.6c2-0.9,3.9-1.8,5.9-2.7c0,40.4,24.2,90.5,24.2,142.4
				c10.4,0.8,12.7-0.5,23.1,0.3c-0.5-34.8,4.7-73.2,4.2-108c0,0.5,4.8-10.8,4.8-10.2c0,33.6,2.8,83.3,2.8,118.2
				c10.2,0.5,11.4-0.2,21.7,0.3c0.2-46.5-0.8-77.8,17.2-134.9c-1.8,5.8,11.5,4.2,17.2,6.3c-2.3,7.9-4.5,15.8-6.8,23.6
				c5.2-3.5,10.3-6.9,15.4-10.4c-0.5,4.5-0.9,9-1.4,13.5c3.2-5.8,6.3-11.5,9.5-17.2c0.3,4.2,0.6,8.4,0.9,12.6h4.4
				c3.4-4.8,6.7-9.6,10-14.4c5.9-0.8,11.7-1.5,17.6-2.3c1.2,40.7,2.4,81.5,3.6,122.2c8.2,0.9,16.9-0.5,25.2,0.4
				c4.6-26.7,4.2-60.6,9-91.7c1.4-8.6,13.5-17.9,18-25.8c0.9-1.6,2.7-2.4,4.5-2c13.8,3.4,41.6,6.2,49.2,9.8c4.5,2.2,3.5,4.9,5,33.4
				c13.1,0.3,17.1,1.5,30.2,1.8c-0.8-34.2-0.2-13.9-1-48.1c1-19.4-44.7-7.9-40.2-26.2c2.7,3.7,10.9-3,13.6,0.6
				c-2.6-9.5-10.6-8.7-13.2-18.2h5.8v-22.6c2.6,3.3,5.1,6.6,7.7,9.9c-1.7-13.3-3.3-26.5-5-39.8c2.1,1.3,4.1,2.7,6.2,4.1
				c-2.1-12.2-4.2-24.4-6.3-36.6c2.8,3.5,5.5,6.9,8.2,10.4c0-10-12.6-37.9-12.6-37.9c3.4,0.5,6.9,1,10.4,1.5
				c-0.3-1.7-0.7-3.4-1.1-5.1c-20.7-52.8-7.3-137.6-7.3-196.1c-3.4-8.9-7.4-17.6-17.7-24.3c0-5.4,29.6,6.7,45.3-5.2
				C352,40.5,354.4,14,332.2,14c-7.8,15.1-51.4,24.8-51.4,44.7c-14.6-0.2-29.3-0.3-43.9-0.5c0-22.2,17.2-42.1,17.2-57.7
				c-2.2,0-10.8-0.6-13-0.4c-23.3,1.9-33.3,28.1-33.3,28.1s13,36.5,15.4,37.8c-46.3,46.2,23.4,206.8-71,206.8
				c1.4,2.1,2.7,4.2,4.1,6.3c-10-2.1-19.9-4.2-29.9-6.3c0.5,0.8,0.9,1.5,1.4,2.3c-10.2-1.4-20.3-2.7-30.4-4.1
				c0.5,2.1,0.9,4.2,1.4,6.3c-9.6-0.3-19.2-0.6-28.8-0.9c1.8,1.8,3.6,3.6,5.4,5.4c-10.9-1.6-21.7-3.3-32.6-5c2.1,2,4.2,3.9,6.3,5.9
				c-11.3-2.9-22.6-5.7-33.9-8.6v8.9c-3.9,0.9-7.8,1.8-11.7,2.7c1.1,2.6,2.1,5.3,3.2,8c-2.2,2.2-4.5,4.4-6.7,6.6
				c9.5,0,15.7,9,30.2,9C27.6,322.3,25.1,335.3,22.4,348.4z"/>
		</g>
	</g>
	<g id="head">
		<g id="eye1">
			<g>
				<ellipse class="st1" cx="286.6" cy="115.9" rx="5.7" ry="5.7"/>
			</g>
		</g>
		<g id="eye2">
			<g>
				<ellipse class="st1" cx="219" cy="115.9" rx="5.7" ry="5.7"/>
			</g>
		</g>
		<g id="mouth_1_">
			<g id="Elipsa_3">
				<g>
					<path class="st2" d="M235.8,133.4c0,13.3,5.4,23.8,17.2,23.8c11.6,0,17.7-10.8,18.3-24.1S264.8,109,253,109
						C241.3,109,235.8,120.1,235.8,133.4z"/>
				</g>
			</g>
			<g id="smile">
				<g>
					<path class="st1" d="M243.2,126.2v0.9c0,0,1.3,1.7,4,3.3c3,1.9,8.5,0.9,11.7,0.9c2.9,0,5.3-4.3,5.3-4.3v-0.9
						c0,0-2.8,3.5-5.3,3.4c-1.4,0-8.1,1.6-11.7,0C244.2,128.2,243.2,126.2,243.2,126.2z"/>
				</g>
			</g>
			<g id="face" class="st3">
				<g class="st4">
					<path class="st1" d="M246,129.7c-1-0.2-0.2,0.3,0.3,0.4c5.9,0.9,11.7,1.2,17.6,1c0.6,0-0.7-0.5-1-0.5
						C257.2,130.9,251.6,130.6,246,129.7L246,129.7z"/>
				</g>
			</g>
			<g id="cheek" class="st3">
				<g class="st4">
					<path class="st1" d="M246.5,126.2c-0.1-0.4-1.5-0.6-1.4-0.3c0.6,4-0.8,7-2.2,10.7c-0.2,0.4,1.2,0.8,1.4,0.4
						C245.7,133.3,247.1,130.2,246.5,126.2L246.5,126.2z"/>
				</g>
			</g>
			<g id="noseline">
				<g>
					<polygon class="st1" points="253.2,117.9 253.2,129.7 254.1,129.7 254.1,117.9 					"/>
				</g>
			</g>
			<g id="nose">
				<g>
					<path class="st1" d="M245,118.7c0,3.1,3.5,3.7,8.2,3.7c4.7,0,8.8-0.5,8.8-3.7s-3.8-5.7-8.5-5.7C248.8,113,245,115.6,245,118.7z
						"/>
				</g>
			</g>
		</g>
	</g>
	<g id="tie">
		<g>
			<path class="st1" d="M224,250.8c3.4,2.8,24.5-9.6,24.5-9.6c1.2,1.1,2.8,1.8,4.6,1.8s3.4-0.7,4.6-1.8c0,0,20.5,12,24.5,9.6
				c4-2.3,3.8-26.2,0-28.4c-3.9-2.3-24.1,9.9-24.1,9.9c-1.2-1.3-3-2.1-5-2.1s-3.8,0.8-5,2.1c0,0-20.1-11.5-24.2-10.2
				C219.9,223.4,220.8,248,224,250.8z"/>
		</g>
	</g>
	<g id="glasses">
		<g>
			<path class="st1" d="M183.1,104c0,0.3,0,0.6,0.1,0.9c0.1,0.5,0.3,0.7,0.7,0.9c0.9,0.3,1.5,1.1,2.1,1.9c0.5,0.7,0.7,1.7,1,2.6
				s0.6,1.9,0.8,2.9c0.4,1.9,0.9,3.8,1.3,5.7c0.8,3.8,1.8,7.7,3.3,11.4c0.7,1.7,1.5,3.4,2.7,4.9c1.8,2.3,4.3,3.7,7,4.5
				c2.7,0.8,5.4,1.2,8.2,1.3c4.6,0.2,9.2,0,13.7-0.9c3-0.6,5.9-1.5,8.6-3c3.8-2.2,6.7-5.2,8.9-9c2.6-4.6,4.7-9.4,6.3-14.4
				c0.3-1.1,0.8-2.3,1.3-3.4c0.2-0.6,0.6-1.1,1-1.6c0.9-1.1,2.2-1.4,3.5-1.5c0.5,0,1.1,0,1.7,0.1c1.8,0.3,3,1.3,3.6,3
				c0.4,1.2,0.7,2.3,1.1,3.5c1.2,4.1,2.6,8.1,4.6,11.9c2,3.8,4.6,7.1,7.8,9.9c2.1,1.8,4.6,2.9,7.2,3.7c3.6,1.1,7.2,1.6,10.9,1.9
				c3.7,0.2,7.3,0.2,10.9-0.4c2-0.3,4-0.8,5.9-1.6c3.2-1.3,5.4-3.6,6.9-6.6c1.4-2.6,2.2-5.5,2.9-8.4c0.7-3.1,1.3-6.1,2-9.2
				c0.2-0.6,0.4-1.3,0.6-1.9c0.3-1,0.5-2.1,0.9-3.1c0.5-1.4,1.1-2.8,2.4-3.7c0.3-0.2,0.6-0.4,0.9-0.5s0.5-0.3,0.5-0.6
				c0-0.4,0.1-0.7,0.1-1.1c0-2.3-0.1-4.7-0.2-7c0-0.5-0.3-0.8-0.7-0.9c-0.8-0.2-1.7-0.5-2.5-0.6c-3.9-0.5-7.9-1-11.8-1.5
				c-4.8-0.6-9.6-0.8-15-0.8c-6.6-0.1-13.7,0.5-20.7,1.8c-3.7,0.6-7.1,1.8-10.6,2.9c-2,0.7-3.9,1.2-5.9,1.6
				c-3.3,0.7-6.5,0.2-9.7-0.8c-2.1-0.7-4.1-1.4-6.1-2.1c-4-1.3-8.1-2.1-12.3-2.6c-6.9-0.9-13.7-1-20.6-0.7
				c-3.6,0.2-7.1,0.3-10.7,0.6c-4.5,0.3-8.9,1-13.3,1.7c-0.3,0-0.6,0.1-0.9,0.2c-0.5,0.2-0.7,0.4-0.7,0.9c-0.1,1-0.2,2-0.2,3
				C182.6,101.2,182.6,102.6,183.1,104z M315.8,100.5c0-0.4,1.2-0.7,2.7-0.7s2.7,0.3,2.7,0.7s-1.2,0.7-2.7,0.7
				S315.8,100.9,315.8,100.5z M265.5,106.3c0.2-1.6,0.9-3,2.1-4c0.7-0.6,1.5-1.1,2.4-1.6c1.7-1,3.6-1.4,5.5-1.8
				c4.7-1.1,9.4-1.4,15-1.5c1.6,0.1,4.1,0.2,6.5,0.4c3.3,0.3,6.6,0.8,9.8,1.6c3.5,1,5.7,3.2,6.5,6.8c0.2,1,0.3,2.1,0.4,3.1
				c0.3,2,0.3,4.1,0.1,6.1c-0.3,3.6-0.8,7.1-1.6,10.5c-0.7,2.6-1.6,5.1-3.1,7.4c-1.3,2.1-3.1,3.5-5.5,4.1c-1.2,0.3-2.3,0.6-3.5,0.8
				c-6,0.9-11.9,0.5-17.7-1c-2.9-0.8-5.5-2-7.7-4.1c-1.7-1.6-3-3.4-4.1-5.4c-2.1-3.7-3.6-7.5-4.6-11.6
				C265.3,112.9,264.9,109.7,265.5,106.3z M193.2,114.4c-0.1-1.9,0-3.8,0.1-5.7c0.1-1.2,0.2-2.4,0.6-3.5c0.4-1,0.8-1.9,1.3-2.8
				c0.4-0.9,1.1-1.5,1.9-1.9c0.9-0.4,1.8-0.8,2.7-1.1c5.1-1.5,10.3-1.9,16.2-2.2c1.5,0.1,3.7,0.2,5.9,0.3c2.8,0.2,5.6,0.6,8.4,1.2
				c2.5,0.5,5,1.1,7.4,2.1c2.4,0.9,3.9,2.6,4.4,5.2c0.2,1.1,0.3,2.1,0.3,3.2c0.1,2.4-0.4,4.8-0.9,7.2c-1.1,5.1-3.2,9.8-6.5,13.9
				c-2.6,3.2-5.8,5.3-9.8,6.2c-4.1,0.9-8.1,1.4-12.3,1.4c-2.7,0-5.4-0.2-8.1-0.9c-2.1-0.6-4.1-1.4-5.7-3c-1.4-1.4-2.4-3.1-3.1-5
				C194.3,124.3,193.4,119.5,193.2,114.4z M185.9,100.5c0-0.4,1.2-0.7,2.7-0.7s2.7,0.3,2.7,0.7s-1.2,0.7-2.7,0.7
				S185.9,100.9,185.9,100.5z"/>
		</g>
	</g>
</g>
<g id="cables">
	<g>
		<g>
			<path class="st5" d="M318.9,360c-2.2-8.9-9.5-17.1-18.9-18.5c-7.9-1.2-15.5,5.4-10.3,13.2c4.8,7.1,12.4,1.9,12.2-5.4
				c-0.2-8.2-7.5-15.1-15-17.3c-5.9-1.7-18.8-0.5-18.6,8.2c0.1,2.6,2,5.7,4.6,6.4c3.9,1.1,6.2-4.6,6.7-7.7
				c1.4-8.7-5.7-16.1-13.7-17.9c-6.6-1.5-19.7,2-13.7,11.1c5.8,8.6,13.2-2.6,13.7-8.8c0.7-8.8-5-16.5-12.9-19.8
				c-8.2-3.4-20.9-2.1-21,9.4c0,2.9,1.7,6.1,4.5,7.2c4.1,1.7,7.8-1.7,9.5-5.1c3.7-7.9-0.5-17.8-7.5-22.3c-7.3-4.7-21.7-4.6-26.7,3.8
				c-3.4,5.8,4,15.6,9.4,9.4c6-6.9,1.9-17.7-4.4-22.7c-6.1-4.8-25.8-9.5-26.5,3c-0.2,3.4,2.1,6.9,5.5,7.8c5.2,1.4,8.5-3.3,9.9-7.5
				c3.6-11-1.4-20.2-12.3-23.7c-4.8-1.5-11.3-2.4-15.6,0.6c-4,2.8-4.8,7.4-2.8,11.7c0.4,0.9,1.6,2,2.7,1.8c9.5-1.5,14.4-13,9.2-21
				c-4.7-7.4-16-9.3-22.3-2.8c-1.3,1.4,0.6,3.4,1.8,4c5.3,2.7,10.8,1.6,16.1-0.4c4.2-1.6,8.5-3.3,8.1-8.6
				c-0.6-7.9-9.6-13.6-16.9-10.8c-1.9,0.7,0,3.3,0.9,3.9c6.7,4.9,15,6.3,22.8,3.4c2.1-0.8-0.5-5-2.3-4.3c-6.9,2.5-14,1.7-19.9-2.7
				c0.3,1.3,0.6,2.6,0.9,3.9c2.3-0.9,4.6-1,6.8,0c4.6,2.1,4.5,7.5,0.1,9.6c-5.3,2.5-11.5,4.6-17,1.8c0.6,1.3,1.2,2.7,1.8,4
				c4.1-4.3,13.4-5.6,16.7,0.6c3.4,6.4-2.9,14-9.1,15c0.9,0.6,1.8,1.2,2.7,1.8c-3-6.5,6.7-8.8,10.9-8.4c4.5,0.4,9.9,2.1,12.6,5.9
				c3,4.1,1.6,13.6-2.6,16.9c-3.2,2.5-5.7-0.8-3.1-3.6c2.1-2.3,5.7-2.6,8.7-2.5c5.3,0.2,11.5,2.3,14.3,7.2c1.3,2.4,1.7,5.3,1.2,8
				c-0.2,1.1-0.7,2.6-1.4,3.5c-0.4,0.5-0.8,1-1.2,1.6c-2.3-1.5-2.7-2.8-1.1-4c2.3-3.8,9.5-5.1,13.5-4.9c5.8,0.2,11.4,3.1,13.2,8.9
				c1,3.2,0.8,11.3-3.5,12.6c-0.6-0.2-1.1-0.4-1.7-0.6c-2.2-0.1-2.4-1.1-0.8-3c0.4-0.9,1.1-1.8,1.6-2.6c2.2-2.9,5-3.3,8.4-3.1
				c10.3,0.6,19,10.1,13.6,20.3c-0.1,0.3-5.5,7.2-5.5,2c0-2,4.4-3.2,5.7-3.4c5.2-0.9,12.4,1.1,14.6,6.3c0.9,2.2,0.8,4.9,0,7
				c-0.3,0.9-3.6,5.4-2.8,2.3c1.1-4.2,8.4-5.3,11.8-5.1c4.4,0.3,9,2.4,11.7,6.1c1.6,2.1,2.4,4.8,2,7.5c-0.2,1.1-0.6,2.2-1.3,3.1
				c-1,1.2-3.3,2.3-4.5,0.5c-1.9-2.9,2.3-6.1,4.6-6.7c2.2-0.6,4.7-0.4,6.8,0.3c6.2,2,10.3,7.2,11.8,13.3
				C315.8,361.7,319.7,363.2,318.9,360L318.9,360z"/>
		</g>
	</g>
	<g>
		<g>
			<path class="st5" d="M310.1,242.6c1.5-0.1,3-0.2,4.4-0.3c1.1,1.5,2.1,3,3.2,4.6c-0.2,2.6-2.2,1.3-3.1,0c-1.3-2-1.6-4.8-1.6-7.1
				c0-2.3,0.4-4.9,1.6-6.9c0.7-1.1,7.4-5.6,7.4-1.1c0.3-0.4,0.6-0.9,0.9-1.3c-3.7,0.9-8.3,0.2-10.5-3.4c-2.1-3.4-0.8-9.1,2.5-11.4
				c1.5-1.2,1.5-0.8,0.1,1c-0.5,0.1-1.1,0.2-1.6,0.3c-1.9,0.5-5.3-0.6-7.1-1.3c-4.1-1.6-9.1-4.9-7.9-10c0.3-1.3,1.9-4.2,3.6-4.1
				c3,0.2-1.5,2.8-2.1,3.1c-2.7,1.5-5.9,2.1-9,2.1c-3.4,0.1-6.9-0.7-9.9-2.2c-4-1.9-9.6-6.6-6.9-11.4c0.4,0.2,0.8,0.5,1.2,0.7
				c-1,0.2-2,0.4-3.1,0.5c-1.9,0.3-3.9,0.4-5.8,0.5c-3.7,0.1-11.3,0.4-13.6-3.5c-1.2-2-0.5-5.8,2.3-6c2.8-0.2,2,1.7,0.7,3.3
				c-1.9,2.6-5.7,4.1-8.8,4.2c-4.3,0.2-8.6-2.2-10.3-6.3c-0.8-2,1.5-8.8,2.4-5c0.6,2.3-0.5,3.9-2.5,5.4c-3.2,2.4-7.4,2.5-10.8,0.6
				c-4.5-2.6-8.4-14.4,0.4-13.1c-0.7-0.7-1.4-1.3-2.1-2c1.8,4.9-7.9,5.2-10.4,5c-5-0.4-12.7-4.6-9.1-10.8c0.7-1.3,2-2.3,3.3-3
				c3.6-1.7,0.9,0.4-0.5,0.6c-1.8,0.3-4.5-0.3-6.1-1.3c-4.7-3-3.9-11.4,2.1-9.4c2.3,0.8,0.8-3.9-1-4.5c-5.4-1.8-8.8,3.4-8.1,8.4
				c0.6,4.6,4.2,8.6,8.4,10.3c3.3,1.4,10,2.2,11.9-1.9c1.7-3.5-1.9-6.8-5.2-7.2c-4.5-0.5-8.4,3.2-9.1,7.5c-0.8,4.6,1.8,9.5,5.4,12.3
				c6,4.9,26.3,5.8,21.7-6.5c-0.3-0.8-1.2-1.9-2.1-2c-7.2-1.1-9.6,6.5-7.5,12.3c2.1,5.8,7.6,11,14,11.2c6.2,0.3,13-4.9,11.5-11.7
				c-0.9-4-7-8.6-10.1-3.9c-3.2,4.9,1.3,12.5,5,15.7c5.1,4.5,12.5,5.1,18.1,1.2c4.1-2.8,6.9-8,2.7-12c-3.8-3.6-9.8-2.3-10.5,3.2
				c-0.8,5.8,4,10.8,9.2,12.3c4,1.2,8.4,1.1,12.5,0.8c3-0.2,8.6,0,10.5-3.1c2.5-4-2.4-9.8-6.7-8.9c-6.8,1.5-4.6,10.3-1.7,14.1
				c4.1,5.7,11,9.1,17.9,9.6c5.1,0.4,15.4-0.9,17-7c1.3-4.8-4.4-8.7-8.5-6.7c-5.5,2.6-4.9,10.5-2.1,14.8c4,6.2,14.6,11.4,21.8,8.3
				c5.6-2.4,3.6-10.5-2.4-10.6c-7.2-0.1-9.4,10-7.8,15.3c2.1,7,9.3,11.2,16.4,9.6c0.7-0.2,0.9-0.7,0.9-1.3
				c0.1-9.3-12.3-10.6-15.4-2.2c-2.9,7.6-0.4,20.4,8.7,22.3c0.4,0.1,1,0,1.1-0.4c3.5-7.7-4-19.4-12.8-14.8
				C305.6,239.4,308.2,243.6,310.1,242.6L310.1,242.6z"/>
		</g>
	</g>
	<g>
		<g>
			<path class="st5" d="M309.1,78.8c1.8-0.5,3.6-0.8,5.4-0.7c0.6,0,7,0.8,7,2c0,4.1-4.7-2.1-4.7-2.2c-0.9-2.2-0.7-4.9,0.5-6.9
				c0.6-0.9,1.3-1.7,2.3-2.3c1.3-1.1,2.2-0.9,2.7,0.7c-0.8,0.5-3.3,0-4-0.1c-3.9-0.8-7-3.4-8.2-7.2c-0.8-2.4-4-3-2.9,0.2
				c1.4,4.4,4.5,8.1,8.6,10.2c2.4,1.2,8.7,3.1,11,0.6c2.3-2.5-1.4-7.3-3.6-8.6c-3.8-2.3-8,0.5-9.5,4.2c-1.6,3.9-0.5,8.6,1.7,12
				c1.6,2.4,6.5,7.6,9.7,4.9c2.8-2.3,0.1-6.8-2-8.5c-4.3-3.5-10.5-4.2-15.7-2.9C305.2,74.8,307.4,79.3,309.1,78.8L309.1,78.8z"/>
		</g>
	</g>
	<g>
		<g>
			<path class="st5" d="M306.5,32.1c-0.8-4.3,2.1-12-3.3-14.4c-2.9-1.3-6.4,0.6-7.9,3.1c-6.6,10.8,14.4,12.8,20.4,9.7
				c3.4-1.8,7-5.5,6.7-9.7c-0.3-4.1-4.1-5.7-7.3-3.5c-3.4,2.3-3.2,6.5-1.6,9.8c2.4,5.1,7.7,8.8,13.3,9c4.6,0.2,9.6-2.2,11.6-6.5
				c1.7-3.6,0.6-7.9-3.9-7.9c-11,0-8.9,15-3,19.8c3.6,3,8.6,4,13.1,2.4c3.5-1.2,7.4-4.9,6.3-9c-1-3.9-5.7-4.4-8.7-2.5
				c-3.7,2.4-3.5,7.3-1.3,10.7c3.3,4.9,10.9,6.8,16.4,5.6c3.2-0.7,8.5-5.1,3.8-7.8c-3.9-2.2-9.3,0.5-11.9,3.5
				c-4.7,5.3-3,12.4-1.2,18.5c0.5,1.6,4.9-0.5,4.3-2.5c-0.7-2.6-1.6-5.3-1.7-8c-0.1-1.5,0-3.1,0.4-4.6c0.7-3.2,2.7-4,6-2.4
				c-1.8,1.2-7.4-1.1-9-2.1c-1.2-0.8-5.3-4.4-4.3-6.4c3.4-2.2,3.4-0.9,0.1,4.1c-1.5,0.3-2.9,0.2-4.4-0.2c-2.3-0.7-4.4-2.2-5.9-4
				c-1.5-1.8-5.7-13.2,0.6-10.7c1.2,3-0.3,5.2-4.6,6.5c-2,0-3.9-0.5-5.6-1.4c-2.1-1.1-3.9-2.7-5.2-4.7c-0.5-0.7-2.3-5.9-2.1-5.9
				c1.2,1.1,1.4,2.4,0.7,3.9c-1.4,3-3.7,4.3-7,4.2c-2.6,0.1-6.2-0.5-8.4-1.9c-0.9-0.5-5.6-6-1.7-5.7c2.9,0.2,1.3,10.9,1.7,12.6
				C302.4,35.9,306.9,33.8,306.5,32.1L306.5,32.1z"/>
		</g>
	</g>
	<g>
		<g>
			<path class="st5" d="M264,446.3c2.1,4.2,6.6,6.7,11.3,6.7c5.5,0,9.1-4.7,9.9-9.9c0.8-4.8-0.8-8.7-6.1-9c-3.9-0.2-9.5,4.8-7.4,8.9
				c2.2,4.3,10.1,6.2,14.5,6.4c6.2,0.3,12.2-2.4,15.9-7.4c3-4,4.6-10.1-0.8-12.8c-3.3-1.6-8.6-0.9-8,3.9c0.6,4.8,7.2,6.8,11.2,7.1
				c6.3,0.5,12.6-2.4,16.4-7.5c3.5-4.7,4.5-11.3-0.2-15.6c-2.6-2.3-8.3-4.5-11.3-1.6c-3.9,3.8,3.9,9.3,6.8,10.8
				c5.1,2.6,11.1,3.5,16.7,2.7c4.8-0.7,11.6-3,11.3-9c-0.2-4.3-4.6-6.8-8.6-6.3c-6.2,0.9-7.5,7.5-4,12c3.9,5,11.5,6.9,17.5,6.3
				c5.5-0.5,7.2-6,1.8-8.6c-6.5-3.1-10.9,1.9-13.3,7.4c-0.6,1.3,4.1,3,4.8,1.5c1-2.3,3.3-8,6.3-6.4c3.7,2-3.2,3.8-4.7,3.7
				c-3.5-0.3-7.7-2.1-9.2-5.6c-0.9-2.3-0.6-5.5,1.8-6.9c4-2.3,2.9,3.7,1.4,5.6c-4.1,5.3-14.8,5-20.1,1.9c-1.3-0.7-3.6-2.5-4.2-4
				c-1.5-4,2.8-4,4.5-1c1.8,3,0.5,7.2-1.1,10c-1.5,2.5-3.7,4.6-6.2,6c-1.5,0.9-4.3,2.1-6.1,2.1c-1.9,0-9.8-2.1-6.3-5.6
				c0.2-1.2,0.7-1.2,1.3-0.2c0.1,0.8,0.1,1.7,0.2,2.5c-0.1,1.4-0.8,2.9-1.5,4c-1.3,2.4-3.4,4.5-5.7,6c-4.3,2.8-9.5,3.3-14,0.8
				c-2.1-1.1-3-1.9-2.4-4.2c0.3-1,2.4-4.6,3.9-3.9c1.2,0.6-0.4,6.6-0.9,7.6c-1.8,4.2-7.6,8.6-10.8,2.3
				C268.1,445.8,263.4,445.2,264,446.3L264,446.3z"/>
		</g>
	</g>
	<g>
		<g>
			<path class="st5" d="M307.5,464.6c-0.2,1-0.5,2.5-1.2,3.2c-1.7,0.6-3.4,1.2-5,1.8c-0.8-0.3-1.7-0.6-2.5-0.9
				c-3.2,0.4-1,0.9-0.8,2.3c0.1,1.1,0.8,2.2,1,3.3c0.3,1.9,0.2,3.7-0.2,5.5c-0.3,1.5-0.8,2.8-1.6,4.1c-0.4,0.5-0.8,1.1-1.2,1.6
				c-1.5,0.2-3.1,0.3-4.6,0.5c-0.6,0.9,1.7,5.7,1.7,7c0.2,4.3-1.8,9-6.6,8.8c-1.2,0.3-2.2,0.1-2.9-0.8c-1-0.7-1.2-0.9-0.6-0.6
				c0.7,0,1.9,1.1,2.3,1.5c2,1.7,3.3,3.9,3.7,6.5c0.9,5.6-2.8,14.5-9.6,13.2c-1.6-0.3-3-1.1-4-2.3c-1.2-1.4-1.6-0.6-0.3-1.2
				c2-0.9,5.2-0.2,7.2,0.4c4.8,1.5,6.8,4.9,10,8.5c2.3,2.6,4.9,4,8.3,3.4c1.4-0.2,4.8-3.6,2.2-3.2c-5.9,1-8.7-7.3-13.1-10.1
				c-3.7-2.3-8.4-3.1-12.7-2.2c-2,0.4-6.4,1.6-7,4.1c-0.8,3.2,3.9,5.4,6.3,5.9c8.1,1.4,15.8-6.3,17-13.9c1.1-6.6-4.8-18-12.8-13.2
				c-2.6,1.5-3.5,4.2-0.9,6.3c2.8,2.3,7.4,1.2,10.3-0.2c3.8-1.9,6.6-5.2,7.4-9.4c0.7-3.5,0.3-9.9-3.6-11.6
				c-5.9-2.5-10.2,7.9-2.7,7.6c7.6-0.3,12.8-9.5,12.7-16.3c-0.1-3.5-1.6-10-6.1-9.9c-2.5,0-5.8,2.4-4.9,5.1c1.2,4,8.1,3.9,11.1,2.8
				c4.1-1.4,7.2-4.8,8.1-9C312.2,461.3,307.8,463.2,307.5,464.6L307.5,464.6z"/>
		</g>
	</g>
</g>
<g id="phone">
	<g>
		<path class="st5" d="M366.5,67.4c-1.3-1.8-2.6-3.5-3.9-4.8c-4.2-4.9-10.8-7.5-17.6-6.2c-3,0.6-5.7,1.9-7.9,3.7
			c-1.1,0.7-1.8,2.1-1.5,3.6l5.1,25.6c0.3,1.3,1.3,2.3,2.5,2.7l0,0c2.8,0.9,5.9,1.1,9,0.4c2.1-0.4,4-1.2,5.8-2.2
			c0.9,3.1,1.7,6.3,2.4,9.6c0.6,3.4,1.1,6.7,1.4,9.8c-2-0.3-4.1-0.2-6.2,0.2c-3.1,0.6-5.9,2-8.1,3.9l0,0c-1,0.8-1.6,2.1-1.3,3.4
			l5.1,25.6c0.3,1.4,1.4,2.5,2.8,2.7c2.7,0.8,5.7,1,8.7,0.4c6.8-1.3,11.9-6.3,13.9-12.4c3.4-8.5,4-22.1,1.2-36.9c0-0.1,0-0.1,0-0.2
			c0-0.1,0-0.1,0-0.2c-1.8-8.7-4.5-16.5-7.7-22.8"/>
	</g>
	<path class="st5" d="M364.6,501.3v-3.4c0-1.5-1.7-1.6-3.9-1.6h-3.5c-2.2,0-3.9,0.1-3.9,1.6v5.2h-24.9v-5.2c0-1.5-1.7-1.6-3.9-1.6
		H321c-2.2,0-3.9,0.1-3.9,1.6v6.3c-5.7,5.9-24.2,30.9-24.9,34l0,20.2c0,1.9,1.5,3.4,3.4,3.4H386c1.9,0,3.4-1.5,3.4-3.4v-20.4
		c-0.7-2.9-19.2-28-24.9-33.9V501.3z M327.2,541c-1.8,0-3.3-1.5-3.3-3.3c0-1.8,1.5-3.3,3.3-3.3c1.8,0,3.3,1.5,3.3,3.3
		C330.5,539.5,329,541,327.2,541L327.2,541z M327.2,529.7c-1.8,0-3.3-1.5-3.3-3.3c0-1.8,1.5-3.3,3.3-3.3c1.8,0,3.3,1.5,3.3,3.3
		C330.5,528.2,329,529.7,327.2,529.7L327.2,529.7z M327.2,518.4c-1.8,0-3.3-1.5-3.3-3.3c0-1.8,1.5-3.3,3.3-3.3
		c1.8,0,3.3,1.5,3.3,3.3C330.5,516.9,329,518.4,327.2,518.4L327.2,518.4z M340.7,541c-1.8,0-3.3-1.5-3.3-3.3c0-1.8,1.5-3.3,3.3-3.3
		c1.8,0,3.3,1.5,3.3,3.3C344,539.5,342.6,541,340.7,541L340.7,541z M340.7,529.7c-1.8,0-3.3-1.5-3.3-3.3c0-1.8,1.5-3.3,3.3-3.3
		c1.8,0,3.3,1.5,3.3,3.3C344,528.2,342.6,529.7,340.7,529.7L340.7,529.7z M340.7,518.4c-1.8,0-3.3-1.5-3.3-3.3
		c0-1.8,1.5-3.3,3.3-3.3c1.8,0,3.3,1.5,3.3,3.3C344,516.9,342.6,518.4,340.7,518.4L340.7,518.4z M354.3,541c-1.8,0-3.3-1.5-3.3-3.3
		c0-1.8,1.5-3.3,3.3-3.3c1.8,0,3.3,1.5,3.3,3.3C357.6,539.5,356.1,541,354.3,541L354.3,541z M354.3,529.7c-1.8,0-3.3-1.5-3.3-3.3
		c0-1.8,1.5-3.3,3.3-3.3c1.8,0,3.3,1.5,3.3,3.3C357.6,528.2,356.1,529.7,354.3,529.7L354.3,529.7z M354.3,518.4
		c-1.8,0-3.3-1.5-3.3-3.3c0-1.8,1.5-3.3,3.3-3.3c1.8,0,3.3,1.5,3.3,3.3C357.6,516.9,356.1,518.4,354.3,518.4L354.3,518.4z
		 M354.3,518.4"/>
</g>
</svg>
