<?xml version="1.0" encoding="utf-8"?>
<!-- Generator: Adobe Illustrator 19.2.0, SVG Export Plug-In . SVG Version: 6.00 Build 0)  -->
<svg version="1.1" id="Warstwa_1" xmlns="http://www.w3.org/2000/svg" xmlns:xlink="http://www.w3.org/1999/xlink" x="0px" y="0px"
	 viewBox="0 0 1983.7 1178.7" style="enable-background:new 0 0 1983.7 1178.7;" xml:space="preserve">
<style type="text/css">
	.st0{fill:#3F4A52;}
	.st1{clip-path:url(#SVGID_2_);fill-rule:evenodd;clip-rule:evenodd;fill:#292E30;}
	.st2{clip-path:url(#SVGID_2_);}
	.st3{fill-rule:evenodd;clip-rule:evenodd;fill:#202C36;}
	.st4{fill-rule:evenodd;clip-rule:evenodd;fill:#3C6D9D;}
	.st5{fill-rule:evenodd;clip-rule:evenodd;fill:#657685;}
	.st6{fill-rule:evenodd;clip-rule:evenodd;fill:#3A4854;}
	.st7{fill-rule:evenodd;clip-rule:evenodd;fill:#1D2120;}
	.st8{fill:#242424;stroke:#414042;stroke-width:0.25;stroke-miterlimit:10;}
	.st9{fill:#EAEAEA;stroke:#414042;stroke-width:0.25;stroke-miterlimit:10;}
	.st10{display:none;}
	.st11{display:inline;}
	.st12{fill:#FFFFFF;stroke:#414042;stroke-width:0.25;stroke-miterlimit:10;}
	.st13{fill-rule:evenodd;clip-rule:evenodd;fill:#D33E38;}
	.st14{fill-rule:evenodd;clip-rule:evenodd;fill:#5E8BB5;}
	.st15{fill-rule:evenodd;clip-rule:evenodd;fill:#2D1616;}
	.st16{fill-rule:evenodd;clip-rule:evenodd;fill:#2E3332;}
	.st17{fill-rule:evenodd;clip-rule:evenodd;fill:#89AFD4;}
	.st18{fill-rule:evenodd;clip-rule:evenodd;fill:#573433;}
	.st19{fill-rule:evenodd;clip-rule:evenodd;fill:#F37976;}
	.st20{fill-rule:evenodd;clip-rule:evenodd;fill:#264C6F;}
	.st21{fill-rule:evenodd;clip-rule:evenodd;fill:#9E2E29;}
	.st22{fill-rule:evenodd;clip-rule:evenodd;fill:#8B9DAB;}
</style>
<rect class="st0" width="1983.7" height="1178.7"/>
<g>
	<defs>
		<rect id="SVGID_1_" x="-1" width="1983.7" height="1178.7"/>
	</defs>
	<clipPath id="SVGID_2_">
		<use xlink:href="#SVGID_1_"  style="overflow:visible;"/>
	</clipPath>
	<rect x="1874.7" y="768" class="st1" width="47.3" height="410.7"/>
	<rect x="1014.7" y="767" class="st1" width="47.3" height="410.7"/>
	<rect x="871" y="724.1" class="st1" width="1151.4" height="42.6"/>
	<g class="st2">
		<g>
			<polygon class="st3" points="1546.9,618.9 1670,618.9 1727.7,723.4 1489.2,723.4"/>
			<path class="st3" d="M1318.4,270.3h580.2c16.3,0,29.7,13.4,29.7,29.7v315.7c0,16.3-13.4,29.7-29.7,29.7h-580.2
				c-16.3,0-29.7-13.4-29.7-29.7V300C1288.7,283.7,1302.1,270.3,1318.4,270.3z"/>
			<rect x="1308.4" y="287.6" class="st4" width="600.1" height="304.8"/>
			<circle class="st5" cx="1892.2" cy="619.2" r="3.9"/>
			<circle class="st5" cx="1877.1" cy="619.2" r="3.9"/>
			<circle class="st5" cx="1862.1" cy="619.2" r="3.9"/>
			<path class="st6" d="M1254.4,691.8h708.1c8.7,0,15.8,7.1,15.8,15.8v0c0,8.7-7.1,15.8-15.8,15.8h-708.1c-8.7,0-15.8-7.1-15.8-15.8
				v0C1238.6,699,1245.7,691.8,1254.4,691.8z"/>
		</g>
		<path class="st5" d="M1497.8,691.8h464.7c8.7,0,15.8,7.1,15.8,15.8l0,0c0,8.7-7.1,15.8-15.8,15.8h-461.2L1497.8,691.8z"/>
		<path class="st7" d="M1978.3,707.6c0,8.7-7.1,15.8-15.8,15.8h-708.1c-8.7,0-15.8-7.1-15.8-15.8H1978.3z"/>
	</g>
	<g id="lama" class="st2">
		<g id="head">
			<g id="eye1">
				<g>
					<ellipse class="st8" cx="1454.4" cy="359.3" rx="10.4" ry="10.4"/>
				</g>
			</g>
			<g id="eye2">
				<g>
					<ellipse class="st8" cx="1578.1" cy="359.3" rx="10.4" ry="10.4"/>
				</g>
			</g>
			<g id="mouth_1_">
				<g id="Elipsa_3">
					<g>
						<path class="st9" d="M1515.9,346.6c-21.6,0-34.6,19.8-33.5,44.1c1.1,24.3,12.3,44.1,33.5,44.1c21.6,0,31.5-19.2,31.5-43.6
							C1547.4,366.9,1537.3,346.6,1515.9,346.6z"/>
					</g>
				</g>
				<g id="smile">
					<g>
						<path class="st8" d="M1526.5,384.1c-6.6,2.9-18.8,0-21.4,0c-4.6,0.2-9.7-6.2-9.7-6.2v1.6c0,0,4.4,7.9,9.7,7.9
							c5.9,0,15.9,1.8,21.4-1.6c4.9-2.9,7.3-6,7.3-6v-1.6C1533.8,378.1,1532,381.8,1526.5,384.1z"/>
					</g>
				</g>
				<g id="face" class="st10">
					<g class="st11">
						<path class="st8" d="M1528.7,384.5c-10.2,1.6-20.5,2.2-30.9,1.6c-0.5,0-2.9,0.9-1.8,0.9c10.8,0.4,21.4-0.2,32.2-1.8
							C1529.1,385.1,1530.6,384.1,1528.7,384.5L1528.7,384.5z"/>
					</g>
				</g>
				<g id="cheek" class="st10">
					<g class="st11">
						<path class="st8" d="M1527.8,378.1c-1.1,7.3,1.5,13,4,19.8c0.4,0.7,2.9,0,2.6-0.7c-2.6-6.8-5.1-12.3-4-19.6
							C1530.6,377,1528,377.4,1527.8,378.1L1527.8,378.1z"/>
					</g>
				</g>
				<g id="noseline">
					<g>
						<polygon class="st8" points="1513.9,362.9 1513.9,384.5 1515.5,384.5 1515.5,362.9 						"/>
					</g>
				</g>
				<g id="nose">
					<g>
						<path class="st8" d="M1515,353.9c-8.6,0-15.6,4.6-15.6,10.4s7.5,6.8,16.1,6.8c8.6,0,15-1.1,15-6.8S1523.6,353.9,1515,353.9z"
							/>
					</g>
				</g>
			</g>
		</g>
		<g id="tie">
			<g>
				<path class="st8" d="M1569.2,553.6c-7.5-2.4-44.3,18.7-44.3,18.7c-2.2-2.4-5.5-3.8-9.2-3.8s-7,1.5-9.2,3.8
					c0,0-37-22.3-44.1-18.1c-7,4-7.3,47.8,0,52c7.3,4.4,44.8-17.6,44.8-17.6c2.2,2,5.1,3.3,8.4,3.3s6.2-1.3,8.4-3.3
					c0,0,38.6,22.7,44.8,17.6C1574.8,601,1576.5,556,1569.2,553.6z"/>
			</g>
		</g>
		<g id="glasses">
			<g>
				<path class="st8" d="M1644.7,329.8c0-1.8-0.2-3.7-0.4-5.5c0-0.9-0.4-1.3-1.3-1.6c-0.5-0.2-1.1-0.4-1.6-0.4
					c-8.1-1.3-16.1-2.6-24.3-3.1c-6.6-0.5-13-0.7-19.6-1.1c-12.6-0.5-25.1-0.4-37.7,1.3c-7.7,0.9-15.2,2.4-22.5,4.8
					c-3.7,1.3-7.3,2.6-11.2,3.8c-5.9,1.8-11.7,2.7-17.8,1.5c-3.7-0.7-7.1-1.6-10.8-2.9c-6.4-2-12.6-4.2-19.4-5.3
					c-12.8-2.4-25.8-3.5-37.9-3.3c-9.9,0-18.7,0.4-27.5,1.5c-7.1,0.9-14.5,1.8-21.6,2.7c-1.5,0.2-3.1,0.7-4.6,1.1
					c-0.7,0.2-1.3,0.7-1.3,1.6c-0.2,4.2-0.4,8.6-0.4,12.8c0,0.7,0.2,1.3,0.2,2c0,0.5,0.4,0.9,0.9,1.1c0.5,0.2,1.1,0.5,1.6,0.9
					c2.4,1.6,3.5,4.2,4.4,6.8c0.7,1.8,1.1,3.8,1.6,5.7c0.4,1.1,0.7,2.4,1.1,3.5c1.3,5.7,2.4,11.2,3.7,16.8
					c1.3,5.3,2.7,10.6,5.3,15.4c2.7,5.5,6.8,9.7,12.6,12.1c3.5,1.5,7.1,2.4,10.8,2.9c6.6,1.1,13.2,1.1,19.9,0.7
					c6.8-0.5,13.4-1.5,19.9-3.5c4.8-1.5,9.3-3.5,13.2-6.8c5.9-5.1,10.6-11.2,14.3-18.1c3.7-7,6.2-14.3,8.4-21.8
					c0.7-2.2,1.3-4.2,2-6.4c1.1-3.1,3.3-4.9,6.6-5.5c1.1-0.2,2.2-0.2,3.1-0.2c2.4,0.2,4.8,0.7,6.4,2.7c0.7,0.9,1.5,1.8,1.8,2.9
					c0.9,2,1.8,4.2,2.4,6.2c2.9,9.2,6.8,17.9,11.5,26.4c4,7,9.3,12.4,16.3,16.5c4.9,2.7,10.2,4.4,15.7,5.5c8.2,1.6,16.7,2,25.1,1.6
					c5.1-0.2,10.1-0.9,15-2.4s9.5-4,12.8-8.2c2.2-2.7,3.7-5.9,4.9-9c2.7-6.8,4.6-13.9,6-20.9c0.7-3.5,1.6-7,2.4-10.4
					c0.4-1.8,0.9-3.7,1.5-5.3c0.5-1.6,0.9-3.5,1.8-4.8c1.1-1.5,2.2-2.9,3.8-3.5c0.7-0.4,1.1-0.7,1.3-1.6c0.2-0.5,0.2-1.1,0.2-1.6
					C1644.7,334.9,1644.7,332.4,1644.7,329.8z M1396,332.4c-2.7,0-4.9-0.5-4.9-1.3c0-0.7,2.2-1.3,4.9-1.3c2.7,0,4.9,0.5,4.9,1.3
					C1401,331.8,1398.8,332.4,1396,332.4z M1492.1,359.6c-1.8,7.5-4.6,14.5-8.4,21.2c-2,3.7-4.4,7-7.5,9.9c-4,3.8-8.8,6-14.1,7.5
					c-10.6,2.7-21.4,3.5-32.4,1.8c-2.2-0.4-4.2-0.9-6.4-1.5c-4.4-1.1-7.7-3.7-10.1-7.5c-2.7-4.2-4.4-8.8-5.7-13.5
					c-1.5-6.2-2.4-12.6-2.9-19.2c-0.4-3.7-0.4-7.5,0.2-11.2c0.2-1.8,0.4-3.8,0.7-5.7c1.5-6.6,5.5-10.6,11.9-12.4
					c5.9-1.5,11.9-2.4,17.9-2.9c4.4-0.4,9-0.5,11.9-0.7c10.2,0.2,18.8,0.7,27.5,2.7c3.5,0.7,7,1.5,10.1,3.3c1.6,0.9,3.1,1.8,4.4,2.9
					c2.2,1.8,3.5,4.4,3.8,7.3C1494.1,347.9,1493.4,353.8,1492.1,359.6z M1620.2,383.2c-1.3,3.5-3.1,6.6-5.7,9.2
					c-2.9,2.9-6.6,4.4-10.4,5.5c-4.9,1.3-9.9,1.6-14.8,1.6c-7.7,0-15-0.9-22.5-2.6c-7.3-1.6-13.2-5.5-17.9-11.3
					c-6-7.5-9.9-16.1-11.9-25.4c-0.9-4.4-1.8-8.8-1.6-13.2c0-2,0.2-3.8,0.5-5.9c0.9-4.8,3.7-7.9,8.1-9.5c4.4-1.8,9-2.9,13.5-3.8
					c5.1-1.1,10.2-1.8,15.4-2.2c4-0.2,8.1-0.4,10.8-0.5c10.8,0.5,20.3,1.3,29.6,4c1.6,0.5,3.3,1.3,4.9,2c1.5,0.7,2.7,1.8,3.5,3.5
					c0.9,1.6,1.6,3.3,2.4,5.1c0.7,2,0.9,4.2,1.1,6.4c0.2,3.5,0.4,7,0.2,10.4C1625,365.8,1623.3,374.6,1620.2,383.2z M1633.8,332.4
					c-2.7,0-4.9-0.5-4.9-1.3c0-0.7,2.2-1.3,4.9-1.3c2.7,0,4.9,0.5,4.9,1.3C1638.7,331.8,1636.5,332.4,1633.8,332.4z"/>
			</g>
		</g>
		<g id="body">
			<g>
				<path class="st12" d="M1928.4,713c26.5,0,37.9-16.5,55.3-16.5c-4-4-8.2-8.1-12.3-12.1c2-4.9,3.8-9.9,5.9-14.6
					c-7.1-1.6-14.3-3.3-21.4-4.9c0-5.5,0-10.8,0-16.3c-20.7,5.3-41.4,10.4-62,15.7c3.8-3.7,7.7-7.1,11.5-10.8
					c-19.9,3.1-39.7,6.2-59.7,9.2c3.3-3.3,6.6-6.6,9.9-9.9c-17.6,0.5-35.1,1.1-52.7,1.6c0.9-3.8,1.6-7.7,2.6-11.5
					c-18.5,2.6-37,4.9-55.6,7.5c0.9-1.5,1.6-2.7,2.6-4.2c-18.3,3.8-36.4,7.7-54.7,11.5c2.6-3.8,4.9-7.7,7.5-11.5
					c-172.8,0-45.2-293.9-129.9-378.4c4.4-2.4,28.2-69.2,28.2-69.2s-30.9-51.4-60.9-51.4c-4,0-19.8,0.7-23.8,0.7
					c0,28.5,31.5,65,31.5,105.6c-26.7,0.4-53.6,0.5-80.3,0.9c0-36.4,17.4-76.5,17.4-113.8c-40.6,0-56,31.7-65.1,64.4
					c0,28,28,42.6,28,52.5c-18.8,12.3-26.2,28.2-32.4,44.5c0,107.1,24.5,262.2-13.4,358.9c-0.7,3.1-1.5,6.2-2,9.3
					c6.4-0.9,12.8-1.8,19-2.7c0,0-23.1,51.1-23.1,69.4c4.9-6.4,9.9-12.6,15-19c-3.8,22.3-7.7,44.7-11.5,67c3.8-2.6,7.5-5.1,11.3-7.5
					c-3.1,24.3-6,48.5-9.2,72.8c4.8-6,9.3-12.1,14.1-18.1c0,13.7,0,27.6,0,41.4c3.5,0,7.1,0,10.6,0c-4.8,17.4-9.3,34.8-14.1,52.2
					c4.9-6.6,9.9-13.2,14.8-19.9c8.2,33.5,16.7,66.8,24.9,100.3c-1.5,62.6-2.7,125.4-4.2,187.9c24-0.5,17.4-0.4,41.4-0.9
					c2.7-52.2,11.9-125.9,24.3-185.4c4.7-17.8,15.5-32.5,16.4-48.6c2.7,15.9,14.6,32.6,17.6,51.1c8.8,56.9,8.8,123.2,17.2,172
					c15.2,2.5,19.5,1.4,34.5-0.2c2.5-73.1,4.4-147.7,17.4-228.4c10.8,1.5,21.4,2.7,32.2,4.2c6,8.8,12.1,17.6,18.3,26.4
					c2.7,0,5.5,0,8.1,0c0.5-7.7,1.1-15.4,1.6-23.1c5.9,10.4,11.5,20.9,17.4,31.5c-0.9-8.2-1.6-16.5-2.6-24.7
					c9.3,6.4,18.7,12.6,28.2,19c-4.2-14.3-8.2-28.7-12.4-43.2c10.4-3.8,34.8-0.9,31.5-11.5c32.9,104.5,31.1,161.8,31.5,246.9
					c18.8-0.9,21,0.4,39.7-0.5c0-63.9,5.1-154.8,5.1-216.3c0-1.1,8.8,19.6,8.8,18.7c-0.9,63.7,8.6,134,7.7,197.6
					c19-1.5,23.2,0.9,42.3-0.5c0-95,44.3-186.7,44.3-260.6c3.7,1.6,7.1,3.3,10.8,4.9c-3.8-12.1-7.7-24.3-11.5-36.4
					c0-5.3,0-10.4,0-15.7c4,1.5,8.2,2.7,12.3,4.2c-1.5-30.6-2.7-61.3-4.2-91.9c4.9,0.9,9.9,1.6,14.8,2.6
					C1937.7,760.8,1933.2,737,1928.4,713z"/>
			</g>
		</g>
	</g>
</g>
<g>
	<polygon class="st13" points="1207.4,410.6 1207.4,673.9 1207.4,723.2 1143,723.2 1014.2,723.2 1014.2,673.9 1143,673.9 
		1143,527.1 1042.6,527.1 1014.2,410.6 1014.2,400.2 1207.4,400.2 	"/>
	<path class="st14" d="M1078.6,527.1c35.6,0,64.4,65.7,64.4,146.8h-128.8C1014.2,592.8,1043,527.1,1078.6,527.1z"/>
	<path class="st15" d="M1140,629.6c1.9,14,3,28.9,3,44.3h-128.8c0-15.4,1-30.3,3-44.3H1140z"/>
	<path class="st16" d="M1029.3,554.6c3.7,0,7.4,0.5,10.8,1.5c-2.2,3.7-4.3,7.8-6.3,12.2c-1.5-0.3-3-0.4-4.6-0.4
		c-16.9,0-30.6,15.5-30.6,34.6c0,14,7.3,26,17.9,31.5c-0.6,4.5-1,9.1-1.4,13.8c-17.1-6.4-29.4-24.3-29.4-45.3
		C985.7,576,1005.3,554.6,1029.3,554.6z"/>
	<path class="st17" d="M1078.6,527.1c20.8,0,38.3,43.1,44.3,102.5h-17.5c-0.7-55.3-12.7-96.5-31-101.9
		C1075.7,527.3,1077.1,527.1,1078.6,527.1z"/>
	<path class="st18" d="M1125,673.9h-21.4c1.4-15.4,1.9-30.3,1.7-44.3h17.5C1124.2,643.6,1125,658.5,1125,673.9z"/>
	<path class="st16" d="M1078.6,527.1c14,0,27,10.2,37.5,27.5h-75C1051.6,537.3,1064.6,527.1,1078.6,527.1z"/>
	<rect x="1014.2" y="400.2" class="st19" width="193.2" height="10.4"/>
	<rect x="1157.2" y="621" class="st19" width="36" height="86.8"/>
	<rect x="1157.2" y="422.8" class="st20" width="36" height="160.8"/>
	<rect x="1157.2" y="519.5" class="st14" width="36" height="64.1"/>
	<path class="st13" d="M1175.2,697c6,0,10.8-4.9,10.8-10.8c0-6-4.9-10.8-10.8-10.8c-6,0-10.8,4.9-10.8,10.8
		C1164.4,692.2,1169.2,697,1175.2,697z"/>
	<rect x="1164.4" y="629.6" class="st13" width="21.7" height="37.1"/>
	<rect x="1164.4" y="629.6" class="st21" width="21.7" height="18.5"/>
	<g>
		<rect x="1148.3" y="563.1" class="st13" width="29" height="3.9"/>
		<rect x="1148.3" y="552.8" class="st13" width="29" height="3.9"/>
		<rect x="1148.3" y="542.5" class="st13" width="29" height="3.9"/>
		<rect x="1148.3" y="532.2" class="st13" width="29" height="3.9"/>
		<rect x="1148.3" y="521.9" class="st13" width="29" height="3.9"/>
		<rect x="1148.3" y="511.6" class="st13" width="29" height="3.9"/>
		<rect x="1148.3" y="501.3" class="st13" width="29" height="3.9"/>
		<rect x="1148.3" y="491" class="st13" width="29" height="3.9"/>
		<rect x="1148.3" y="480.7" class="st13" width="29" height="3.9"/>
		<rect x="1148.3" y="470.3" class="st13" width="29" height="3.9"/>
		<rect x="1148.3" y="460" class="st13" width="29" height="3.9"/>
		<rect x="1148.3" y="449.7" class="st13" width="29" height="3.9"/>
		<rect x="1148.3" y="439.4" class="st13" width="29" height="3.9"/>
	</g>
	<polygon class="st19" points="1040,516.7 1143,516.7 1143,527.1 1042.6,527.1 	"/>
	<path class="st22" d="M1116.1,554.6c1.1,1.8,2.1,3.6,3.1,5.5h-81.3c1-1.9,2.1-3.7,3.1-5.5H1116.1z"/>
</g>
</svg>
