<?xml version="1.0" encoding="utf-8"?>
<!-- Generator: Adobe Illustrator 19.2.0, SVG Export Plug-In . SVG Version: 6.00 Build 0)  -->
<svg version="1.1" id="Warstwa_1" xmlns="http://www.w3.org/2000/svg" xmlns:xlink="http://www.w3.org/1999/xlink" x="0px" y="0px"
	 viewBox="0 0 200 200" style="enable-background:new 0 0 200 200;" xml:space="preserve">
<style type="text/css">
	.st0{display:none;}
	.st1{display:inline;}
	.st2{clip-path:url(#SVGID_2_);}
	.st3{fill:none;stroke:#3F4A52;stroke-width:0.25;stroke-miterlimit:10;}
	.st4{clip-path:url(#SVGID_4_);}
	.st5{clip-path:url(#SVGID_6_);}
	.st6{fill:#FFFFFF;}
	.st7{fill:#3F4A52;}
	.st8{fill:none;stroke:#3F4A52;stroke-width:0.75;stroke-miterlimit:10;}
</style>
<g id="we" class="st0">
	<g class="st1">
		<defs>
			<path id="SVGID_1_" d="M101,1.7c54.7,0,99,44.2,99,98.7s-44.3,98.7-99,98.7S2,154.8,2,100.3C2,45.9,46.3,1.7,101,1.7z"/>
		</defs>
		<clipPath id="SVGID_2_">
			<use xlink:href="#SVGID_1_"  style="overflow:visible;"/>
		</clipPath>
		<g class="st2">
			<g>
				<path class="st3" d="M137.4,125.8c-23.7,0-43,22.3-43,49.8s19.2,49.8,43,49.8c23.7,0,43-22.3,43-49.8S161.1,125.8,137.4,125.8z
					 M136.6,109.5c17,0,30.8-14.6,30.8-32.6s-13.8-32.6-30.8-32.6s-30.8,14.6-30.8,32.6S119.6,109.5,136.6,109.5z"/>
			</g>
		</g>
	</g>
	<g class="st1">
		<defs>
			<path id="SVGID_3_" d="M101,1.7c54.7,0,99,44.2,99,98.7s-44.3,98.7-99,98.7S2,154.8,2,100.3C2,45.9,46.3,1.7,101,1.7z"/>
		</defs>
		<clipPath id="SVGID_4_">
			<use xlink:href="#SVGID_3_"  style="overflow:visible;"/>
		</clipPath>
		<g class="st4">
			<g>
				<path class="st3" d="M62.8,125.8c-23.7,0-43,22.3-43,49.8s19.2,49.8,43,49.8c23.7,0,43-22.3,43-49.8S86.5,125.8,62.8,125.8z
					 M62,109.5c17,0,30.8-14.6,30.8-32.6S79,44.3,62,44.3S31.2,58.9,31.2,76.9C31.2,94.9,45,109.5,62,109.5z"/>
			</g>
		</g>
	</g>
	<g class="st1">
		<defs>
			<path id="SVGID_5_" d="M101,1.7c54.7,0,99,44.2,99,98.7s-44.3,98.7-99,98.7S2,154.8,2,100.3C2,45.9,46.3,1.7,101,1.7z"/>
		</defs>
		<clipPath id="SVGID_6_">
			<use xlink:href="#SVGID_5_"  style="overflow:visible;"/>
		</clipPath>
		<g class="st5">
			<g>
				<path class="st6" d="M100.5,141.3c-23.7,0-43,22.3-43,49.8s19.2,49.8,43,49.8c23.7,0,43-22.3,43-49.8
					C143.5,163.5,124.2,141.3,100.5,141.3z M99.7,124.9c17,0,30.8-14.6,30.8-32.6s-13.8-32.6-30.8-32.6S68.9,74.3,68.9,92.3
					S82.7,124.9,99.7,124.9z"/>
			</g>
			<g>
				<path class="st3" d="M100.5,141.3c-23.7,0-43,22.3-43,49.8s19.2,49.8,43,49.8c23.7,0,43-22.3,43-49.8
					C143.5,163.5,124.2,141.3,100.5,141.3z M99.7,124.9c17,0,30.8-14.6,30.8-32.6s-13.8-32.6-30.8-32.6S68.9,74.3,68.9,92.3
					S82.7,124.9,99.7,124.9z"/>
			</g>
		</g>
	</g>
</g>
<path id="functional" class="st7" d="M72.4,151.3c13-30.3,20.5-47.8,22.5-52.5s3.7-9.2,5.1-13.4h0.3c1.2,4.8,3.9,13.4,8.1,25.7
	l11.4,32.4c1.1,3.2,2.5,5.5,3.9,7c1.5,1.4,3.4,2.1,5.7,2.1c2.1,0,3.8-0.4,5.2-1.1v-4.9c-1.1,0.5-2.3,0.7-3.6,0.7s-2.3-0.5-3.1-1.4
	c-0.8-0.9-1.5-2.4-2.2-4.3L99,66.3c-2.1-5.8-3.9-9.9-5.4-12.3c-1.5-2.4-3.2-4-5.2-5.1c-1.9-1-4.4-1.5-7.4-1.5
	c-2.3,0-4.8,0.4-7.5,1.1v5c2.6-0.5,4.8-0.8,6.8-0.8c2.1,0,3.9,0.5,5.4,1.4s2.7,2.3,3.8,4.1c1.1,1.8,2.4,5.1,4,9.8l3.6,11l-31.6,72.3
	H72.4z"/>
<path class="st8" d="M100,1c54.7,0,99,44.3,99,99s-44.3,99-99,99S1,154.7,1,100S45.3,1,100,1z"/>
</svg>
