<?xml version="1.0" encoding="utf-8"?>
<!-- Generator: Adobe Illustrator 19.2.0, SVG Export Plug-In . SVG Version: 6.00 Build 0)  -->
<svg version="1.1" id="Warstwa_1" xmlns="http://www.w3.org/2000/svg" xmlns:xlink="http://www.w3.org/1999/xlink" x="0px" y="0px"
	 viewBox="0 0 238.7 50" style="enable-background:new 0 0 238.7 50;" xml:space="preserve">
<style type="text/css">
	.st0{fill-rule:evenodd;clip-rule:evenodd;fill:#5F7EBE;}
	.st1{fill-rule:evenodd;clip-rule:evenodd;fill:#95C94A;}
	.st2{fill:#3B3A3A;}
</style>
<g>
	<g>
		<g>
			<path class="st0" d="M25.4,2c0.1,0,0.2,4,0.2,9.7c4.9-4.9,7.4-4.2,10.8-2.3c4.9,3.4,3.9,10,4.1,10.2c0.2,0.3,0.7,0.8,0.7,0.8
				L39,22.2l-7.3-7.8c0,0-0.6-0.7-1.5-0.3c-1.1,0.5-2.5,2.5-2.4,2.5c0,0-1.3-1.4-2.3-2.4c0,0.3,0,0.7,0,1L35.8,26
				c0,0-1.9,2.1-2.1,2.1c-1.1-0.7-4.2,0-4.2,0l-4,3.7c0,9.1-0.1,16.7-0.2,16.6c12.9,0,23.3-10.4,23.3-23.3C48.7,12.4,38.3,2,25.4,2z
				 M25.6,24.3l0.4-0.4l-0.4-0.5C25.6,23.8,25.6,24,25.6,24.3z"/>
		</g>
	</g>
	<g>
		<g>
			<path class="st1" d="M14.2,42.4c0,0-2.3,0.6-3.3-1.3c-1-2,0-2.9,0-2.9s5.7-4.6,6.9-7.2c1.2-2.6-0.7-3-0.4-4.4
				c0.3-1.4,1.5-1.6,1.5-1.6l3,2.7l3.7-3.3c0-0.3,0-0.5,0-0.8l-6-6.6l4.2-3.6l1.8,1.9c0-0.4,0-0.7,0-1c-0.6-0.6-1.1-1.2-1.2-1.2
				c0.4-0.5,0.8-0.9,1.2-1.3C25.6,6,25.7,2,25.8,2C12.9,2,2.5,12.4,2.5,25.2c0,12.9,10.4,23.3,23.3,23.3c0,0.1-0.1-7.6-0.2-16.7
				L14.2,42.4z M19.1,17.2l3.3,3.7l-2,1.9l-3.3-3.7L19.1,17.2z"/>
		</g>
	</g>
</g>
<g>
	<g>
		<path class="st2" d="M64.5,14.8c-1.4,1-2.4,2.5-3.1,4.2v-5.3h-1.3v25.6h1.3V22.5c0.5-2.5,1.4-4.5,2.9-5.9c1.5-1.4,3.3-2.1,5.5-2.1
			l1.7,0.1l0.1-1.2c-0.5-0.2-1.1-0.3-1.8-0.3C67.6,13.2,65.9,13.7,64.5,14.8z M87.1,13.2c-2,0-3.8,0.6-5.4,1.7
			c-1.7,1.1-3,2.6-3.9,4.6c-0.9,2-1.4,4.1-1.4,6.5v1.1c0,2.4,0.5,4.5,1.5,6.5c1,1.9,2.3,3.5,4.1,4.6s3.6,1.7,5.7,1.7
			c3.8,0,6.6-1.4,8.5-4.1L95.2,35c-0.9,1.2-2,2.1-3.2,2.6c-1.2,0.6-2.7,0.9-4.4,0.9c-1.8,0-3.5-0.5-5-1.5c-1.5-1-2.8-2.4-3.6-4.2
			s-1.3-3.7-1.3-5.8v-1.4h19.3v-1.3c0-3.3-0.9-6-2.7-8C92.3,14.2,89.9,13.2,87.1,13.2z M95.6,24.1v0.3H77.7c0.3-2.9,1.3-5.2,3.1-7.1
			c1.7-1.9,3.9-2.8,6.4-2.8c1.6,0,3,0.4,4.3,1.2c1.3,0.8,2.3,2,3,3.5S95.6,22.3,95.6,24.1z M116.6,13.2c-2.9,0-5.2,1-6.9,3.1
			l-0.2-2.6h-5.3v35.5h5.8V37c1.7,1.8,3.9,2.8,6.8,2.8c3,0,5.5-1.2,7.3-3.5c1.8-2.4,2.7-5.5,2.7-9.5v-0.4c0-4.1-0.9-7.4-2.7-9.7
			C122.2,14.4,119.7,13.2,116.6,13.2z M119.3,33c-1,1.5-2.5,2.2-4.3,2.2c-2.4,0-4.1-1-5.1-3V20.8c1-1.9,2.7-2.9,5.1-2.9
			c1.9,0,3.4,0.7,4.4,2.2c1,1.5,1.5,3.5,1.5,6.1C120.9,29.3,120.4,31.5,119.3,33z M131.9,39.3h5.8V2.9h-5.8V39.3z M159.3,32.1
			c-1,2-2.9,3-5.7,3c-2.7,0-4.1-1.6-4.1-4.9V13.7h-5.8v16.6c0,3.1,0.7,5.4,2.1,7.1c1.4,1.6,3.5,2.4,6.3,2.4c3.1,0,5.5-1,7.2-3
			l0.1,2.5h5.4V13.7h-5.8V32.1z M198.9,13.2c-3.4,0-6,1.3-7.9,3.9c-1.3-2.6-3.6-3.9-7.1-3.9c-3.1,0-5.6,1-7.4,3.1l-0.2-2.7h-5.4
			v25.6h5.8V20.8c1-1.9,2.6-2.8,4.9-2.8c3,0,4.5,1.5,4.6,4.5v16.9h5.8l0-17.6c0.3-1.1,0.9-2.1,1.7-2.8c0.8-0.7,1.9-1.1,3.2-1.1
			c1.6,0,2.8,0.4,3.5,1.1c0.7,0.8,1.1,1.9,1.1,3.6v16.7h5.8V22.5c0-3-0.7-5.4-2.1-6.9C203.8,14,201.7,13.2,198.9,13.2z M233.1,16.7
			c-1.8-2.3-4.2-3.5-7.4-3.5c-2.8,0-5.1,1-6.7,2.9V2.9h-5.8v36.4h5.2l0.3-2.8c1.7,2.2,4,3.2,7,3.2c3.1,0,5.6-1.2,7.3-3.5
			c1.8-2.4,2.7-5.5,2.7-9.5v-0.3C235.8,22.3,234.9,19,233.1,16.7z M230,27c0,2.7-0.5,4.7-1.5,6.1c-1,1.3-2.4,2-4.2,2
			c-2.5,0-4.3-1.1-5.3-3.3V21.2c1-2.2,2.8-3.3,5.3-3.3c1.9,0,3.3,0.7,4.3,2.1c1,1.4,1.5,3.5,1.5,6.3V27z"/>
	</g>
</g>
</svg>
