<?xml version="1.0" encoding="utf-8"?>
<!-- Generator: Adobe Illustrator 19.2.0, SVG Export Plug-In . SVG Version: 6.00 Build 0)  -->
<svg version="1.1" id="Warstwa_1" xmlns="http://www.w3.org/2000/svg" xmlns:xlink="http://www.w3.org/1999/xlink" x="0px" y="0px"
	 viewBox="0 0 200 200" style="enable-background:new 0 0 200 200;" xml:space="preserve">
<style type="text/css">
	.st0{display:none;}
	.st1{display:inline;}
	.st2{fill-rule:evenodd;clip-rule:evenodd;fill:#FFFFFF;}
	.st3{fill:#FFFFFF;}
</style>
<g class="st0">
	<g class="st1">
		<path class="st2" d="M145.6,160.7c-5.9-1.3-11.9-2.7-17.8-4c-9.7,3.4-19.5,9.3-34.7,6.7c-32-5.5-67.1-35.2-55.6-77.7
			c2.9-10.6,8.9-17.6,12.9-26.2c2.4-2.4,4.7-4.7,7.1-7.1c-3.6-1.9-10.6-1.5-16-1.3c-14.1,5.6-23.5,6.7-31.6,17.8
			c-16,21.8-10.6,58.3,2.2,79.9c23.9,40.3,83.8,70,138,37.3c10.6-6.4,24.7-15.1,29.8-26.6c0.4-0.4,0.9-0.9,1.3-1.3
			c0-0.1,0-0.3,0-0.4C171.3,159.2,158.6,162.9,145.6,160.7z M81.5,149.6c10.6,2.9,22.8,2.9,34.3,0.9c0.1-0.3,0.3-0.6,0.4-0.9
			c-14.4-10.7-11.7-33.4-20.9-47.5C90.2,117.5,81.1,128.2,81.5,149.6z M69.1,56.8c-17.7,15.9-31.6,41.8-14.7,69.7
			c3.2,5.3,7.3,12,12.9,14.6c0.4,0.4,0.9,0.9,1.3,1.3c9-16.8,12.7-35.1,23.6-49.7C90.5,79.7,80,61.2,69.1,56.8z M130.9,142.5
			c42.9-27.4,19.8-96.4-35.6-95.4c-4,0.9-8,1.8-12,2.7c4.6,7,9.5,13.8,12.9,22.2C105.3,94.2,109,134.3,130.9,142.5z M192.8,62.2
			C177.6,26.3,145.8-0.8,94,0C79.9,1.2,76.8,2.2,69.5,4.5c-21.3,6.7-39.2,20.3-50.7,36.8c12.5-5,28.1-10.3,45-4.9
			c3.3,1.8,6.5,3.6,9.8,5.3c4.2-1.3,8.3-2.7,12.5-4c8.8-2.2,21.4-1.8,29.8,0.4c26.9,7.3,56,37.2,46.3,75.9
			c-3.1,12.2-10.1,19-14.7,28.4c-0.9,0.9-1.8,1.8-2.7,2.7c11.9,0.4,22.9,0.2,31.6-3.6C203,130.2,205.2,91.4,192.8,62.2z"/>
	</g>
</g>
<g>
	<g>
		<path class="st3" d="M55.2,89.9c2.5,0,5.6,0.8,9.3,2.2l2.7-7.2c-3.5-1.7-7.5-2.5-11.9-2.5c-6.6,0-11.5,1.9-15,5.7
			c-3.5,3.8-5.2,9.3-5.2,16.4c0,7,1.7,12.3,5,16c3.3,3.7,8.1,5.6,14.5,5.6c2.6,0,4.8-0.2,6.6-0.7c1.8-0.4,3.5-1.1,5.1-2v-7.8
			c-3.6,2-7.3,3-11.3,3c-3.5,0-6.2-1.2-8-3.6c-1.8-2.4-2.7-5.9-2.7-10.7C44.3,94.7,47.9,89.9,55.2,89.9z M90.9,125.4V66.1H82v59.3
			H90.9z M118.4,130.9V83.2h-8.9v47.1c0,4.3-1.9,6.5-5.7,6.5c-1.8,0-3.6-0.3-5.3-0.7v7.1c1.8,0.7,4,1,6.7,1c4.3,0,7.5-1.1,9.8-3.4
			C117.3,138.6,118.4,135.2,118.4,130.9z M114,77c1.6,0,2.8-0.5,3.7-1.3c0.9-0.9,1.3-2.1,1.3-3.6c0-1.6-0.5-2.8-1.3-3.7
			c-0.9-0.9-2.1-1.3-3.7-1.3c-1.7,0-2.9,0.5-3.8,1.3c-0.9,0.9-1.3,2.1-1.3,3.7c0,1.5,0.4,2.7,1.3,3.6C111.1,76.6,112.4,77,114,77z
			 M150.1,89.5c3.1,0,6.9,1,11.4,2.8l2.9-6.7c-4.4-2-9.1-3-14-3c-5,0-8.9,1-11.8,3s-4.4,4.8-4.4,8.4c0,3,0.9,5.4,2.6,7.3
			c1.7,1.9,5,3.8,9.8,5.6c2.5,1,4.4,1.8,5.8,2.6c1.4,0.8,2.4,1.5,3,2.2c0.6,0.7,0.9,1.6,0.9,2.7c0,3.3-2.8,5-8.2,5
			c-4.3,0-8.9-1.2-13.8-3.4v7.8c3.4,1.7,7.9,2.6,13.5,2.6c5.6,0,9.8-1.1,12.8-3.3c3-2.2,4.5-5.3,4.5-9.5c0-2.1-0.4-3.8-1.2-5.2
			c-0.8-1.5-2-2.8-3.5-3.9c-1.6-1.1-4.1-2.3-7.6-3.7c-4.1-1.6-6.8-2.9-8-3.8c-1.3-1-1.9-2.1-1.9-3.4C143,90.8,145.4,89.5,150.1,89.5
			z M0.4,99.9c0,52.6,40.5,95.8,91.8,99.9v-10.2c-45.7-4.1-81.7-42.8-81.7-89.8c0-47,36-85.7,81.7-89.8V0
			C40.9,4.1,0.4,47.3,0.4,99.9z M108.2,0v10.1C154,14.2,190,52.9,190,99.9c0,47-36,85.7-81.7,89.8v10.1
			c51.3-4.1,91.8-47.3,91.8-99.9C200,47.3,159.5,4.1,108.2,0z"/>
	</g>
</g>
</svg>
