<?xml version="1.0" encoding="utf-8"?>
<!-- Generator: Adobe Illustrator 19.2.0, SVG Export Plug-In . SVG Version: 6.00 Build 0)  -->
<svg version="1.1" id="Warstwa_1" xmlns="http://www.w3.org/2000/svg" xmlns:xlink="http://www.w3.org/1999/xlink" x="0px" y="0px"
	 viewBox="0 0 200 200" style="enable-background:new 0 0 200 200;" xml:space="preserve">
<style type="text/css">
	.st0{fill-rule:evenodd;clip-rule:evenodd;fill:#FFFFFF;}
</style>
<g>
	<g>
		<path class="st0" d="M145.6,160.7c-5.9-1.3-11.9-2.7-17.8-4c-9.7,3.4-19.5,9.3-34.7,6.7c-32-5.5-67.1-35.2-55.6-77.7
			c2.9-10.6,8.9-17.6,12.9-26.2c2.4-2.4,4.7-4.7,7.1-7.1c-3.6-1.9-10.6-1.5-16-1.3c-14.1,5.6-23.5,6.7-31.6,17.8
			c-16,21.8-10.6,58.3,2.2,79.9c23.9,40.3,83.8,70,138,37.3c10.6-6.4,24.7-15.1,29.8-26.6c0.4-0.4,0.9-0.9,1.3-1.3
			c0-0.1,0-0.3,0-0.4C171.3,159.2,158.6,162.9,145.6,160.7z M81.5,149.6c10.6,2.9,22.8,2.9,34.3,0.9c0.1-0.3,0.3-0.6,0.4-0.9
			c-14.4-10.7-11.7-33.4-20.9-47.5C90.2,117.5,81.1,128.2,81.5,149.6z M69.1,56.8c-17.7,15.9-31.6,41.8-14.7,69.7
			c3.2,5.3,7.3,12,12.9,14.6c0.4,0.4,0.9,0.9,1.3,1.3c9-16.8,12.7-35.1,23.6-49.7C90.5,79.7,80,61.2,69.1,56.8z M130.9,142.5
			c42.9-27.4,19.8-96.4-35.6-95.4c-4,0.9-8,1.8-12,2.7c4.6,7,9.5,13.8,12.9,22.2C105.3,94.2,109,134.3,130.9,142.5z M192.8,62.2
			C177.6,26.3,145.8-0.8,94,0C79.9,1.2,76.8,2.2,69.5,4.5c-21.3,6.7-39.2,20.3-50.7,36.8c12.5-5,28.1-10.3,45-4.9
			c3.3,1.8,6.5,3.6,9.8,5.3c4.2-1.3,8.3-2.7,12.5-4c8.8-2.2,21.4-1.8,29.8,0.4c26.9,7.3,56,37.2,46.3,75.9
			c-3.1,12.2-10.1,19-14.7,28.4c-0.9,0.9-1.8,1.8-2.7,2.7c11.9,0.4,22.9,0.2,31.6-3.6C203,130.2,205.2,91.4,192.8,62.2z"/>
	</g>
</g>
</svg>
