<?xml version="1.0" encoding="utf-8"?>
<!-- Generator: Adobe Illustrator 19.2.0, SVG Export Plug-In . SVG Version: 6.00 Build 0)  -->
<svg version="1.1" id="Warstwa_1" xmlns="http://www.w3.org/2000/svg" xmlns:xlink="http://www.w3.org/1999/xlink" x="0px" y="0px"
	 viewBox="0 0 200 200" style="enable-background:new 0 0 200 200;" xml:space="preserve">
<style type="text/css">
	.st0{clip-path:url(#SVGID_2_);}
	.st1{fill:none;stroke:#3F4A52;stroke-width:0.75;stroke-miterlimit:10;}
	.st2{clip-path:url(#SVGID_4_);}
	.st3{clip-path:url(#SVGID_6_);}
	.st4{fill:#FFFFFF;stroke:#484848;stroke-width:0.75;stroke-miterlimit:10;}
	.st5{fill:none;stroke:#484848;stroke-width:0.75;stroke-miterlimit:10;}
</style>
<g>
	<g>
		<g>
			<defs>
				<path id="SVGID_1_" d="M101,1.7c54.7,0,99,44.2,99,98.7s-44.3,98.7-99,98.7S2,154.8,2,100.3C2,45.9,46.3,1.7,101,1.7z"/>
			</defs>
			<clipPath id="SVGID_2_">
				<use xlink:href="#SVGID_1_"  style="overflow:visible;"/>
			</clipPath>
			<g class="st0">
				<g>
					<path class="st1" d="M137.4,125.8c-23.7,0-43,22.3-43,49.8s19.2,49.8,43,49.8c23.7,0,43-22.3,43-49.8S161.1,125.8,137.4,125.8z
						 M136.6,109.5c17,0,30.8-14.6,30.8-32.6s-13.8-32.6-30.8-32.6s-30.8,14.6-30.8,32.6S119.6,109.5,136.6,109.5z"/>
				</g>
			</g>
		</g>
	</g>
	<g>
		<g>
			<defs>
				<path id="SVGID_3_" d="M101,1.7c54.7,0,99,44.2,99,98.7s-44.3,98.7-99,98.7S2,154.8,2,100.3C2,45.9,46.3,1.7,101,1.7z"/>
			</defs>
			<clipPath id="SVGID_4_">
				<use xlink:href="#SVGID_3_"  style="overflow:visible;"/>
			</clipPath>
			<g class="st2">
				<g>
					<path class="st1" d="M62.8,125.8c-23.7,0-43,22.3-43,49.8s19.2,49.8,43,49.8c23.7,0,43-22.3,43-49.8S86.5,125.8,62.8,125.8z
						 M62,109.5c17,0,30.8-14.6,30.8-32.6S79,44.3,62,44.3S31.2,58.9,31.2,76.9S45,109.5,62,109.5z"/>
				</g>
			</g>
		</g>
	</g>
	<g>
		<g>
			<defs>
				<path id="SVGID_5_" d="M101,1.7c54.7,0,99,44.2,99,98.7s-44.3,98.7-99,98.7S2,154.8,2,100.3C2,45.9,46.3,1.7,101,1.7z"/>
			</defs>
			<clipPath id="SVGID_6_">
				<use xlink:href="#SVGID_5_"  style="overflow:visible;"/>
			</clipPath>
			<g class="st3">
				<g>
					<path class="st4" d="M100.5,141.3c-23.7,0-43,22.3-43,49.8s19.2,49.8,43,49.8c23.7,0,43-22.3,43-49.8
						C143.5,163.5,124.2,141.3,100.5,141.3z M99.7,124.9c17,0,30.8-14.6,30.8-32.6s-13.8-32.6-30.8-32.6S68.9,74.3,68.9,92.3
						S82.7,124.9,99.7,124.9z"/>
				</g>
				<g>
					<path class="st5" d="M100.5,141.3c-23.7,0-43,22.3-43,49.8s19.2,49.8,43,49.8c23.7,0,43-22.3,43-49.8
						C143.5,163.5,124.2,141.3,100.5,141.3z M99.7,124.9c17,0,30.8-14.6,30.8-32.6s-13.8-32.6-30.8-32.6S68.9,74.3,68.9,92.3
						S82.7,124.9,99.7,124.9z"/>
				</g>
			</g>
		</g>
	</g>
</g>
<path class="st1" d="M100.5,1c54.7,0,99,44.3,99,99s-44.3,99-99,99s-99-44.3-99-99S45.8,1,100.5,1z"/>
</svg>
