<?xml version="1.0" encoding="utf-8"?>
<!-- Generator: Adobe Illustrator 19.2.0, SVG Export Plug-In . SVG Version: 6.00 Build 0)  -->
<svg version="1.1" id="Obszar_kompozycji_1_1_" xmlns="http://www.w3.org/2000/svg" xmlns:xlink="http://www.w3.org/1999/xlink"
	 x="0px" y="0px" viewBox="0 0 344.1 187.1" style="enable-background:new 0 0 344.1 187.1;" xml:space="preserve">
<style type="text/css">
	.st0{fill:#0072BC;}
	.st1{fill:#3F4A52;}
	.st2{font-family:'OpenSans-Bold';}
	.st3{font-size:169.4594px;}
</style>
<g id="lambda">
	<g>
		<path class="st0" d="M109.4,147.7l-1.7,0.1l-3.3-0.1c-3.3-0.4-6.2-3.4-8.7-8.8L52.2,35.2c-2.1-5.1-5.2-9-9.3-11.7s-9.8-4-17.2-4
			c-4.8,0-9.2,0.5-13.2,1.5l0.3,17.3l2.8-0.2h3.5c5,0.2,8.6,2.7,10.9,7.4l9.3,20.7L0,165.2h27l25.1-67.8L72.7,148
			c2.9,7,6.4,12,10.4,14.7c4,2.8,9.7,4.2,17.1,4.2c3.5,0,6.7-0.3,9.6-1L109.4,147.7z"/>
	</g>
</g>
<g id="bracket_left">
	<g>
		<path class="st0" d="M338,55.1c-4-12.2-9.8-23.3-17.4-33.3S304.7,4.5,295.7,0l-4.5,8.7c6.8,4.1,8.1,8.7,14.1,17.7
			s10.7,19.1,14.2,30.5c3.4,11.4,5.1,23.2,5.1,35.5c0,13.5-1.7,26.1-5.1,37.7s-8.1,21.7-14,30.4c-5.9,8.7-9.7,11.2-14.2,17.8
			l4.5,8.3c9.2-4.6,17.6-11.9,25.2-21.9s13.4-21,17.3-33.1c3.9-12,5.8-24.6,5.8-37.6C344,80.2,342,67.3,338,55.1z"/>
	</g>
</g>
<g id="X">
	<text transform="matrix(1.0053 0 0 1 182.5205 153.9945)" class="st1 st2 st3">X</text>
</g>
<g id="_bracket_right">
	<g>
		<path class="st0" d="M157.1,130.4c-3.4-11.6-5.1-24.2-5.1-37.7c0-12.3,1.7-24.1,5.1-35.5c3.4-11.4,8.1-21.6,14.2-30.6
			c6-9,7.3-13.7,14.1-17.7l-4.5-8.7c-9,4.6-17.3,11.9-24.9,21.9c-7.6,10-13.4,21.1-17.4,33.3s-6,25.2-6,38.9c0,13,1.9,25.6,5.8,37.7
			c3.9,12.1,9.6,23.1,17.3,33.1c7.6,10,16,17.3,25.2,22l4.5-8.3c-4.5-6.6-8.3-9.1-14.2-17.8C165.2,152.2,160.5,142,157.1,130.4z"/>
	</g>
</g>
</svg>
